Gajraj.ufo
<glyph name="exclam" format="1">
  <advance width="300"/>
  <unicode hex="0021"/>
  <outline>
    <contour>
      <point x="30" y="665" type="line"/>
      <point x="67.9" y="213" type="line"/>
      <point x="232.1" y="213" type="line"/>
      <point x="270" y="665" type="line"/>
    </contour>
    <contour>
      <point x="230" y="128.2" type="line"/>
      <point x="150" y="128.2" type="line" smooth="yes"/>
      <point x="137.3" y="128.2"/>
      <point x="70" y="125.2"/>
      <point x="70" y="109" type="curve" smooth="yes"/>
      <point x="70" y="-0.2" type="line"/>
      <point x="150" y="-0.2" type="line" smooth="yes"/>
      <point x="162.7" y="-0.2"/>
      <point x="230" y="2.8"/>
      <point x="230" y="19" type="curve" smooth="yes"/>
    </contour>
  </outline>
</glyph>
<glyph name="ampersand" format="1">
  <advance width="866"/>
  <unicode hex="0026"/>
  <outline>
    <contour>
      <point x="488" y="428" type="line"/>
      <point x="628" y="428" type="line" smooth="yes"/>
      <point x="650" y="428"/>
      <point x="768" y="434"/>
      <point x="768" y="462" type="curve" smooth="yes"/>
      <point x="768" y="631" type="line" smooth="yes"/>
      <point x="768" y="659"/>
      <point x="650" y="665"/>
      <point x="628" y="665" type="curve" smooth="yes"/>
      <point x="298" y="665" type="line" smooth="yes"/>
      <point x="276" y="665"/>
      <point x="158" y="659"/>
      <point x="158" y="631" type="curve" smooth="yes"/>
      <point x="158" y="461" type="line" smooth="yes"/>
      <point x="158" y="392"/>
      <point x="215.3" y="352.3"/>
      <point x="260" y="309" type="curve" smooth="yes"/>
      <point x="280.036" y="289.6" type="line"/>
      <point x="170" y="289.6" type="line" smooth="yes"/>
      <point x="147.7" y="289.6"/>
      <point x="30" y="284.4"/>
      <point x="30" y="256" type="curve" smooth="yes"/>
      <point x="30" y="34" type="line" smooth="yes"/>
      <point x="30" y="5.6"/>
      <point x="147.7" y="0.4"/>
      <point x="170" y="0.4" type="curve" smooth="yes"/>
      <point x="380" y="0.4" type="line" smooth="yes"/>
      <point x="402.3" y="0.4"/>
      <point x="520" y="5.6"/>
      <point x="520" y="34" type="curve" smooth="yes"/>
      <point x="520" y="56.9127" type="line"/>
      <point x="534.733" y="41.7068"/>
      <point x="552.709" y="22.5273"/>
      <point x="567" y="14" type="curve" smooth="yes"/>
      <point x="595.9" y="-3.2"/>
      <point x="662" y="-7"/>
      <point x="696" y="-7" type="curve" smooth="yes"/>
      <point x="718" y="-7"/>
      <point x="836" y="-1"/>
      <point x="836" y="27" type="curve" smooth="yes"/>
      <point x="836" y="36"/>
      <point x="792.2" y="74.2"/>
      <point x="784" y="82" type="curve" smooth="yes"/>
      <point x="536" y="320" type="line" smooth="yes"/>
      <point x="500.3" y="354.3"/>
      <point x="451.2" y="389"/>
      <point x="440" y="440" type="curve" smooth="yes"/>
      <point x="435.2" y="462"/>
      <point x="438" y="485"/>
      <point x="438" y="508" type="curve" smooth="yes"/>
      <point x="438" y="597" type="line"/>
      <point x="488" y="597" type="line"/>
    </contour>
    <contour>
      <point x="310" y="67.6" type="line"/>
      <point x="310" y="260.587" type="line"/>
      <point x="509" y="68" type="line"/>
      <point x="509.302" y="67.7093"/>
      <point x="509.607" y="67.414"/>
      <point x="509.915" y="67.1142" type="curve"/>
      <point x="463.308" y="67.1647"/>
      <point x="416.654" y="67.6"/>
      <point x="370" y="67.6" type="curve" smooth="yes"/>
    </contour>
  </outline>
</glyph>
<glyph name="parenleft" format="1">
  <advance width="323"/>
  <unicode hex="0028"/>
  <outline>
    <contour>
      <point x="78.1" y="696.3" type="line"/>
      <point x="50.1" y="566.2"/>
      <point x="30" y="433.8"/>
      <point x="30" y="300.4" type="curve" smooth="yes"/>
      <point x="30" y="171.7"/>
      <point x="49.3" y="43.9"/>
      <point x="78.1" y="-81.3" type="curve"/>
      <point x="317.9" y="-78.7" type="line"/>
      <point x="289.3" y="45.6"/>
      <point x="270" y="172.6"/>
      <point x="270" y="300.4" type="curve" smooth="yes"/>
      <point x="270" y="432.9"/>
      <point x="290" y="564.4"/>
      <point x="317.9" y="693.7" type="curve"/>
    </contour>
  </outline>
</glyph>
<glyph name="parenright" format="1">
  <advance width="328"/>
  <unicode hex="0029"/>
  <outline>
    <contour>
      <point x="249.9" y="696.3" type="line"/>
      <point x="277.9" y="566.2"/>
      <point x="298" y="433.8"/>
      <point x="298" y="300.4" type="curve" smooth="yes"/>
      <point x="298" y="171.7"/>
      <point x="278.7" y="43.9"/>
      <point x="249.9" y="-81.3" type="curve"/>
      <point x="10.1" y="-78.7" type="line"/>
      <point x="38.7" y="45.6"/>
      <point x="58" y="172.6"/>
      <point x="58" y="300.4" type="curve" smooth="yes"/>
      <point x="58" y="432.9"/>
      <point x="38" y="564.4"/>
      <point x="10.1" y="693.7" type="curve"/>
    </contour>
  </outline>
</glyph>
<glyph name="period" format="1">
  <advance width="220"/>
  <unicode hex="002E"/>
  <outline>
    <contour>
      <point x="190" y="128.2" type="line"/>
      <point x="110" y="128.2" type="line" smooth="yes"/>
      <point x="97.3" y="128.2"/>
      <point x="30" y="125.2"/>
      <point x="30" y="109" type="curve" smooth="yes"/>
      <point x="30" y="-0.2" type="line"/>
      <point x="110" y="-0.2" type="line" smooth="yes"/>
      <point x="122.7" y="-0.2"/>
      <point x="190" y="2.8"/>
      <point x="190" y="19" type="curve" smooth="yes"/>
    </contour>
  </outline>
</glyph>
<glyph name="two" format="1">
  <advance width="610"/>
  <unicode hex="0032"/>
  <outline>
    <contour>
      <point x="580" y="67.6" type="line"/>
      <point x="310" y="67.6" type="line"/>
      <point x="310" y="194.9" type="line"/>
      <point x="389.5" y="227.3"/>
      <point x="478.4" y="258.9"/>
      <point x="555.2" y="295.1" type="curve" smooth="yes"/>
      <point x="561" y="297.8"/>
      <point x="572" y="303.1"/>
      <point x="572" y="311" type="curve" smooth="yes"/>
      <point x="572" y="631" type="line" smooth="yes"/>
      <point x="572" y="659.4"/>
      <point x="454.3" y="664.6"/>
      <point x="432" y="664.6" type="curve" smooth="yes"/>
      <point x="42" y="664.6" type="line"/>
      <point x="42" y="597.4" type="line"/>
      <point x="292" y="597.4" type="line"/>
      <point x="292" y="320.1" type="line"/>
      <point x="212.5" y="287.7"/>
      <point x="123.6" y="256.1"/>
      <point x="46.8" y="219.9" type="curve" smooth="yes"/>
      <point x="41" y="217.2"/>
      <point x="30" y="211.9"/>
      <point x="30" y="204" type="curve" smooth="yes"/>
      <point x="30" y="34" type="line" smooth="yes"/>
      <point x="30" y="5.6"/>
      <point x="147.7" y="0.4"/>
      <point x="170" y="0.4" type="curve" smooth="yes"/>
      <point x="580" y="0.4" type="line"/>
    </contour>
  </outline>
</glyph>
<glyph name="three" format="1">
  <advance width="590"/>
  <unicode hex="0033"/>
  <outline>
    <contour>
      <point x="220" y="296.6" type="line"/>
      <point x="248.6" y="296.6" type="line"/>
      <point x="280.8" y="276.1"/>
      <point x="280" y="241.9"/>
      <point x="280" y="208" type="curve" smooth="yes"/>
      <point x="280.844" y="139.594" type="line" smooth="yes"/>
      <point x="280.938" y="136.438"/>
      <point x="281" y="133.25"/>
      <point x="281" y="130" type="curve" smooth="yes"/>
      <point x="281" y="107"/>
      <point x="279" y="87"/>
      <point x="266" y="68" type="curve"/>
      <point x="30" y="68" type="line"/>
      <point x="30" y="0" type="line"/>
      <point x="340" y="0" type="line" smooth="yes"/>
      <point x="417" y="0"/>
      <point x="560" y="8"/>
      <point x="560" y="114" type="curve" smooth="yes"/>
      <point x="560" y="232" type="line" smooth="yes"/>
      <point x="560" y="312.698"/>
      <point x="482.869" y="320.89"/>
      <point x="420" y="325.157" type="curve"/>
      <point x="420" y="337.203" type="line"/>
      <point x="481.915" y="341.825"/>
      <point x="555" y="351.225"/>
      <point x="555" y="430" type="curve" smooth="yes"/>
      <point x="555" y="631" type="line" smooth="yes"/>
      <point x="555" y="659.4"/>
      <point x="437.3" y="664.6"/>
      <point x="415" y="664.6" type="curve" smooth="yes"/>
      <point x="40" y="664.6" type="line"/>
      <point x="40" y="597.4" type="line"/>
      <point x="275" y="597.4" type="line"/>
      <point x="275.036" y="494" type="line"/>
      <point x="275.44" y="451.679"/>
      <point x="283.758" y="390.999"/>
      <point x="243.6" y="365.4" type="curve"/>
      <point x="192" y="365.4" type="line"/>
      <point x="192" y="364.6" type="line"/>
      <point x="60" y="364.6" type="line"/>
      <point x="60" y="297.4" type="line"/>
      <point x="220" y="297.4" type="line"/>
    </contour>
  </outline>
</glyph>
<glyph name="four" format="1">
  <advance width="700"/>
  <unicode hex="0034"/>
  <outline>
    <contour>
      <point x="20" y="666" type="line"/>
      <point x="20" y="256" type="line" smooth="yes"/>
      <point x="20" y="227.6"/>
      <point x="137.7" y="222.4"/>
      <point x="160" y="222.4" type="curve" smooth="yes"/>
      <point x="390" y="222.4" type="line"/>
      <point x="390" y="0" type="line"/>
      <point x="670" y="0" type="line"/>
      <point x="670" y="665" type="line"/>
      <point x="390" y="665" type="line"/>
      <point x="390" y="289.6" type="line"/>
      <point x="300" y="289.6" type="line"/>
      <point x="300" y="666" type="line"/>
    </contour>
  </outline>
</glyph>
<glyph name="six" format="1">
  <advance width="680"/>
  <unicode hex="0036"/>
  <outline>
    <contour>
      <point x="640" y="664.6" type="line"/>
      <point x="170" y="664.6" type="line" smooth="yes"/>
      <point x="147.7" y="664.6"/>
      <point x="30" y="659.4"/>
      <point x="30" y="631" type="curve" smooth="yes"/>
      <point x="30" y="33" type="line" smooth="yes"/>
      <point x="30" y="4.6"/>
      <point x="147.7" y="-0.6"/>
      <point x="170" y="-0.6" type="curve" smooth="yes"/>
      <point x="510" y="-0.6" type="line" smooth="yes"/>
      <point x="532.3" y="-0.6"/>
      <point x="650" y="4.6"/>
      <point x="650" y="33" type="curve" smooth="yes"/>
      <point x="650" y="393" type="line" smooth="yes"/>
      <point x="650" y="426"/>
      <point x="505.5" y="426.6"/>
      <point x="479.5" y="426.6" type="curve" smooth="yes"/>
      <point x="446.9" y="426.6"/>
      <point x="326.3" y="426.7"/>
      <point x="310" y="396.928" type="curve"/>
      <point x="310" y="597.4" type="line"/>
      <point x="640" y="597.4" type="line"/>
    </contour>
    <contour>
      <point x="310" y="66.6" type="line"/>
      <point x="310" y="359" type="line"/>
      <point x="370" y="359" type="line"/>
      <point x="370" y="66.6" type="line"/>
    </contour>
  </outline>
</glyph>
<glyph name="nine" format="1">
  <advance width="680"/>
  <unicode hex="0039"/>
  <outline>
    <contour>
      <point x="40" y="0.4" type="line"/>
      <point x="510" y="0.4" type="line" smooth="yes"/>
      <point x="532.3" y="0.4"/>
      <point x="650" y="5.6"/>
      <point x="650" y="34" type="curve" smooth="yes"/>
      <point x="650" y="631" type="line" smooth="yes"/>
      <point x="650" y="659.4"/>
      <point x="532.3" y="664.6"/>
      <point x="510" y="664.6" type="curve" smooth="yes"/>
      <point x="170" y="664.6" type="line" smooth="yes"/>
      <point x="147.7" y="664.6"/>
      <point x="30" y="659.4"/>
      <point x="30" y="631" type="curve" smooth="yes"/>
      <point x="30" y="235" type="line" smooth="yes"/>
      <point x="30" y="202"/>
      <point x="174.5" y="201.4"/>
      <point x="200.5" y="201.4" type="curve" smooth="yes"/>
      <point x="233.1" y="201.4"/>
      <point x="353.7" y="201.3"/>
      <point x="370" y="231.072" type="curve"/>
      <point x="370" y="67.6" type="line"/>
      <point x="40" y="67.6" type="line"/>
    </contour>
    <contour>
      <point x="310" y="269" type="line"/>
      <point x="310" y="597.4" type="line"/>
      <point x="370" y="597.4" type="line"/>
      <point x="370" y="269" type="line"/>
    </contour>
  </outline>
</glyph>
<glyph name="semicolon" format="1">
  <advance width="308"/>
  <unicode hex="003B"/>
  <outline>
    <contour>
      <point x="230" y="454.2" type="line"/>
      <point x="150" y="454.2" type="line" smooth="yes"/>
      <point x="137.3" y="454.2"/>
      <point x="70" y="451.2"/>
      <point x="70" y="435" type="curve" smooth="yes"/>
      <point x="70" y="325.8" type="line"/>
      <point x="150" y="325.8" type="line" smooth="yes"/>
      <point x="162.7" y="325.8"/>
      <point x="230" y="328.8"/>
      <point x="230" y="345" type="curve" smooth="yes"/>
    </contour>
    <contour>
      <point x="74.8" y="74" type="line"/>
      <point x="65" y="-121" type="line"/>
      <point x="215" y="-121" type="line"/>
      <point x="225" y="79" type="line" smooth="yes"/>
      <point x="225.8" y="94"/>
      <point x="161.6" y="97"/>
      <point x="150" y="97" type="curve" smooth="yes"/>
      <point x="75" y="97" type="line"/>
    </contour>
  </outline>
</glyph>
<glyph name="greater" format="1">
  <advance width="637"/>
  <unicode hex="003E"/>
  <outline>
    <contour>
      <point x="30.2" y="489.7" type="line"/>
      <point x="369.718" y="250" type="line"/>
      <point x="30.2" y="10.3" type="line"/>
      <point x="255.8" y="-10.3" type="line"/>
      <point x="586.7" y="223.5" type="line" smooth="yes"/>
      <point x="593.4" y="228.2"/>
      <point x="617" y="241.5"/>
      <point x="617" y="250" type="curve" smooth="yes"/>
      <point x="617" y="258.5"/>
      <point x="593.4" y="271.8"/>
      <point x="586.7" y="276.5" type="curve" smooth="yes"/>
      <point x="255.8" y="510.3" type="line"/>
    </contour>
  </outline>
</glyph>
<glyph name="question" format="1">
  <advance width="520"/>
  <unicode hex="003F"/>
  <outline>
    <contour>
      <point x="30" y="597.4" type="line"/>
      <point x="210" y="597.4" type="line"/>
      <point x="210" y="279.6" type="line"/>
      <point x="180" y="279.6" type="line" smooth="yes"/>
      <point x="152.6" y="279.6"/>
      <point x="54.7" y="275.1"/>
      <point x="41.2" y="250.4" type="curve" smooth="yes"/>
      <point x="39.6" y="247.5"/>
      <point x="39.8" y="241.5"/>
      <point x="39.8" y="238.3" type="curve" smooth="yes"/>
      <point x="40" y="212" type="line"/>
      <point x="320" y="212.4" type="line"/>
      <point x="350" y="212.4" type="line" smooth="yes"/>
      <point x="372.3" y="212.4"/>
      <point x="490" y="217.6"/>
      <point x="490" y="246" type="curve" smooth="yes"/>
      <point x="490" y="631" type="line" smooth="yes"/>
      <point x="490" y="659.4"/>
      <point x="372.3" y="664.6"/>
      <point x="350" y="664.6" type="curve" smooth="yes"/>
      <point x="30" y="664.6" type="line"/>
    </contour>
    <contour>
      <point x="200" y="128.2" type="line"/>
      <point x="120" y="128.2" type="line" smooth="yes"/>
      <point x="107.3" y="128.2"/>
      <point x="40" y="125.2"/>
      <point x="40" y="109" type="curve" smooth="yes"/>
      <point x="40" y="-0.2" type="line"/>
      <point x="120" y="-0.2" type="line" smooth="yes"/>
      <point x="132.7" y="-0.2"/>
      <point x="200" y="2.8"/>
      <point x="200" y="19" type="curve" smooth="yes"/>
    </contour>
  </outline>
</glyph>
<glyph name="B" format="1">
  <advance width="780"/>
  <unicode hex="0042"/>
  <outline>
    <contour>
      <point x="565" y="346" type="line"/>
      <point x="639" y="347"/>
      <point x="726" y="359"/>
      <point x="726" y="440" type="curve" smooth="yes"/>
      <point x="726" y="630" type="line" smooth="yes"/>
      <point x="726" y="659"/>
      <point x="604" y="665"/>
      <point x="581" y="665" type="curve" smooth="yes"/>
      <point x="180" y="665" type="line" smooth="yes"/>
      <point x="157" y="665"/>
      <point x="35" y="659"/>
      <point x="35" y="630" type="curve" smooth="yes"/>
      <point x="35" y="35" type="line" smooth="yes"/>
      <point x="35" y="6"/>
      <point x="157" y="0"/>
      <point x="180" y="0" type="curve" smooth="yes"/>
      <point x="600" y="0" type="line" smooth="yes"/>
      <point x="623" y="0"/>
      <point x="745" y="6"/>
      <point x="745" y="35" type="curve" smooth="yes"/>
      <point x="745" y="240" type="line" smooth="yes"/>
      <point x="745" y="327"/>
      <point x="642" y="335"/>
      <point x="565" y="335" type="curve"/>
    </contour>
    <contour>
      <point x="325" y="375" type="line"/>
      <point x="325" y="595" type="line"/>
      <point x="436" y="595" type="line"/>
      <point x="436" y="460" type="line" smooth="yes"/>
      <point x="436" y="422"/>
      <point x="436" y="400"/>
      <point x="404" y="375" type="curve"/>
    </contour>
    <contour>
      <point x="325" y="70" type="line"/>
      <point x="325" y="305" type="line"/>
      <point x="423" y="305" type="line"/>
      <point x="456" y="281"/>
      <point x="455" y="255"/>
      <point x="455" y="218" type="curve" smooth="yes"/>
      <point x="455" y="70" type="line"/>
    </contour>
  </outline>
</glyph>
<glyph name="D" format="1">
  <advance width="781"/>
  <unicode hex="0044"/>
  <outline>
    <contour>
      <point x="320" y="0.2" type="line"/>
      <point x="526" y="0.2" type="line" smooth="yes"/>
      <point x="604" y="0.2"/>
      <point x="751" y="7.3"/>
      <point x="751" y="115" type="curve" smooth="yes"/>
      <point x="751" y="550" type="line" smooth="yes"/>
      <point x="751" y="657.7"/>
      <point x="604" y="664.8"/>
      <point x="526" y="664.8" type="curve" smooth="yes"/>
      <point x="320" y="665" type="line"/>
      <point x="30" y="665" type="line"/>
      <point x="30" y="0" type="line"/>
    </contour>
    <contour>
      <point x="320" y="69.8" type="line"/>
      <point x="320" y="595.2" type="line"/>
      <point x="447.1" y="595.2" type="line"/>
      <point x="456.9" y="582.3"/>
      <point x="461" y="566"/>
      <point x="461" y="550" type="curve" smooth="yes"/>
      <point x="461" y="115" type="line" smooth="yes"/>
      <point x="461" y="99"/>
      <point x="456.9" y="82.7"/>
      <point x="447.1" y="69.8" type="curve"/>
    </contour>
    <contour>
      <point x="391" y="665" type="move" name="top"/>
    </contour>
  </outline>
</glyph>
<glyph name="E" format="1">
  <advance width="645"/>
  <unicode hex="0045"/>
  <outline>
    <contour>
      <point x="605" y="369.8" type="line"/>
      <point x="320" y="369.8" type="line"/>
      <point x="320" y="595.2" type="line"/>
      <point x="615" y="595.2" type="line"/>
      <point x="615" y="664.8" type="line"/>
      <point x="175" y="664.8" type="line" smooth="yes"/>
      <point x="151.9" y="664.8"/>
      <point x="30" y="659.4"/>
      <point x="30" y="630" type="curve" smooth="yes"/>
      <point x="30" y="35" type="line" smooth="yes"/>
      <point x="30" y="5.6"/>
      <point x="151.9" y="0.2"/>
      <point x="175" y="0.2" type="curve" smooth="yes"/>
      <point x="615" y="0.2" type="line"/>
      <point x="615" y="69.8" type="line"/>
      <point x="320" y="69.8" type="line"/>
      <point x="320" y="300.2" type="line"/>
      <point x="605" y="300.2" type="line"/>
    </contour>
    <contour>
      <point x="323" y="0" type="move" name="bottom"/>
    </contour>
    <contour>
      <point x="343" y="665" type="move" name="top"/>
    </contour>
  </outline>
</glyph>
<glyph name="H" format="1">
  <advance width="780"/>
  <unicode hex="0048"/>
  <outline>
    <contour>
      <point x="460" y="665" type="line"/>
      <point x="460" y="382.8" type="line"/>
      <point x="320" y="382.8" type="line"/>
      <point x="320" y="665" type="line"/>
      <point x="30" y="665" type="line"/>
      <point x="30" y="0" type="line"/>
      <point x="320" y="0" type="line"/>
      <point x="320" y="313.2" type="line"/>
      <point x="460" y="313.2" type="line"/>
      <point x="460" y="0" type="line"/>
      <point x="750" y="0" type="line"/>
      <point x="750" y="665" type="line"/>
    </contour>
    <contour>
      <point x="390" y="0" type="move" name="bottom"/>
    </contour>
    <contour>
      <point x="390" y="665" type="move" name="top"/>
    </contour>
  </outline>
</glyph>
<glyph name="K" format="1">
  <advance width="750"/>
  <unicode hex="004B"/>
  <outline>
    <contour>
      <point x="320" y="0" type="line"/>
      <point x="320" y="279.76" type="line"/>
      <point x="567.8" y="336.7" type="line" smooth="yes"/>
      <point x="590.2" y="341.8"/>
      <point x="654.4" y="351.8"/>
      <point x="667.8" y="369" type="curve" smooth="yes"/>
      <point x="671.3" y="373.4"/>
      <point x="681.3" y="428.8"/>
      <point x="683.4" y="439" type="curve" smooth="yes"/>
      <point x="729.9" y="663.5" type="line"/>
      <point x="440.1" y="666.5" type="line"/>
      <point x="383" y="390.5" type="line"/>
      <point x="320" y="376.045" type="line"/>
      <point x="320" y="665" type="line"/>
      <point x="30" y="665" type="line"/>
      <point x="30" y="0" type="line"/>
    </contour>
    <contour>
      <point x="710" y="0" type="line"/>
      <point x="710" y="255" type="line" smooth="yes"/>
      <point x="710" y="284.4"/>
      <point x="588.1" y="289.8"/>
      <point x="565" y="289.8" type="curve" smooth="yes"/>
      <point x="420" y="289.8" type="line"/>
      <point x="420" y="0" type="line"/>
    </contour>
    <contour>
      <point x="380" y="0" type="move" name="bottom"/>
    </contour>
    <contour>
      <point x="380" y="665" type="move" name="top"/>
    </contour>
  </outline>
</glyph>
<glyph name="L" format="1">
  <advance width="595"/>
  <unicode hex="004C"/>
  <outline>
    <contour>
      <point x="575" y="69.8" type="line"/>
      <point x="320" y="69.8" type="line"/>
      <point x="320" y="665" type="line"/>
      <point x="30" y="665" type="line"/>
      <point x="30" y="35" type="line" smooth="yes"/>
      <point x="30" y="5.6"/>
      <point x="151.9" y="0.2"/>
      <point x="175" y="0.2" type="curve" smooth="yes"/>
      <point x="575" y="0.2" type="line"/>
    </contour>
    <contour>
      <point x="303" y="0" type="move" name="bottom"/>
    </contour>
    <contour>
      <point x="175" y="665" type="move" name="top"/>
    </contour>
  </outline>
</glyph>
<glyph name="M" format="1">
  <advance width="1130"/>
  <unicode hex="004D"/>
  <outline>
    <contour>
      <point x="1100" y="0" type="line"/>
      <point x="1100" y="630" type="line" smooth="yes"/>
      <point x="1100" y="659.4"/>
      <point x="978.2" y="664.8"/>
      <point x="955" y="664.8" type="curve" smooth="yes"/>
      <point x="853" y="664.8" type="line" smooth="yes"/>
      <point x="826.1" y="664.8"/>
      <point x="721" y="659.8"/>
      <point x="709.111" y="634.237" type="curve"/>
      <point x="698.044" y="659.927"/>
      <point x="586.944" y="664.8"/>
      <point x="565" y="664.8" type="curve" smooth="yes"/>
      <point x="175" y="664.8" type="line" smooth="yes"/>
      <point x="151.9" y="664.8"/>
      <point x="30" y="659.4"/>
      <point x="30" y="630" type="curve" smooth="yes"/>
      <point x="30" y="0" type="line"/>
      <point x="320" y="0" type="line"/>
      <point x="320" y="595.2" type="line"/>
      <point x="420" y="595.2" type="line"/>
      <point x="420" y="0" type="line"/>
      <point x="710" y="0" type="line"/>
      <point x="710" y="595" type="line"/>
      <point x="810" y="595" type="line"/>
      <point x="810" y="0" type="line"/>
    </contour>
  </outline>
</glyph>
<glyph name="N" format="1">
  <advance width="773"/>
  <unicode hex="004E"/>
  <outline>
    <contour>
      <point x="320" y="0" type="line"/>
      <point x="320" y="595.2" type="line"/>
      <point x="450.7" y="595.2" type="line"/>
      <point x="456.5" y="579.5"/>
      <point x="453" y="416.8"/>
      <point x="453" y="386.7" type="curve" smooth="yes"/>
      <point x="453" y="0" type="line"/>
      <point x="743" y="0" type="line"/>
      <point x="743" y="580" type="line" smooth="yes"/>
      <point x="743" y="661.4"/>
      <point x="605" y="664.8"/>
      <point x="548" y="664.8" type="curve" smooth="yes"/>
      <point x="175" y="664.8" type="line" smooth="yes"/>
      <point x="151.9" y="664.8"/>
      <point x="30" y="659.4"/>
      <point x="30" y="630" type="curve" smooth="yes"/>
      <point x="30" y="0" type="line"/>
    </contour>
    <contour>
      <point x="387" y="0" type="move" name="bottom"/>
    </contour>
    <contour>
      <point x="387" y="665" type="move" name="top"/>
    </contour>
  </outline>
</glyph>
<glyph name="Q" format="1">
  <advance width="780"/>
  <unicode hex="0051"/>
  <outline>
    <contour>
      <point x="760" y="69.8" type="line"/>
      <point x="620" y="69.8" type="line"/>
      <point x="620" y="80.5841" type="line"/>
      <point x="659.777" y="82.1769"/>
      <point x="750" y="89.7067"/>
      <point x="750" y="115" type="curve" smooth="yes"/>
      <point x="750" y="630" type="line" smooth="yes"/>
      <point x="750" y="659.4"/>
      <point x="628.1" y="664.8"/>
      <point x="605" y="664.8" type="curve" smooth="yes"/>
      <point x="175" y="664.8" type="line" smooth="yes"/>
      <point x="151.9" y="664.8"/>
      <point x="30" y="659.4"/>
      <point x="30" y="630" type="curve" smooth="yes"/>
      <point x="30" y="35" type="line" smooth="yes"/>
      <point x="30" y="5.6"/>
      <point x="151.9" y="0.2"/>
      <point x="175" y="0.2" type="curve" smooth="yes"/>
      <point x="760" y="0.2" type="line"/>
    </contour>
    <contour>
      <point x="320" y="69.8" type="line"/>
      <point x="320" y="595.2" type="line"/>
      <point x="460" y="595.2" type="line"/>
      <point x="460" y="69.8" type="line"/>
    </contour>
  </outline>
</glyph>
<glyph name="S" format="1">
  <advance width="690"/>
  <unicode hex="0053"/>
  <outline>
    <contour>
      <point x="645" y="664.8" type="line"/>
      <point x="175" y="664.8" type="line" smooth="yes"/>
      <point x="151.9" y="664.8"/>
      <point x="30" y="659.4"/>
      <point x="30" y="630" type="curve" smooth="yes"/>
      <point x="30" y="335" type="line" smooth="yes"/>
      <point x="30" y="305.6"/>
      <point x="151.9" y="300.2"/>
      <point x="175" y="300.2" type="curve" smooth="yes"/>
      <point x="370" y="300.2" type="line"/>
      <point x="370" y="69.8" type="line"/>
      <point x="35" y="69.8" type="line"/>
      <point x="35" y="0.2" type="line"/>
      <point x="515" y="0.2" type="line" smooth="yes"/>
      <point x="538.1" y="0.2"/>
      <point x="660" y="5.6"/>
      <point x="660" y="35" type="curve" smooth="yes"/>
      <point x="660" y="335" type="line" smooth="yes"/>
      <point x="660" y="364.4"/>
      <point x="538.1" y="369.8"/>
      <point x="515" y="369.8" type="curve" smooth="yes"/>
      <point x="320" y="369.8" type="line"/>
      <point x="320" y="595.2" type="line"/>
      <point x="645" y="595.2" type="line"/>
    </contour>
    <contour>
      <point x="345" y="0" type="move" name="bottom"/>
    </contour>
    <contour>
      <point x="345" y="665" type="move" name="top"/>
    </contour>
  </outline>
</glyph>
<glyph name="V" format="1">
  <advance width="780"/>
  <unicode hex="0056"/>
  <outline>
    <contour>
      <point x="30" y="665" type="line"/>
      <point x="30" y="35" type="line" smooth="yes"/>
      <point x="30" y="5.6"/>
      <point x="151.8" y="0.2"/>
      <point x="175" y="0.2" type="curve" smooth="yes"/>
      <point x="470" y="0.2" type="line" smooth="yes"/>
      <point x="502.355" y="0.2"/>
      <point x="588.048" y="3.94843"/>
      <point x="611.6" y="27.5" type="curve" smooth="yes"/>
      <point x="630.8" y="47.1"/>
      <point x="646.1" y="71.5"/>
      <point x="662.9" y="93.2" type="curve" smooth="yes"/>
      <point x="691.1" y="129.4"/>
      <point x="721.3" y="164.5"/>
      <point x="747.8" y="202" type="curve"/>
      <point x="749.1" y="203.7"/>
      <point x="750" y="205.8"/>
      <point x="750" y="208" type="curve" smooth="yes"/>
      <point x="750" y="665" type="line"/>
      <point x="460" y="665" type="line"/>
      <point x="460" y="211.2" type="line"/>
      <point x="349.6" y="69.8" type="line"/>
      <point x="320" y="69.8" type="line"/>
      <point x="320" y="665" type="line"/>
    </contour>
  </outline>
</glyph>
<glyph name="backslash" format="1">
  <advance width="460"/>
  <unicode hex="005C"/>
  <outline>
    <contour>
      <point x="139.8" y="666.3" type="line"/>
      <point x="439.8" y="-58.7" type="line"/>
      <point x="320.2" y="-61.3" type="line"/>
      <point x="20.2" y="663.7" type="line"/>
    </contour>
  </outline>
</glyph>
<glyph name="asciicircum" format="1">
  <advance width="504"/>
  <unicode hex="005E"/>
  <outline>
    <contour>
      <point x="169.1" y="480.8" type="line"/>
      <point x="252" y="624.3" type="line"/>
      <point x="335.6" y="479.8" type="line"/>
      <point x="474.4" y="484.2" type="line"/>
      <point x="361.4" y="679.5" type="line" smooth="yes"/>
      <point x="354.2" y="692"/>
      <point x="306" y="694.1"/>
      <point x="292" y="694.1" type="curve" smooth="yes"/>
      <point x="212" y="694.1" type="line" smooth="yes"/>
      <point x="198" y="694.1"/>
      <point x="149.8" y="692"/>
      <point x="142.6" y="679.5" type="curve" smooth="yes"/>
      <point x="30.3" y="485.2" type="line"/>
    </contour>
  </outline>
</glyph>
<glyph name="a" format="1">
  <advance width="706"/>
  <unicode hex="0061"/>
  <outline>
    <contour>
      <point x="49" y="432.4" type="line"/>
      <point x="399" y="432.4" type="line"/>
      <point x="399" y="310.08" type="line"/>
      <point x="395.684" y="339.372"/>
      <point x="282.682" y="343.6"/>
      <point x="259" y="343.6" type="curve" smooth="yes"/>
      <point x="170" y="343.6" type="line" smooth="yes"/>
      <point x="147.7" y="343.6"/>
      <point x="30" y="338.4"/>
      <point x="30" y="310" type="curve" smooth="yes"/>
      <point x="30" y="34" type="line" smooth="yes"/>
      <point x="30" y="5.6"/>
      <point x="147.7" y="0.4"/>
      <point x="170" y="0.4" type="curve" smooth="yes"/>
      <point x="539" y="0.4" type="line" smooth="yes"/>
      <point x="561.3" y="0.4"/>
      <point x="679" y="5.6"/>
      <point x="679" y="34" type="curve" smooth="yes"/>
      <point x="679" y="466" type="line" smooth="yes"/>
      <point x="679" y="494.4"/>
      <point x="561.3" y="499.6"/>
      <point x="539" y="499.6" type="curve" smooth="yes"/>
      <point x="49" y="499.6" type="line"/>
    </contour>
    <contour>
      <point x="399" y="276" type="line"/>
      <point x="399" y="67.6" type="line"/>
      <point x="310" y="67.6" type="line"/>
      <point x="310" y="276" type="line"/>
    </contour>
    <contour>
      <point x="355" y="500" type="move" name="top"/>
    </contour>
  </outline>
</glyph>
<glyph name="d" format="1">
  <advance width="700"/>
  <unicode hex="0064"/>
  <outline>
    <contour>
      <point x="390" y="665" type="line"/>
      <point x="390" y="469.971" type="line"/>
      <point x="375.6" y="495.2"/>
      <point x="278.9" y="499.6"/>
      <point x="251" y="499.6" type="curve" smooth="yes"/>
      <point x="170" y="499.6" type="line" smooth="yes"/>
      <point x="147.7" y="499.6"/>
      <point x="30" y="494.4"/>
      <point x="30" y="466" type="curve" smooth="yes"/>
      <point x="30" y="34" type="line" smooth="yes"/>
      <point x="30" y="5.6"/>
      <point x="147.7" y="0.4"/>
      <point x="170" y="0.4" type="curve" smooth="yes"/>
      <point x="530" y="0.4" type="line" smooth="yes"/>
      <point x="552.3" y="0.4"/>
      <point x="670" y="5.6"/>
      <point x="670" y="34" type="curve" smooth="yes"/>
      <point x="670" y="665" type="line"/>
    </contour>
    <contour>
      <point x="310" y="67.6" type="line"/>
      <point x="310" y="432" type="line"/>
      <point x="390" y="432" type="line"/>
      <point x="390" y="67.6" type="line"/>
    </contour>
  </outline>
</glyph>
<glyph name="e" format="1">
  <advance width="700"/>
  <unicode hex="0065"/>
  <outline>
    <contour>
      <point x="660" y="67.6" type="line"/>
      <point x="310" y="67.6" type="line"/>
      <point x="310" y="172.031" type="line"/>
      <point x="324.7" y="146.8"/>
      <point x="420.9" y="142.4"/>
      <point x="449" y="142.4" type="curve" smooth="yes"/>
      <point x="530" y="142.4" type="line" smooth="yes"/>
      <point x="552.3" y="142.4"/>
      <point x="670" y="147.6"/>
      <point x="670" y="176" type="curve" smooth="yes"/>
      <point x="670" y="466" type="line" smooth="yes"/>
      <point x="670" y="494.4"/>
      <point x="552.3" y="499.6"/>
      <point x="530" y="499.6" type="curve" smooth="yes"/>
      <point x="170" y="499.6" type="line" smooth="yes"/>
      <point x="147.7" y="499.6"/>
      <point x="30" y="494.4"/>
      <point x="30" y="466" type="curve" smooth="yes"/>
      <point x="30" y="34" type="line" smooth="yes"/>
      <point x="30" y="5.6"/>
      <point x="147.7" y="0.4"/>
      <point x="170" y="0.4" type="curve" smooth="yes"/>
      <point x="660" y="0.4" type="line"/>
    </contour>
    <contour>
      <point x="310" y="210" type="line"/>
      <point x="310" y="432.4" type="line"/>
      <point x="390" y="432.4" type="line"/>
      <point x="390" y="210" type="line"/>
    </contour>
    <contour>
      <point x="350" y="0" type="move" name="bottom"/>
    </contour>
    <contour>
      <point x="350" y="500" type="move" name="top"/>
    </contour>
  </outline>
</glyph>
<glyph name="g" format="1">
  <advance width="725"/>
  <unicode hex="0067"/>
  <outline>
    <contour>
      <point x="310" y="-107.4" type="line"/>
      <point x="310" y="-27.4" type="line"/>
      <point x="170" y="-27.4" type="line" smooth="yes"/>
      <point x="147.7" y="-27.4"/>
      <point x="30" y="-32.6"/>
      <point x="30" y="-61" type="curve" smooth="yes"/>
      <point x="30" y="-141" type="line" smooth="yes"/>
      <point x="30" y="-169.4"/>
      <point x="147.7" y="-174.6"/>
      <point x="170" y="-174.6" type="curve" smooth="yes"/>
      <point x="530" y="-174.6" type="line" smooth="yes"/>
      <point x="552.3" y="-174.6"/>
      <point x="670" y="-169.4"/>
      <point x="670" y="-141" type="curve" smooth="yes"/>
      <point x="670" y="57" type="line" smooth="yes"/>
      <point x="670" y="85.4"/>
      <point x="552.3" y="90.6"/>
      <point x="530" y="90.6" type="curve" smooth="yes"/>
      <point x="310" y="90.6" type="line"/>
      <point x="310" y="141.4" type="line"/>
      <point x="530" y="141.4" type="line" smooth="yes"/>
      <point x="552.3" y="141.4"/>
      <point x="670" y="146.6"/>
      <point x="670" y="175" type="curve" smooth="yes"/>
      <point x="670" y="389" type="line" smooth="yes"/>
      <point x="670" y="413.126"/>
      <point x="585.06" y="420.509"/>
      <point x="545.823" y="422.185" type="curve"/>
      <point x="546" y="432.4" type="line"/>
      <point x="725" y="432.4" type="line"/>
      <point x="725" y="499.6" type="line"/>
      <point x="170" y="499.6" type="line" smooth="yes"/>
      <point x="147.7" y="499.6"/>
      <point x="30" y="494.4"/>
      <point x="30" y="466" type="curve" smooth="yes"/>
      <point x="30" y="293" type="line" smooth="yes"/>
      <point x="30" y="264.6"/>
      <point x="147.7" y="259.4"/>
      <point x="170" y="259.4" type="curve" smooth="yes"/>
      <point x="310" y="259.4" type="line"/>
      <point x="310" y="431.4" type="line"/>
      <point x="310.4" y="432.4" type="line"/>
      <point x="390" y="432.4" type="line"/>
      <point x="390" y="208.6" type="line"/>
      <point x="170" y="208.6" type="line" smooth="yes"/>
      <point x="147.7" y="208.6"/>
      <point x="30" y="203.4"/>
      <point x="30" y="175" type="curve" smooth="yes"/>
      <point x="30" y="57" type="line" smooth="yes"/>
      <point x="30" y="28.6"/>
      <point x="147.7" y="23.4"/>
      <point x="170" y="23.4" type="curve" smooth="yes"/>
      <point x="390" y="23.4" type="line"/>
      <point x="390" y="-107.4" type="line"/>
    </contour>
    <contour>
      <point x="378" y="500" type="move" name="top"/>
    </contour>
  </outline>
</glyph>
<glyph name="k" format="1">
  <advance width="700"/>
  <unicode hex="006B"/>
  <outline>
    <contour>
      <point x="30" y="665" type="line"/>
      <point x="30" y="0" type="line"/>
      <point x="310" y="0" type="line"/>
      <point x="310" y="201.571" type="line"/>
      <point x="312.951" y="202.231"/>
      <point x="315.534" y="202.783"/>
      <point x="317.7" y="203.2" type="curve" smooth="yes"/>
      <point x="503.2" y="238" type="line" smooth="yes"/>
      <point x="532.3" y="243.4"/>
      <point x="620.1" y="253.8"/>
      <point x="637.9" y="274.2" type="curve" smooth="yes"/>
      <point x="641.7" y="278.5"/>
      <point x="666.5" y="473.6"/>
      <point x="669.9" y="498.5" type="curve"/>
      <point x="390.1" y="501.5" type="line"/>
      <point x="362.2" y="296.8" type="line"/>
      <point x="310" y="287.02" type="line"/>
      <point x="310" y="665" type="line"/>
    </contour>
    <contour>
      <point x="660" y="0" type="line"/>
      <point x="660" y="170" type="line" smooth="yes"/>
      <point x="660" y="198.4"/>
      <point x="542.3" y="203.6"/>
      <point x="520" y="203.6" type="curve" smooth="yes"/>
      <point x="380" y="203.6" type="line"/>
      <point x="380" y="0" type="line"/>
    </contour>
    <contour>
      <point x="350" y="0" type="move" name="bottom"/>
    </contour>
    <contour>
      <point x="170" y="665" type="move" name="top"/>
    </contour>
  </outline>
</glyph>
<glyph name="l" format="1">
  <advance width="340"/>
  <unicode hex="006C"/>
  <outline>
    <contour>
      <point x="310" y="0" type="line"/>
      <point x="310" y="695" type="line"/>
      <point x="30" y="695" type="line"/>
      <point x="30" y="0" type="line"/>
    </contour>
    <contour>
      <point x="170" y="0" type="move" name="bottom"/>
    </contour>
    <contour>
      <point x="170" y="695" type="move" name="top"/>
    </contour>
  </outline>
</glyph>
<glyph name="t" format="1">
  <advance width="530"/>
  <unicode hex="0074"/>
  <outline>
    <contour>
      <point x="30" y="412.4" type="line"/>
      <point x="223" y="412.4" type="line"/>
      <point x="223" y="402.119" type="line"/>
      <point x="183.523" y="400.385"/>
      <point x="100" y="392.924"/>
      <point x="100" y="369" type="curve" smooth="yes"/>
      <point x="100" y="34" type="line" smooth="yes"/>
      <point x="100" y="5.6"/>
      <point x="217.7" y="0.4"/>
      <point x="240" y="0.4" type="curve" smooth="yes"/>
      <point x="500" y="0.4" type="line"/>
      <point x="500" y="67.6" type="line"/>
      <point x="380" y="67.6" type="line"/>
      <point x="380" y="412.4" type="line"/>
      <point x="500" y="412.4" type="line"/>
      <point x="500" y="479.6" type="line"/>
      <point x="380" y="479.6" type="line"/>
      <point x="380" y="620" type="line"/>
      <point x="120" y="620" type="line"/>
      <point x="120" y="479.6" type="line"/>
      <point x="30" y="479.6" type="line"/>
    </contour>
    <contour>
      <point x="265" y="0" type="move" name="bottom"/>
    </contour>
  </outline>
</glyph>
<glyph name="v" format="1">
  <advance width="700"/>
  <unicode hex="0076"/>
  <outline>
    <contour>
      <point x="31" y="500" type="line"/>
      <point x="30.3" y="344.7"/>
      <point x="30" y="189.3"/>
      <point x="30" y="34" type="curve" smooth="yes"/>
      <point x="30" y="5.6"/>
      <point x="147.9" y="0.4"/>
      <point x="170" y="0.4" type="curve" smooth="yes"/>
      <point x="444" y="0.4" type="line" smooth="yes"/>
      <point x="478.1" y="0.4"/>
      <point x="550.1" y="4.2"/>
      <point x="577.5" y="23.9" type="curve" smooth="yes"/>
      <point x="585.502" y="29.6514"/>
      <point x="670" y="112.745"/>
      <point x="670" y="120" type="curve" smooth="yes"/>
      <point x="670" y="500" type="line"/>
      <point x="390" y="500" type="line"/>
      <point x="390" y="124" type="line"/>
      <point x="333.6" y="67.6" type="line"/>
      <point x="310.1" y="67.6" type="line"/>
      <point x="310.7" y="211.7"/>
      <point x="310.4" y="355.9"/>
      <point x="311" y="500" type="curve"/>
    </contour>
  </outline>
</glyph>
<glyph name="w" format="1">
  <advance width="1020"/>
  <unicode hex="0077"/>
  <outline>
    <contour>
      <point x="370" y="500" type="line"/>
      <point x="370" y="67.6" type="line"/>
      <point x="310" y="67.6" type="line"/>
      <point x="310" y="500" type="line"/>
      <point x="30" y="500" type="line"/>
      <point x="30" y="34" type="line" smooth="yes"/>
      <point x="30" y="5.6"/>
      <point x="147.7" y="0.4"/>
      <point x="170" y="0.4" type="curve" smooth="yes"/>
      <point x="510" y="0.4" type="line" smooth="yes"/>
      <point x="531.164" y="0.4"/>
      <point x="638.231" y="5.08197"/>
      <point x="649.2" y="29.6" type="curve"/>
      <point x="661.6" y="5.1"/>
      <point x="761.4" y="0.4"/>
      <point x="788" y="0.4" type="curve" smooth="yes"/>
      <point x="850" y="0.4" type="line" smooth="yes"/>
      <point x="872.4" y="0.4"/>
      <point x="990" y="5.6"/>
      <point x="990" y="34" type="curve" smooth="yes"/>
      <point x="990" y="500" type="line"/>
      <point x="710" y="500" type="line"/>
      <point x="710" y="68" type="line"/>
      <point x="650" y="68" type="line"/>
      <point x="650" y="500" type="line"/>
    </contour>
    <contour>
      <point x="510" y="500" type="move" name="top"/>
    </contour>
  </outline>
</glyph>
<glyph name="y" format="1">
  <advance width="700"/>
  <unicode hex="0079"/>
  <outline>
    <contour>
      <point x="30" y="500" type="line"/>
      <point x="30" y="34" type="line" smooth="yes"/>
      <point x="30" y="5.6"/>
      <point x="147.6" y="0.4"/>
      <point x="170" y="0.4" type="curve" smooth="yes"/>
      <point x="252" y="0.4" type="line" smooth="yes"/>
      <point x="277.69" y="0.4"/>
      <point x="375.095" y="5.01769"/>
      <point x="390" y="28.2008" type="curve"/>
      <point x="390" y="-97.4" type="line"/>
      <point x="32" y="-97.4" type="line"/>
      <point x="32" y="-164.6" type="line"/>
      <point x="530" y="-164.6" type="line" smooth="yes"/>
      <point x="552.3" y="-164.6"/>
      <point x="670" y="-159.4"/>
      <point x="670" y="-131" type="curve" smooth="yes"/>
      <point x="670" y="500" type="line"/>
      <point x="390" y="500" type="line"/>
      <point x="390" y="68" type="line"/>
      <point x="310" y="68" type="line"/>
      <point x="310" y="500" type="line"/>
    </contour>
    <contour>
      <point x="350" y="500" type="move" name="top"/>
    </contour>
  </outline>
</glyph>
<glyph name="z" format="1">
  <advance width="620"/>
  <unicode hex="007A"/>
  <outline>
    <contour>
      <point x="590" y="67.6" type="line"/>
      <point x="333.4" y="67.6" type="line"/>
      <point x="360" y="108.6"/>
      <point x="590" y="460.6"/>
      <point x="590" y="466" type="curve" smooth="yes"/>
      <point x="590" y="494.5"/>
      <point x="471.7" y="499.6"/>
      <point x="450" y="499.6" type="curve" smooth="yes"/>
      <point x="40" y="499.6" type="line"/>
      <point x="40" y="432.4" type="line"/>
      <point x="286.6" y="432.4" type="line"/>
      <point x="260" y="391.4"/>
      <point x="30" y="39.4"/>
      <point x="30" y="34" type="curve" smooth="yes"/>
      <point x="30" y="5.5"/>
      <point x="148.3" y="0.4"/>
      <point x="170" y="0.4" type="curve" smooth="yes"/>
      <point x="590" y="0.4" type="line"/>
    </contour>
    <contour>
      <point x="310" y="500" type="move" name="top"/>
    </contour>
  </outline>
</glyph>
<glyph name="braceleft" format="1">
  <advance width="398"/>
  <unicode hex="007B"/>
  <outline>
    <contour>
      <point x="378" y="695" type="line"/>
      <point x="248" y="695" type="line" smooth="yes"/>
      <point x="194.3" y="695"/>
      <point x="78" y="690.4"/>
      <point x="78" y="615" type="curve" smooth="yes"/>
      <point x="78.0744" y="476" type="line"/>
      <point x="78.1019" y="474.167"/>
      <point x="78.1071" y="472.333"/>
      <point x="78.1563" y="470.5" type="curve"/>
      <point x="78.8438" y="449.5" type="line" smooth="yes"/>
      <point x="78.9375" y="446"/>
      <point x="79" y="442.5"/>
      <point x="79" y="439" type="curve" smooth="yes"/>
      <point x="79" y="409"/>
      <point x="75.2" y="376.8"/>
      <point x="54" y="353" type="curve" smooth="yes"/>
      <point x="50.2" y="348.8"/>
      <point x="37.9" y="338.2"/>
      <point x="33" y="337" type="curve"/>
      <point x="20" y="337" type="line"/>
      <point x="20" y="277" type="line"/>
      <point x="37" y="277"/>
      <point x="42.1" y="274.1"/>
      <point x="54" y="261" type="curve" smooth="yes"/>
      <point x="82.6358" y="229.7"/>
      <point x="78.517" y="189.172"/>
      <point x="78" y="150" type="curve"/>
      <point x="78" y="1" type="line" smooth="yes"/>
      <point x="78" y="-74.4"/>
      <point x="194.3" y="-79"/>
      <point x="248" y="-79" type="curve" smooth="yes"/>
      <point x="378" y="-79" type="line"/>
      <point x="378" y="-19" type="line"/>
      <point x="322.3" y="-19" type="line"/>
      <point x="315" y="-6"/>
      <point x="318" y="30"/>
      <point x="318" y="45.7" type="curve" smooth="yes"/>
      <point x="318" y="193" type="line" smooth="yes"/>
      <point x="318" y="266.281"/>
      <point x="265.096" y="293.253"/>
      <point x="205" y="303.192" type="curve"/>
      <point x="205" y="310.808" type="line"/>
      <point x="265.096" y="320.747"/>
      <point x="318" y="347.719"/>
      <point x="318" y="421" type="curve" smooth="yes"/>
      <point x="317.6" y="602.2" type="line" smooth="yes"/>
      <point x="317.6" y="612.1"/>
      <point x="317.3" y="626.1"/>
      <point x="322.3" y="635" type="curve"/>
      <point x="378" y="635" type="line"/>
    </contour>
  </outline>
</glyph>
<glyph name="cent" format="1">
  <advance width="580"/>
  <unicode hex="00A2"/>
  <outline>
    <contour>
      <point x="530" y="500.2" type="line"/>
      <point x="376.811" y="500.2" type="line"/>
      <point x="379" y="645" type="line"/>
      <point x="279" y="645" type="line"/>
      <point x="281.273" y="500.2" type="line"/>
      <point x="170" y="500.2" type="line" smooth="yes"/>
      <point x="149.3" y="500.2"/>
      <point x="40" y="495.4"/>
      <point x="40" y="469" type="curve" smooth="yes"/>
      <point x="40" y="31" type="line" smooth="yes"/>
      <point x="40" y="4.6"/>
      <point x="149.3" y="-0.2"/>
      <point x="170" y="-0.2" type="curve" smooth="yes"/>
      <point x="281.273" y="-0.2" type="line"/>
      <point x="279" y="-145" type="line"/>
      <point x="379" y="-145" type="line"/>
      <point x="376.811" y="-0.200014" type="line"/>
      <point x="530" y="-0.2" type="line"/>
      <point x="530" y="62.2" type="line"/>
      <point x="300" y="62.2" type="line"/>
      <point x="300" y="437.8" type="line"/>
      <point x="530" y="437.8" type="line"/>
    </contour>
  </outline>
</glyph>
<glyph name="currency" format="1">
  <advance width="764"/>
  <unicode hex="00A4"/>
  <outline>
    <contour>
      <point x="660.1" y="604.1" type="line"/>
      <point x="573.585" y="496.128" type="line"/>
      <point x="552.107" y="499.867"/>
      <point x="529.622" y="501"/>
      <point x="521" y="501" type="curve" smooth="yes"/>
      <point x="241" y="501" type="line" smooth="yes"/>
      <point x="232.378" y="501"/>
      <point x="209.893" y="499.867"/>
      <point x="188.415" y="496.128" type="curve"/>
      <point x="101.9" y="604.1" type="line"/>
      <point x="28.1" y="539.9" type="line"/>
      <point x="139.8" y="450.1" type="line"/>
      <point x="141" y="451.143" type="line"/>
      <point x="141" y="180.857" type="line"/>
      <point x="139.8" y="181.9" type="line"/>
      <point x="28.1" y="92.1" type="line"/>
      <point x="101.9" y="27.9" type="line"/>
      <point x="188.415" y="135.872" type="line"/>
      <point x="209.893" y="132.133"/>
      <point x="232.378" y="131"/>
      <point x="241" y="131" type="curve" smooth="yes"/>
      <point x="521" y="131" type="line" smooth="yes"/>
      <point x="529.622" y="131"/>
      <point x="552.107" y="132.133"/>
      <point x="573.585" y="135.872" type="curve"/>
      <point x="660.1" y="27.9" type="line"/>
      <point x="733.9" y="92.1" type="line"/>
      <point x="622.2" y="181.9" type="line"/>
      <point x="621" y="180.857" type="line"/>
      <point x="621" y="451.143" type="line"/>
      <point x="622.2" y="450.1" type="line"/>
      <point x="733.9" y="539.9" type="line"/>
    </contour>
    <contour>
      <point x="341" y="191" type="line"/>
      <point x="341" y="441" type="line"/>
      <point x="421" y="441" type="line"/>
      <point x="421" y="191" type="line"/>
    </contour>
  </outline>
</glyph>
<glyph name="section" format="1">
  <advance width="680"/>
  <unicode hex="00A7"/>
  <outline>
    <contour>
      <point x="640" y="663.6" type="line"/>
      <point x="170" y="663.6" type="line" smooth="yes"/>
      <point x="147.6" y="663.6"/>
      <point x="30" y="658.4"/>
      <point x="30" y="630" type="curve" smooth="yes"/>
      <point x="30" y="460" type="line" smooth="yes"/>
      <point x="30" y="436.7"/>
      <point x="139.2" y="422.1"/>
      <point x="158.9" y="418" type="curve" smooth="yes"/>
      <point x="370" y="374.6" type="line"/>
      <point x="370" y="206.4" type="line"/>
      <point x="510" y="206.4" type="line" smooth="yes"/>
      <point x="532.4" y="206.4"/>
      <point x="650" y="211.6"/>
      <point x="650" y="240" type="curve" smooth="yes"/>
      <point x="650" y="390" type="line" smooth="yes"/>
      <point x="650" y="413.3"/>
      <point x="540.8" y="427.9"/>
      <point x="521.1" y="432" type="curve" smooth="yes"/>
      <point x="310" y="475.4" type="line"/>
      <point x="310" y="596.4" type="line"/>
      <point x="640" y="596.4" type="line"/>
    </contour>
    <contour>
      <point x="30" y="-98.6" type="line"/>
      <point x="510" y="-98.6" type="line" smooth="yes"/>
      <point x="532.4" y="-98.6"/>
      <point x="650" y="-93.4"/>
      <point x="650" y="-65" type="curve" smooth="yes"/>
      <point x="650" y="105" type="line" smooth="yes"/>
      <point x="650" y="128.3"/>
      <point x="540.8" y="142.9"/>
      <point x="521.1" y="147" type="curve" smooth="yes"/>
      <point x="310" y="190.4" type="line"/>
      <point x="310" y="358.6" type="line"/>
      <point x="170" y="358.6" type="line" smooth="yes"/>
      <point x="147.6" y="358.6"/>
      <point x="30" y="353.4"/>
      <point x="30" y="325" type="curve" smooth="yes"/>
      <point x="30" y="175" type="line" smooth="yes"/>
      <point x="30" y="151.7"/>
      <point x="139.2" y="137.1"/>
      <point x="158.9" y="133" type="curve" smooth="yes"/>
      <point x="370" y="89.6" type="line"/>
      <point x="370" y="-31.4" type="line"/>
      <point x="30" y="-31.4" type="line"/>
    </contour>
  </outline>
</glyph>
<glyph name="copyright" format="1">
  <advance width="790"/>
  <unicode hex="00A9"/>
  <outline>
    <contour>
      <point x="760" y="581" type="line" smooth="yes"/>
      <point x="760" y="632.1"/>
      <point x="719.2" y="665"/>
      <point x="670" y="665" type="curve" smooth="yes"/>
      <point x="120" y="665" type="line" smooth="yes"/>
      <point x="70.8" y="665"/>
      <point x="30" y="632.1"/>
      <point x="30" y="581" type="curve" smooth="yes"/>
      <point x="30" y="84" type="line" smooth="yes"/>
      <point x="30" y="32.9"/>
      <point x="70.8" y="0"/>
      <point x="120" y="0" type="curve" smooth="yes"/>
      <point x="670" y="0" type="line" smooth="yes"/>
      <point x="719.2" y="0"/>
      <point x="760" y="32.9"/>
      <point x="760" y="84" type="curve" smooth="yes"/>
    </contour>
    <contour>
      <point x="680" y="84.6" type="line" smooth="yes"/>
      <point x="680" y="76.6"/>
      <point x="678.4" y="68"/>
      <point x="669" y="68" type="curve" smooth="yes"/>
      <point x="121" y="68" type="line"/>
      <point x="119" y="68"/>
      <point x="116.9" y="68"/>
      <point x="115.3" y="69.2" type="curve"/>
      <point x="114.5" y="69.2" type="line"/>
      <point x="114.4" y="69.9" type="line"/>
      <point x="110.9" y="74.1"/>
      <point x="110" y="79.3"/>
      <point x="110" y="84.6" type="curve" smooth="yes"/>
      <point x="110" y="580.4" type="line" smooth="yes"/>
      <point x="110" y="588.4"/>
      <point x="111.6" y="597"/>
      <point x="121" y="597" type="curve" smooth="yes"/>
      <point x="669" y="597" type="line"/>
      <point x="671" y="597"/>
      <point x="673.1" y="597"/>
      <point x="674.7" y="595.8" type="curve"/>
      <point x="675.5" y="595.8" type="line"/>
      <point x="675.6" y="595.1" type="line"/>
      <point x="679.1" y="590.9"/>
      <point x="680" y="585.7"/>
      <point x="680" y="580.4" type="curve" smooth="yes"/>
    </contour>
    <contour>
      <point x="570" y="500" type="line"/>
      <point x="320" y="500" type="line" smooth="yes"/>
      <point x="304.1" y="500"/>
      <point x="220" y="496.3"/>
      <point x="220" y="476" type="curve" smooth="yes"/>
      <point x="220" y="189" type="line" smooth="yes"/>
      <point x="220" y="168.7"/>
      <point x="304.1" y="165"/>
      <point x="320" y="165" type="curve" smooth="yes"/>
      <point x="570" y="165" type="line"/>
      <point x="570" y="213" type="line"/>
      <point x="420" y="213" type="line"/>
      <point x="420" y="452" type="line"/>
      <point x="570" y="452" type="line"/>
    </contour>
  </outline>
</glyph>
<glyph name="ordfeminine" format="1">
  <advance width="384"/>
  <unicode hex="00AA"/>
  <outline>
    <contour>
      <point x="39" y="544.2" type="line"/>
      <point x="214" y="544.2" type="line"/>
      <point x="214" y="483" type="line"/>
      <point x="214" y="497.2"/>
      <point x="155.1" y="499.8"/>
      <point x="144" y="499.8" type="curve" smooth="yes"/>
      <point x="100" y="499.8" type="line" smooth="yes"/>
      <point x="88.9" y="499.8"/>
      <point x="30" y="497.2"/>
      <point x="30" y="483" type="curve" smooth="yes"/>
      <point x="30" y="345" type="line" smooth="yes"/>
      <point x="30" y="330.8"/>
      <point x="88.9" y="328.2"/>
      <point x="100" y="328.2" type="curve" smooth="yes"/>
      <point x="284" y="328.2" type="line" smooth="yes"/>
      <point x="295.1" y="328.2"/>
      <point x="354" y="330.8"/>
      <point x="354" y="345" type="curve" smooth="yes"/>
      <point x="354" y="561" type="line" smooth="yes"/>
      <point x="354" y="575.2"/>
      <point x="295.1" y="577.8"/>
      <point x="284" y="577.8" type="curve" smooth="yes"/>
      <point x="39" y="577.8" type="line"/>
    </contour>
    <contour>
      <point x="214" y="466" type="line"/>
      <point x="214" y="361.8" type="line"/>
      <point x="170" y="361.8" type="line"/>
      <point x="170" y="466" type="line"/>
    </contour>
  </outline>
</glyph>
<glyph name="guillemotleft" format="1">
  <advance width="597"/>
  <unicode hex="00AB"/>
  <outline>
    <contour>
      <point x="180.2" y="426.3" type="line"/>
      <point x="164.4" y="405.7"/>
      <point x="26.2" y="224.6"/>
      <point x="26.2" y="222" type="curve" smooth="yes"/>
      <point x="26.2" y="219.4"/>
      <point x="164.4" y="38.3"/>
      <point x="180.2" y="17.7" type="curve"/>
      <point x="337.8" y="24.3" type="line"/>
      <point x="323.5" y="42.3"/>
      <point x="179.1" y="221"/>
      <point x="179.1" y="222" type="curve"/>
      <point x="179.1" y="223"/>
      <point x="323.5" y="401.7"/>
      <point x="337.8" y="419.7" type="curve"/>
    </contour>
    <contour>
      <point x="409.2" y="426.3" type="line"/>
      <point x="393.4" y="405.7"/>
      <point x="255.2" y="224.6"/>
      <point x="255.2" y="222" type="curve" smooth="yes"/>
      <point x="255.2" y="219.4"/>
      <point x="393.4" y="38.3"/>
      <point x="409.2" y="17.7" type="curve"/>
      <point x="566.8" y="24.3" type="line"/>
      <point x="552.5" y="42.3"/>
      <point x="408.1" y="221"/>
      <point x="408.1" y="222" type="curve"/>
      <point x="408.1" y="223"/>
      <point x="552.5" y="401.7"/>
      <point x="566.8" y="419.7" type="curve"/>
    </contour>
  </outline>
</glyph>
<glyph name="registered" format="1">
  <advance width="790"/>
  <unicode hex="00AE"/>
  <outline>
    <contour>
      <point x="760" y="581" type="line" smooth="yes"/>
      <point x="760" y="632.1"/>
      <point x="719.2" y="665"/>
      <point x="670" y="665" type="curve" smooth="yes"/>
      <point x="120" y="665" type="line" smooth="yes"/>
      <point x="70.8" y="665"/>
      <point x="30" y="632.1"/>
      <point x="30" y="581" type="curve" smooth="yes"/>
      <point x="30" y="84" type="line" smooth="yes"/>
      <point x="30" y="32.9"/>
      <point x="70.8" y="0"/>
      <point x="120" y="0" type="curve" smooth="yes"/>
      <point x="670" y="0" type="line" smooth="yes"/>
      <point x="719.2" y="0"/>
      <point x="760" y="32.9"/>
      <point x="760" y="84" type="curve" smooth="yes"/>
    </contour>
    <contour>
      <point x="680" y="84.6" type="line" smooth="yes"/>
      <point x="680" y="76.6"/>
      <point x="678.4" y="68"/>
      <point x="669" y="68" type="curve" smooth="yes"/>
      <point x="121" y="68" type="line"/>
      <point x="119" y="68"/>
      <point x="116.9" y="68"/>
      <point x="115.3" y="69.2" type="curve"/>
      <point x="114.5" y="69.2" type="line"/>
      <point x="114.4" y="69.9" type="line"/>
      <point x="110.9" y="74.1"/>
      <point x="110" y="79.3"/>
      <point x="110" y="84.6" type="curve" smooth="yes"/>
      <point x="110" y="580.4" type="line" smooth="yes"/>
      <point x="110" y="588.4"/>
      <point x="111.6" y="597"/>
      <point x="121" y="597" type="curve" smooth="yes"/>
      <point x="669" y="597" type="line"/>
      <point x="671" y="597"/>
      <point x="673.1" y="597"/>
      <point x="674.7" y="595.8" type="curve"/>
      <point x="675.5" y="595.8" type="line"/>
      <point x="675.6" y="595.1" type="line"/>
      <point x="679.1" y="590.9"/>
      <point x="680" y="585.7"/>
      <point x="680" y="580.4" type="curve" smooth="yes"/>
    </contour>
    <contour>
      <point x="358" y="165" type="line"/>
      <point x="358" y="325.342" type="line"/>
      <point x="366.162" y="305.777"/>
      <point x="425.966" y="178.991"/>
      <point x="433.6" y="162.7" type="curve"/>
      <point x="582.4" y="167.3" type="line"/>
      <point x="509.4" y="323.8" type="line"/>
      <point x="518.5" y="327.2"/>
      <point x="569" y="343.3"/>
      <point x="569" y="352" type="curve" smooth="yes"/>
      <point x="569" y="482" type="line" smooth="yes"/>
      <point x="569" y="497.2"/>
      <point x="505.9" y="500"/>
      <point x="494" y="500" type="curve" smooth="yes"/>
      <point x="283" y="500" type="line" smooth="yes"/>
      <point x="271.1" y="500"/>
      <point x="208" y="497.2"/>
      <point x="208" y="482" type="curve" smooth="yes"/>
      <point x="208" y="165" type="line"/>
    </contour>
    <contour>
      <point x="419" y="357.1" type="line"/>
      <point x="410.446" y="353.973"/>
      <point x="365.207" y="339.429"/>
      <point x="358" y="330.267" type="curve"/>
      <point x="358" y="464" type="line"/>
      <point x="419" y="464" type="line"/>
    </contour>
  </outline>
</glyph>
<glyph name="plusminus" format="1">
  <advance width="520"/>
  <unicode hex="00B1"/>
  <outline>
    <contour>
      <point x="30" y="269.4" type="line"/>
      <point x="180" y="269.4" type="line"/>
      <point x="180" y="108" type="line"/>
      <point x="340" y="108" type="line"/>
      <point x="340" y="269.4" type="line"/>
      <point x="490" y="269.4" type="line"/>
      <point x="490" y="336.6" type="line"/>
      <point x="340" y="336.6" type="line"/>
      <point x="340" y="498" type="line"/>
      <point x="180" y="498" type="line"/>
      <point x="180" y="336.6" type="line"/>
      <point x="30" y="336.6" type="line"/>
    </contour>
    <contour>
      <point x="40" y="0.4" type="line"/>
      <point x="480" y="0.4" type="line"/>
      <point x="480" y="67.6" type="line"/>
      <point x="40" y="67.6" type="line"/>
    </contour>
  </outline>
</glyph>
<glyph name="two.superior" format="1">
  <advance width="335"/>
  <unicode hex="00B2"/>
  <outline>
    <contour>
      <point x="305" y="400.8" type="line"/>
      <point x="170" y="400.8" type="line"/>
      <point x="170" y="464" type="line"/>
      <point x="169.2" y="464.1" type="line"/>
      <point x="254.2" y="499.2" type="line" smooth="yes"/>
      <point x="261.9" y="502.3"/>
      <point x="301" y="514.8"/>
      <point x="301" y="523" type="curve" smooth="yes"/>
      <point x="301" y="683" type="line" smooth="yes"/>
      <point x="301" y="697.2"/>
      <point x="242.2" y="699.8"/>
      <point x="231" y="699.8" type="curve" smooth="yes"/>
      <point x="36" y="699.8" type="line"/>
      <point x="36" y="666.2" type="line"/>
      <point x="161" y="666.2" type="line"/>
      <point x="161" y="528" type="line"/>
      <point x="161.8" y="527.9" type="line"/>
      <point x="76.8" y="492.8" type="line" smooth="yes"/>
      <point x="69.1" y="489.7"/>
      <point x="30" y="477.2"/>
      <point x="30" y="469" type="curve" smooth="yes"/>
      <point x="30" y="384" type="line" smooth="yes"/>
      <point x="30" y="369.8"/>
      <point x="88.8" y="367.2"/>
      <point x="100" y="367.2" type="curve" smooth="yes"/>
      <point x="305" y="367.2" type="line"/>
    </contour>
  </outline>
</glyph>
<glyph name="ordmasculine" format="1">
  <advance width="380"/>
  <unicode hex="00BA"/>
  <outline>
    <contour>
      <point x="280" y="328.2" type="line" smooth="yes"/>
      <point x="291.1" y="328.2"/>
      <point x="350" y="330.8"/>
      <point x="350" y="345" type="curve" smooth="yes"/>
      <point x="350" y="561" type="line" smooth="yes"/>
      <point x="350" y="575.2"/>
      <point x="291.1" y="577.8"/>
      <point x="280" y="577.8" type="curve" smooth="yes"/>
      <point x="100" y="577.8" type="line" smooth="yes"/>
      <point x="88.9" y="577.8"/>
      <point x="30" y="575.2"/>
      <point x="30" y="561" type="curve" smooth="yes"/>
      <point x="30" y="345" type="line" smooth="yes"/>
      <point x="30" y="330.8"/>
      <point x="88.9" y="328.2"/>
      <point x="100" y="328.2" type="curve" smooth="yes"/>
    </contour>
    <contour>
      <point x="170" y="361.8" type="line"/>
      <point x="170" y="544.2" type="line"/>
      <point x="210" y="544.2" type="line"/>
      <point x="210" y="361.8" type="line"/>
    </contour>
  </outline>
</glyph>
<glyph name="Eth" format="1">
  <advance width="801"/>
  <unicode hex="00D0"/>
  <outline>
    <component base="D" xOffset="20"/>
    <contour>
      <point x="-20" y="299" type="line"/>
      <point x="420" y="299" type="line"/>
      <point x="420" y="367" type="line"/>
      <point x="-20" y="367" type="line"/>
    </contour>
  </outline>
</glyph>
<glyph name="multiply" format="1">
  <advance width="458"/>
  <unicode hex="00D7"/>
  <outline>
    <contour>
      <point x="103.9" y="64.9" type="line"/>
      <point x="146.341" y="109.274"/>
      <point x="186.775" y="155.528"/>
      <point x="229.034" y="200.059" type="curve"/>
      <point x="271.294" y="155.528"/>
      <point x="311.659" y="109.274"/>
      <point x="354.1" y="64.9" type="curve"/>
      <point x="427.9" y="129.1" type="line"/>
      <point x="381.828" y="173.176"/>
      <point x="333.751" y="215.035"/>
      <point x="287.694" y="259.033" type="curve"/>
      <point x="333.751" y="303.03"/>
      <point x="381.828" y="344.824"/>
      <point x="427.9" y="388.9" type="curve"/>
      <point x="354.1" y="453.1" type="line"/>
      <point x="311.659" y="408.726"/>
      <point x="271.225" y="362.472"/>
      <point x="228.966" y="317.941" type="curve"/>
      <point x="186.706" y="362.472"/>
      <point x="146.341" y="408.726"/>
      <point x="103.9" y="453.1" type="curve"/>
      <point x="30.1" y="388.9" type="line"/>
      <point x="76.1718" y="344.824"/>
      <point x="124.249" y="302.965"/>
      <point x="170.306" y="258.967" type="curve"/>
      <point x="124.249" y="214.97"/>
      <point x="76.1718" y="173.176"/>
      <point x="30.1" y="129.1" type="curve"/>
    </contour>
  </outline>
</glyph>
<glyph name="Thorn" format="1">
  <advance width="700"/>
  <unicode hex="00DE"/>
  <outline>
    <contour>
      <point x="310" y="0" type="line"/>
      <point x="310" y="147.4" type="line"/>
      <point x="530" y="147.4" type="line" smooth="yes"/>
      <point x="552.3" y="147.4"/>
      <point x="670" y="152.6"/>
      <point x="670" y="181" type="curve" smooth="yes"/>
      <point x="670" y="486" type="line" smooth="yes"/>
      <point x="670" y="514.4"/>
      <point x="552.3" y="519.6"/>
      <point x="530" y="519.6" type="curve" smooth="yes"/>
      <point x="310" y="519.6" type="line"/>
      <point x="310" y="665" type="line"/>
      <point x="30" y="665" type="line"/>
      <point x="30" y="0" type="line"/>
    </contour>
    <contour>
      <point x="310" y="214.6" type="line"/>
      <point x="310" y="452.4" type="line"/>
      <point x="390" y="452.4" type="line"/>
      <point x="390" y="214.6" type="line"/>
    </contour>
  </outline>
</glyph>
<glyph name="ae" format="1">
  <advance width="1069"/>
  <unicode hex="00E6"/>
  <outline>
    <contour>
      <point x="1029" y="67.6" type="line"/>
      <point x="679" y="67.6" type="line"/>
      <point x="679" y="172.071" type="line"/>
      <point x="691.6" y="147.1"/>
      <point x="791.4" y="142.4"/>
      <point x="818" y="142.4" type="curve" smooth="yes"/>
      <point x="899" y="142.4" type="line" smooth="yes"/>
      <point x="921.4" y="142.4"/>
      <point x="1039" y="147.6"/>
      <point x="1039" y="176" type="curve" smooth="yes"/>
      <point x="1039" y="466" type="line" smooth="yes"/>
      <point x="1039" y="494.4"/>
      <point x="921.4" y="499.6"/>
      <point x="899" y="499.6" type="curve" smooth="yes"/>
      <point x="818" y="499.6" type="line" smooth="yes"/>
      <point x="791.9" y="499.6"/>
      <point x="690.8" y="494.8"/>
      <point x="678.615" y="468.765" type="curve"/>
      <point x="671.253" y="494.741"/>
      <point x="560.556" y="499.6"/>
      <point x="539" y="499.6" type="curve" smooth="yes"/>
      <point x="49" y="499.6" type="line"/>
      <point x="49" y="432.4" type="line"/>
      <point x="399" y="432.4" type="line"/>
      <point x="399" y="310.019" type="line"/>
      <point x="395.51" y="339.419"/>
      <point x="282.973" y="343.6"/>
      <point x="259" y="343.6" type="curve" smooth="yes"/>
      <point x="170" y="343.6" type="line" smooth="yes"/>
      <point x="147.6" y="343.6"/>
      <point x="30" y="338.4"/>
      <point x="30" y="310" type="curve" smooth="yes"/>
      <point x="30" y="34" type="line" smooth="yes"/>
      <point x="30" y="5.6"/>
      <point x="147.6" y="0.4"/>
      <point x="170" y="0.4" type="curve" smooth="yes"/>
      <point x="260" y="0.4" type="line" smooth="yes"/>
      <point x="286.1" y="0.4"/>
      <point x="387.2" y="5.2"/>
      <point x="399.385" y="31.2346" type="curve"/>
      <point x="406.747" y="5.25885"/>
      <point x="517.444" y="0.4"/>
      <point x="539" y="0.4" type="curve" smooth="yes"/>
      <point x="1029" y="0.4" type="line"/>
    </contour>
    <contour>
      <point x="679" y="210" type="line"/>
      <point x="679" y="432" type="line"/>
      <point x="759" y="432" type="line"/>
      <point x="759" y="210" type="line"/>
    </contour>
    <contour>
      <point x="399" y="276" type="line"/>
      <point x="399" y="68" type="line"/>
      <point x="310" y="68" type="line"/>
      <point x="310" y="276" type="line"/>
    </contour>
    <contour>
      <point x="-745" y="500" type="move" name="top"/>
    </contour>
  </outline>
</glyph>
<glyph name="eth" format="1">
  <advance width="720"/>
  <unicode hex="00F0"/>
  <outline>
    <contour>
      <point x="170" y="665" type="line"/>
      <point x="430" y="665" type="line" smooth="yes"/>
      <point x="501.039" y="665"/>
      <point x="628.251" y="658.188"/>
      <point x="647.522" y="573.894" type="curve"/>
      <point x="703.8" y="581.8" type="line"/>
      <point x="710.2" y="536.2" type="line"/>
      <point x="650" y="527.743" type="line"/>
      <point x="650" y="33" type="line" smooth="yes"/>
      <point x="650" y="5"/>
      <point x="532" y="-1"/>
      <point x="510" y="-1" type="curve" smooth="yes"/>
      <point x="170" y="-1" type="line" smooth="yes"/>
      <point x="148" y="-1"/>
      <point x="30" y="5"/>
      <point x="30" y="33" type="curve" smooth="yes"/>
      <point x="30" y="393" type="line" smooth="yes"/>
      <point x="30" y="426"/>
      <point x="174" y="427"/>
      <point x="200" y="427" type="curve" smooth="yes"/>
      <point x="232" y="427"/>
      <point x="353.8" y="425.9"/>
      <point x="370" y="397" type="curve"/>
      <point x="370" y="488.41" type="line"/>
      <point x="290.2" y="477.2" type="line"/>
      <point x="283.8" y="522.8" type="line"/>
      <point x="370" y="534.909" type="line"/>
      <point x="370" y="535.605"/>
      <point x="370" y="536.304"/>
      <point x="370" y="537" type="curve"/>
      <point x="370" y="561"/>
      <point x="370" y="576"/>
      <point x="356" y="597" type="curve"/>
      <point x="170" y="597" type="line"/>
    </contour>
    <contour>
      <point x="310" y="67" type="line"/>
      <point x="370" y="67" type="line"/>
      <point x="370" y="359" type="line"/>
      <point x="310" y="359" type="line"/>
    </contour>
  </outline>
</glyph>
<glyph name="divide" format="1">
  <advance width="520"/>
  <unicode hex="00F7"/>
  <outline>
    <contour>
      <point x="330" y="462.8" type="line"/>
      <point x="260" y="462.8" type="line" smooth="yes"/>
      <point x="248.9" y="462.8"/>
      <point x="190" y="460.2"/>
      <point x="190" y="446" type="curve" smooth="yes"/>
      <point x="190" y="349.2" type="line"/>
      <point x="260" y="349.2" type="line" smooth="yes"/>
      <point x="271.1" y="349.2"/>
      <point x="330" y="351.8"/>
      <point x="330" y="366" type="curve" smooth="yes"/>
    </contour>
    <contour>
      <point x="30" y="209.4" type="line"/>
      <point x="490" y="209.4" type="line"/>
      <point x="490" y="276.6" type="line"/>
      <point x="30" y="276.6" type="line"/>
    </contour>
    <contour>
      <point x="330" y="136.8" type="line"/>
      <point x="260" y="136.8" type="line" smooth="yes"/>
      <point x="248.9" y="136.8"/>
      <point x="190" y="134.2"/>
      <point x="190" y="120" type="curve" smooth="yes"/>
      <point x="190" y="23.2" type="line"/>
      <point x="260" y="23.2" type="line" smooth="yes"/>
      <point x="271.1" y="23.2"/>
      <point x="330" y="25.8"/>
      <point x="330" y="40" type="curve" smooth="yes"/>
    </contour>
  </outline>
</glyph>
<glyph name="oslash" format="1">
  <advance width="700"/>
  <unicode hex="00F8"/>
  <outline>
    <component base="o"/>
    <contour>
      <point x="441.8" y="569.2" type="line"/>
      <point x="200.8" y="-50.8" type="line"/>
      <point x="257.2" y="-69.2" type="line"/>
      <point x="498.2" y="550.8" type="line"/>
    </contour>
    <contour>
      <point x="350" y="500" type="move" name="top"/>
    </contour>
  </outline>
</glyph>
<glyph name="thorn" format="1">
  <advance width="700"/>
  <unicode hex="00FE"/>
  <outline>
    <contour>
      <point x="310" y="-165" type="line"/>
      <point x="310" y="30.0708" type="line"/>
      <point x="310.2" y="29.6" type="line"/>
      <point x="322.6" y="5.1"/>
      <point x="422.4" y="0.4"/>
      <point x="449" y="0.4" type="curve" smooth="yes"/>
      <point x="530" y="0.4" type="line" smooth="yes"/>
      <point x="552.4" y="0.4"/>
      <point x="670" y="5.6"/>
      <point x="670" y="34" type="curve" smooth="yes"/>
      <point x="670" y="466" type="line" smooth="yes"/>
      <point x="670" y="494.4"/>
      <point x="552.4" y="499.6"/>
      <point x="530" y="499.6" type="curve" smooth="yes"/>
      <point x="449" y="499.6" type="line" smooth="yes"/>
      <point x="422.9" y="499.6"/>
      <point x="321.8" y="494.8"/>
      <point x="310" y="469.882" type="curve"/>
      <point x="310" y="665" type="line"/>
      <point x="30" y="665" type="line"/>
      <point x="30" y="-165" type="line"/>
    </contour>
    <contour>
      <point x="310" y="68" type="line"/>
      <point x="310" y="432" type="line"/>
      <point x="390" y="432" type="line"/>
      <point x="390" y="68" type="line"/>
    </contour>
  </outline>
</glyph>
<glyph name="Hbar" format="1">
  <advance width="820"/>
  <unicode hex="0126"/>
  <outline>
    <component base="H" xOffset="20"/>
    <contour>
      <point x="0" y="476" type="line"/>
      <point x="820" y="476" type="line"/>
      <point x="820" y="524" type="line"/>
      <point x="0" y="524" type="line"/>
    </contour>
    <contour>
      <point x="410" y="0" type="move" name="bottom"/>
    </contour>
    <contour>
      <point x="410" y="665" type="move" name="top"/>
    </contour>
  </outline>
</glyph>
<glyph name="OE" format="1">
  <advance width="1426"/>
  <unicode hex="0152"/>
  <outline>
    <component base="E" xOffset="431"/>
    <contour>
      <point x="320" y="70" type="line"/>
      <point x="320" y="595" type="line"/>
      <point x="463" y="595" type="line"/>
      <point x="463.2" y="624.3" type="line" smooth="yes"/>
      <point x="463.2" y="627.6"/>
      <point x="463.3" y="631.5"/>
      <point x="461.8" y="634.5" type="curve" smooth="yes"/>
      <point x="448.9" y="659.9"/>
      <point x="345.6" y="664.8"/>
      <point x="318" y="664.8" type="curve" smooth="yes"/>
      <point x="175" y="664.8" type="line" smooth="yes"/>
      <point x="151.8" y="664.8"/>
      <point x="30" y="659.4"/>
      <point x="30" y="630" type="curve" smooth="yes"/>
      <point x="30" y="35" type="line" smooth="yes"/>
      <point x="30" y="5.6"/>
      <point x="151.8" y="0.2"/>
      <point x="175" y="0.2" type="curve" smooth="yes"/>
      <point x="318" y="0.2" type="line" smooth="yes"/>
      <point x="345" y="0.2"/>
      <point x="449.7" y="5.2"/>
      <point x="461.8" y="30.5" type="curve" smooth="yes"/>
      <point x="463.4" y="34"/>
      <point x="463.2" y="39.2"/>
      <point x="463.2" y="42.9" type="curve" smooth="yes"/>
      <point x="463" y="70" type="line"/>
    </contour>
    <contour>
      <point x="1104" y="0" type="move" name="bottom"/>
    </contour>
    <contour>
      <point x="1124" y="665" type="move" name="top"/>
    </contour>
  </outline>
</glyph>
<glyph name="oe" format="1">
  <advance width="1060"/>
  <unicode hex="0153"/>
  <outline>
    <component base="e" xOffset="360"/>
    <contour>
      <point x="391" y="433" type="line"/>
      <point x="391.2" y="460.8" type="line" smooth="yes"/>
      <point x="391.2" y="463.9"/>
      <point x="391.3" y="467.5"/>
      <point x="389.8" y="470.4" type="curve" smooth="yes"/>
      <point x="377.3" y="494.9"/>
      <point x="277.7" y="499.6"/>
      <point x="251" y="499.6" type="curve" smooth="yes"/>
      <point x="170" y="499.6" type="line" smooth="yes"/>
      <point x="147.6" y="499.6"/>
      <point x="30" y="494.4"/>
      <point x="30" y="466" type="curve" smooth="yes"/>
      <point x="30" y="34" type="line" smooth="yes"/>
      <point x="30" y="5.6"/>
      <point x="147.6" y="0.4"/>
      <point x="170" y="0.4" type="curve" smooth="yes"/>
      <point x="251" y="0.4" type="line" smooth="yes"/>
      <point x="277.1" y="0.4"/>
      <point x="378.2" y="5.2"/>
      <point x="389.8" y="29.6" type="curve" smooth="yes"/>
      <point x="391.4" y="33"/>
      <point x="391.2" y="38"/>
      <point x="391.2" y="41.7" type="curve" smooth="yes"/>
      <point x="391" y="68" type="line"/>
      <point x="310" y="68" type="line"/>
      <point x="310" y="433" type="line"/>
    </contour>
    <contour>
      <point x="1050" y="0" type="move" name="bottom"/>
    </contour>
    <contour>
      <point x="1050" y="500" type="move" name="top"/>
    </contour>
  </outline>
</glyph>
<glyph name="dotlessj" format="1">
  <advance width="350"/>
  <unicode hex="0237"/>
  <outline>
    <contour>
      <point x="40" y="500" type="line"/>
      <point x="40" y="-97.4" type="line"/>
      <point x="-60" y="-97.4" type="line"/>
      <point x="-60" y="-164.6" type="line"/>
      <point x="180" y="-164.6" type="line" smooth="yes"/>
      <point x="202.3" y="-164.6"/>
      <point x="320" y="-159.4"/>
      <point x="320" y="-131" type="curve" smooth="yes"/>
      <point x="320" y="500" type="line"/>
    </contour>
    <contour>
      <point x="181" y="500" type="move" name="top"/>
    </contour>
  </outline>
</glyph>
<glyph name="breve" format="1">
  <advance width="410"/>
  <unicode hex="02D8"/>
  <outline>
    <contour>
      <point x="28" y="866" type="line"/>
      <point x="28" y="786" type="line" smooth="yes"/>
      <point x="28" y="750"/>
      <point x="62" y="728"/>
      <point x="95" y="728" type="curve" smooth="yes"/>
      <point x="315" y="728" type="line" smooth="yes"/>
      <point x="348" y="728"/>
      <point x="382" y="750"/>
      <point x="382" y="786" type="curve" smooth="yes"/>
      <point x="382" y="866" type="line"/>
      <point x="288" y="866" type="line"/>
      <point x="288" y="804" type="line"/>
      <point x="122" y="804" type="line"/>
      <point x="122" y="866" type="line"/>
    </contour>
    <contour>
      <point x="205" y="665" type="move" name="_top"/>
    </contour>
  </outline>
</glyph>
<glyph name="hungarumlaut" format="1">
  <advance width="487"/>
  <unicode hex="02DD"/>
  <outline>
    <contour>
      <point x="339.4" y="881.1" type="line"/>
      <point x="204.6" y="736.8" type="line"/>
      <point x="309.4" y="731.2" type="line"/>
      <point x="456.6" y="874.9" type="line"/>
    </contour>
    <contour>
      <point x="153.4" y="881.1" type="line"/>
      <point x="29.6" y="736.8" type="line"/>
      <point x="134.4" y="731.2" type="line"/>
      <point x="270.6" y="874.9" type="line"/>
    </contour>
    <contour>
      <point x="173" y="665" type="move" name="_top"/>
    </contour>
  </outline>
</glyph>
<glyph name="mu" format="1">
  <advance width="700"/>
  <unicode hex="03BC"/>
  <outline>
    <contour>
      <point x="390" y="500" type="line"/>
      <point x="390" y="68" type="line"/>
      <point x="310" y="68" type="line"/>
      <point x="310" y="500" type="line"/>
      <point x="30" y="500" type="line"/>
      <point x="30" y="-165" type="line"/>
      <point x="310" y="-165" type="line"/>
      <point x="310" y="30.0708" type="line"/>
      <point x="310.2" y="29.6" type="line"/>
      <point x="322.6" y="5.1"/>
      <point x="422.4" y="0.4"/>
      <point x="449" y="0.4" type="curve" smooth="yes"/>
      <point x="530" y="0.4" type="line" smooth="yes"/>
      <point x="552.4" y="0.4"/>
      <point x="670" y="5.6"/>
      <point x="670" y="34" type="curve" smooth="yes"/>
      <point x="670" y="500" type="line"/>
    </contour>
  </outline>
</glyph>
<glyph name="Chandrabindu.dv" format="1">
  <unicode hex="0901"/>
  <outline>
    <contour>
      <point x="-50" y="913.4" type="line"/>
      <point x="-110" y="913.4" type="line" smooth="yes"/>
      <point x="-119.5" y="913.4"/>
      <point x="-169.4" y="910.9"/>
      <point x="-169.9" y="899.6" type="curve"/>
      <point x="-170" y="894" type="line"/>
      <point x="-170" y="814.6" type="line"/>
      <point x="-110" y="814.6" type="line" smooth="yes"/>
      <point x="-100.5" y="814.6"/>
      <point x="-50.6" y="817.1"/>
      <point x="-50.1" y="828.4" type="curve"/>
      <point x="-50" y="834" type="line"/>
    </contour>
    <contour>
      <point x="-380" y="850" type="line"/>
      <point x="-378" y="822"/>
      <point x="-379.1" y="791"/>
      <point x="-373" y="763" type="curve" smooth="yes"/>
      <point x="-360.1" y="704"/>
      <point x="-292" y="691"/>
      <point x="-240" y="691" type="curve" smooth="yes"/>
      <point x="10" y="691" type="line" smooth="yes"/>
      <point x="62" y="691"/>
      <point x="130.1" y="704"/>
      <point x="143" y="763" type="curve" smooth="yes"/>
      <point x="149.1" y="791"/>
      <point x="148" y="822"/>
      <point x="150" y="850" type="curve"/>
      <point x="-10" y="852" type="line"/>
      <point x="-12" y="827"/>
      <point x="-12" y="771"/>
      <point x="-23" y="751" type="curve"/>
      <point x="-207" y="751" type="line"/>
      <point x="-218" y="771"/>
      <point x="-218" y="827"/>
      <point x="-220" y="852" type="curve"/>
    </contour>
  </outline>
</glyph>
<glyph name="Visarga.dv" format="1">
  <advance width="280"/>
  <unicode hex="0903"/>
  <outline>
    <contour>
      <point x="230" y="499.6" type="line"/>
      <point x="140" y="499.6" type="line" smooth="yes"/>
      <point x="125.7" y="499.6"/>
      <point x="50" y="496.3"/>
      <point x="50" y="478" type="curve" smooth="yes"/>
      <point x="50" y="386.4" type="line"/>
      <point x="140" y="386.4" type="line" smooth="yes"/>
      <point x="154.3" y="386.4"/>
      <point x="230" y="389.7"/>
      <point x="230" y="408" type="curve" smooth="yes"/>
    </contour>
    <contour>
      <point x="230" y="193.6" type="line"/>
      <point x="140" y="193.6" type="line" smooth="yes"/>
      <point x="125.7" y="193.6"/>
      <point x="50" y="190.3"/>
      <point x="50" y="172" type="curve" smooth="yes"/>
      <point x="50" y="80.4" type="line"/>
      <point x="140" y="80.4" type="line" smooth="yes"/>
      <point x="154.3" y="80.4"/>
      <point x="230" y="83.7"/>
      <point x="230" y="102" type="curve" smooth="yes"/>
    </contour>
  </outline>
</glyph>
<glyph name="vowelI.dv" format="1">
  <advance width="740"/>
  <unicode hex="0907"/>
  <outline>
    <contour>
      <point x="0" y="578.8" type="line"/>
      <point x="390" y="578.8" type="line"/>
      <point x="390" y="471.2" type="line"/>
      <point x="180" y="471.2" type="line" smooth="yes"/>
      <point x="159.3" y="471.2"/>
      <point x="50" y="466.4"/>
      <point x="50" y="440" type="curve" smooth="yes"/>
      <point x="50" y="280" type="line" smooth="yes"/>
      <point x="50" y="253.6"/>
      <point x="159.3" y="248.8"/>
      <point x="180" y="248.8" type="curve" smooth="yes"/>
      <point x="430" y="248.8" type="line"/>
      <point x="430" y="121.2" type="line"/>
      <point x="320" y="121.2" type="line"/>
      <point x="320" y="170.2" type="line"/>
      <point x="190" y="170.2" type="line" smooth="yes"/>
      <point x="169.3" y="170.2"/>
      <point x="60" y="165.4"/>
      <point x="60" y="139" type="curve" smooth="yes"/>
      <point x="60" y="-10" type="line"/>
      <point x="320" y="-10" type="line"/>
      <point x="320" y="58.8" type="line"/>
      <point x="560" y="58.8" type="line" smooth="yes"/>
      <point x="580.7" y="58.8"/>
      <point x="690" y="63.6"/>
      <point x="690" y="90" type="curve" smooth="yes"/>
      <point x="690" y="280" type="line" smooth="yes"/>
      <point x="690" y="306.4"/>
      <point x="580.7" y="311.2"/>
      <point x="560" y="311.2" type="curve" smooth="yes"/>
      <point x="310" y="311.2" type="line"/>
      <point x="310" y="408.8" type="line"/>
      <point x="520" y="408.8" type="line" smooth="yes"/>
      <point x="540.7" y="408.8"/>
      <point x="650" y="413.6"/>
      <point x="650" y="440" type="curve" smooth="yes"/>
      <point x="650" y="578.8" type="line"/>
      <point x="740" y="578.8" type="line"/>
      <point x="740" y="641.2" type="line"/>
      <point x="0" y="641.2" type="line"/>
    </contour>
  </outline>
</glyph>
<glyph name="vowelU.dv" format="1">
  <advance width="640"/>
  <unicode hex="0909"/>
  <outline>
    <contour>
      <point x="0" y="578.8" type="line"/>
      <point x="325.797" y="578.8" type="line"/>
      <point x="329.013" y="572.744"/>
      <point x="330" y="565.727"/>
      <point x="330" y="559" type="curve" smooth="yes"/>
      <point x="330" y="402" type="line" smooth="yes"/>
      <point x="330" y="384.589"/>
      <point x="325.044" y="364.907"/>
      <point x="312.486" y="352.2" type="curve"/>
      <point x="81" y="352.2" type="line"/>
      <point x="81" y="289.8" type="line"/>
      <point x="330" y="289.8" type="line"/>
      <point x="330.061" y="228.8" type="line"/>
      <point x="330.188" y="192.837"/>
      <point x="330.5" y="156.886"/>
      <point x="330.5" y="121" type="curve" smooth="yes"/>
      <point x="330.5" y="101.2"/>
      <point x="328" y="77.1"/>
      <point x="313.3" y="62.2" type="curve"/>
      <point x="40" y="62.2" type="line"/>
      <point x="40" y="-0.2" type="line"/>
      <point x="380" y="-0.2" type="line" smooth="yes"/>
      <point x="455.7" y="-0.2"/>
      <point x="590" y="7.7"/>
      <point x="590" y="111" type="curve" smooth="yes"/>
      <point x="590" y="260" type="line" smooth="yes"/>
      <point x="590" y="286.4"/>
      <point x="480.8" y="291.2"/>
      <point x="460" y="291.2" type="curve" smooth="yes"/>
      <point x="455" y="291.2" type="line"/>
      <point x="455" y="296.915" type="line"/>
      <point x="518.007" y="306.085"/>
      <point x="580" y="331.756"/>
      <point x="580" y="402" type="curve" smooth="yes"/>
      <point x="580" y="559" type="line" smooth="yes"/>
      <point x="580" y="566.234"/>
      <point x="578.911" y="572.813"/>
      <point x="576.901" y="578.8" type="curve"/>
      <point x="640" y="578.8" type="line"/>
      <point x="640" y="641.2" type="line"/>
      <point x="0" y="641.2" type="line"/>
    </contour>
  </outline>
</glyph>
<glyph name="vowelLru.dv" format="1">
  <advance width="980"/>
  <unicode hex="090C"/>
  <outline>
    <contour>
      <point x="910" y="-82" type="line"/>
      <point x="769" y="-82" type="line"/>
      <point x="759.764" y="-72.7636"/>
      <point x="759.133" y="-50.9781"/>
      <point x="760" y="-33" type="curve"/>
      <point x="760" y="19.1437" type="line"/>
      <point x="826.71" y="20.12"/>
      <point x="930" y="28.8578"/>
      <point x="930" y="100" type="curve" smooth="yes"/>
      <point x="930" y="410" type="line" smooth="yes"/>
      <point x="930" y="460.453"/>
      <point x="877.708" y="479.506"/>
      <point x="825.883" y="486.685" type="curve"/>
      <point x="833.788" y="488.433"/>
      <point x="839.849" y="490.944"/>
      <point x="840" y="494.5" type="curve"/>
      <point x="840" y="578.8" type="line"/>
      <point x="979.5" y="578.8" type="line"/>
      <point x="979.5" y="641.2" type="line"/>
      <point x="0" y="641.2" type="line"/>
      <point x="0" y="578.8" type="line"/>
      <point x="740" y="578.8" type="line"/>
      <point x="740" y="491" type="line"/>
      <point x="625" y="491" type="line" smooth="yes"/>
      <point x="580.557" y="491"/>
      <point x="527.522" y="479.84"/>
      <point x="495.14" y="446.535" type="curve"/>
      <point x="495.2" y="454.1" type="line" smooth="yes"/>
      <point x="495.2" y="457.1"/>
      <point x="495.3" y="461.4"/>
      <point x="493.9" y="464.1" type="curve" smooth="yes"/>
      <point x="481.7" y="487"/>
      <point x="390.2" y="491.2"/>
      <point x="365" y="491.2" type="curve" smooth="yes"/>
      <point x="230" y="491.2" type="line" smooth="yes"/>
      <point x="175.3" y="491.2"/>
      <point x="50" y="487.7"/>
      <point x="50" y="410" type="curve" smooth="yes"/>
      <point x="50" y="100" type="line" smooth="yes"/>
      <point x="50" y="22.3"/>
      <point x="175.3" y="18.8"/>
      <point x="230" y="18.8" type="curve" smooth="yes"/>
      <point x="440" y="18.8" type="line"/>
      <point x="440" y="81.2" type="line"/>
      <point x="313.7" y="81.2" type="line"/>
      <point x="310.8" y="86.9"/>
      <point x="310" y="93.7"/>
      <point x="310" y="100" type="curve" smooth="yes"/>
      <point x="310" y="410" type="line" smooth="yes"/>
      <point x="310" y="416.3"/>
      <point x="310.8" y="423.1"/>
      <point x="313.7" y="428.8" type="curve"/>
      <point x="481.327" y="428.985" type="line"/>
      <point x="466.962" y="406.807"/>
      <point x="457.5" y="381.472"/>
      <point x="446" y="358" type="curve" smooth="yes"/>
      <point x="383" y="229" type="line"/>
      <point x="535" y="219" type="line"/>
      <point x="601" y="352" type="line" smooth="yes"/>
      <point x="610.3" y="370.8"/>
      <point x="628" y="418"/>
      <point x="645" y="429" type="curve"/>
      <point x="666" y="429" type="line"/>
      <point x="669" y="423"/>
      <point x="670" y="416"/>
      <point x="670" y="410" type="curve" smooth="yes"/>
      <point x="670" y="100" type="line" smooth="yes"/>
      <point x="670" y="94.1688"/>
      <point x="669.055" y="87.3931"/>
      <point x="666.248" y="81.5088" type="curve"/>
      <point x="647.021" y="81.1578"/>
      <point x="580" y="77.2191"/>
      <point x="580" y="60" type="curve" smooth="yes"/>
      <point x="580" y="-54" type="line" smooth="yes"/>
      <point x="580" y="-121"/>
      <point x="671" y="-125"/>
      <point x="720" y="-125" type="curve" smooth="yes"/>
      <point x="910" y="-125" type="line"/>
    </contour>
  </outline>
</glyph>
<glyph name="vowelE.dv" format="1">
  <advance width="740"/>
  <unicode hex="090F"/>
  <outline>
    <contour>
      <point x="0" y="578.8" type="line"/>
      <point x="50" y="578.8" type="line"/>
      <point x="50" y="282" type="line" smooth="yes"/>
      <point x="50" y="222"/>
      <point x="69.1" y="179"/>
      <point x="89" y="124" type="curve" smooth="yes"/>
      <point x="135" y="-3" type="line"/>
      <point x="395" y="3" type="line"/>
      <point x="346" y="136" type="line" smooth="yes"/>
      <point x="334.2" y="168.1"/>
      <point x="320.9" y="200"/>
      <point x="315" y="234" type="curve" smooth="yes"/>
      <point x="306.9" y="281"/>
      <point x="310" y="329"/>
      <point x="310" y="377" type="curve" smooth="yes"/>
      <point x="310" y="578.8" type="line"/>
      <point x="430" y="578.8" type="line"/>
      <point x="430" y="283" type="line"/>
      <point x="320" y="283" type="line"/>
      <point x="319.8" y="257.9" type="line" smooth="yes"/>
      <point x="319.8" y="254.7"/>
      <point x="319.7" y="250.9"/>
      <point x="321.1" y="247.9" type="curve"/>
      <point x="332.3" y="225.2"/>
      <point x="425.5" y="220.8"/>
      <point x="450" y="220.8" type="curve" smooth="yes"/>
      <point x="560" y="220.8" type="line" smooth="yes"/>
      <point x="580.8" y="220.8"/>
      <point x="690" y="225.6"/>
      <point x="690" y="252" type="curve" smooth="yes"/>
      <point x="690" y="578.8" type="line"/>
      <point x="740" y="578.8" type="line"/>
      <point x="740" y="641.2" type="line"/>
      <point x="0" y="641.2" type="line"/>
    </contour>
  </outline>
</glyph>
<glyph name="vowelO.dv" format="1">
  <advance width="1340"/>
  <unicode hex="0913"/>
  <outline>
    <contour>
      <point x="620" y="578.8" type="line"/>
      <point x="670" y="578.8" type="line"/>
      <point x="670" y="305.161" type="line"/>
      <point x="557.165" y="305" type="line"/>
      <point x="540.386" y="324.7"/>
      <point x="453.903" y="328.965"/>
      <point x="431.766" y="329.19" type="curve"/>
      <point x="432" y="334.018" type="line"/>
      <point x="492.517" y="344.064"/>
      <point x="550" y="370.361"/>
      <point x="550" y="438" type="curve" smooth="yes"/>
      <point x="550" y="560" type="line" smooth="yes"/>
      <point x="550" y="636.4"/>
      <point x="429" y="640"/>
      <point x="375" y="640" type="curve" smooth="yes"/>
      <point x="80" y="640" type="line"/>
      <point x="80" y="580" type="line"/>
      <point x="295.7" y="580" type="line"/>
      <point x="299" y="573.9"/>
      <point x="300" y="566.8"/>
      <point x="300" y="560" type="curve" smooth="yes"/>
      <point x="300" y="438" type="line" smooth="yes"/>
      <point x="300" y="420.5"/>
      <point x="295" y="400.7"/>
      <point x="282.3" y="388" type="curve"/>
      <point x="100" y="388" type="line"/>
      <point x="100" y="328" type="line"/>
      <point x="300" y="328" type="line"/>
      <point x="300.066" y="266.8" type="line"/>
      <point x="300.073" y="265.261"/>
      <point x="300.071" y="263.724"/>
      <point x="300.078" y="262.184" type="curve"/>
      <point x="300.422" y="200.316" type="line" smooth="yes"/>
      <point x="300.469" y="190.006"/>
      <point x="300.5" y="179.7"/>
      <point x="300.5" y="169.4" type="curve" smooth="yes"/>
      <point x="300.5" y="149.8"/>
      <point x="297.9" y="126"/>
      <point x="283.3" y="111.2" type="curve"/>
      <point x="60" y="111.2" type="line"/>
      <point x="60" y="48.8" type="line"/>
      <point x="350" y="48.8" type="line" smooth="yes"/>
      <point x="425.7" y="48.8"/>
      <point x="560" y="56.7"/>
      <point x="560" y="160" type="curve" smooth="yes"/>
      <point x="560" y="266.821" type="line"/>
      <point x="574.395" y="250.429"/>
      <point x="637.26" y="244.801"/>
      <point x="670.147" y="243.279" type="curve"/>
      <point x="670" y="0" type="line"/>
      <point x="930" y="0" type="line"/>
      <point x="930" y="578.8" type="line"/>
      <point x="1030" y="578.8" type="line"/>
      <point x="1030" y="0" type="line"/>
      <point x="1290" y="0" type="line"/>
      <point x="1290" y="578.8" type="line"/>
      <point x="1340" y="578.8" type="line"/>
      <point x="1340" y="641.2" type="line"/>
      <point x="1205.87" y="641.2" type="line"/>
      <point x="1190" y="704" type="line" smooth="yes"/>
      <point x="1183.9" y="728"/>
      <point x="1178.1" y="753.1"/>
      <point x="1169" y="777" type="curve" smooth="yes"/>
      <point x="1133.1" y="871.1"/>
      <point x="1071.9" y="878.5"/>
      <point x="986" y="901" type="curve" smooth="yes"/>
      <point x="841" y="939" type="line"/>
      <point x="859" y="781" type="line"/>
      <point x="1014" y="746" type="line" smooth="yes"/>
      <point x="1054.9" y="736.8"/>
      <point x="1105.3" y="735.3"/>
      <point x="1133" y="699" type="curve" smooth="yes"/>
      <point x="1134.4" y="697.2"/>
      <point x="1136.1" y="695.1"/>
      <point x="1137" y="693" type="curve" smooth="yes"/>
      <point x="1142.1" y="681.1"/>
      <point x="1143.7" y="666.9"/>
      <point x="1147" y="654" type="curve" smooth="yes"/>
      <point x="1150.31" y="641.2" type="line"/>
      <point x="620" y="641.2" type="line"/>
    </contour>
  </outline>
</glyph>
<glyph name="vowelAu.dv" format="1">
  <advance width="1340"/>
  <unicode hex="0914"/>
  <outline>
    <contour>
      <point x="620" y="578.8" type="line"/>
      <point x="670" y="578.8" type="line"/>
      <point x="670" y="305.161" type="line"/>
      <point x="557.165" y="305" type="line"/>
      <point x="540.386" y="324.7"/>
      <point x="453.903" y="328.965"/>
      <point x="431.766" y="329.19" type="curve"/>
      <point x="432" y="334.018" type="line"/>
      <point x="492.517" y="344.064"/>
      <point x="550" y="370.361"/>
      <point x="550" y="438" type="curve" smooth="yes"/>
      <point x="550" y="560" type="line" smooth="yes"/>
      <point x="550" y="636.4"/>
      <point x="429" y="640"/>
      <point x="375" y="640" type="curve" smooth="yes"/>
      <point x="80" y="640" type="line"/>
      <point x="80" y="580" type="line"/>
      <point x="295.7" y="580" type="line"/>
      <point x="299" y="573.9"/>
      <point x="300" y="566.8"/>
      <point x="300" y="560" type="curve" smooth="yes"/>
      <point x="300" y="438" type="line" smooth="yes"/>
      <point x="300" y="420.5"/>
      <point x="295" y="400.7"/>
      <point x="282.3" y="388" type="curve"/>
      <point x="100" y="388" type="line"/>
      <point x="100" y="328" type="line"/>
      <point x="300" y="328" type="line"/>
      <point x="300.066" y="266.8" type="line"/>
      <point x="300.073" y="265.261"/>
      <point x="300.071" y="263.724"/>
      <point x="300.078" y="262.184" type="curve"/>
      <point x="300.422" y="200.316" type="line" smooth="yes"/>
      <point x="300.469" y="190.006"/>
      <point x="300.5" y="179.7"/>
      <point x="300.5" y="169.4" type="curve" smooth="yes"/>
      <point x="300.5" y="149.8"/>
      <point x="297.9" y="126"/>
      <point x="283.3" y="111.2" type="curve"/>
      <point x="60" y="111.2" type="line"/>
      <point x="60" y="48.8" type="line"/>
      <point x="350" y="48.8" type="line" smooth="yes"/>
      <point x="425.7" y="48.8"/>
      <point x="560" y="56.7"/>
      <point x="560" y="160" type="curve" smooth="yes"/>
      <point x="560" y="266.821" type="line"/>
      <point x="574.395" y="250.429"/>
      <point x="637.26" y="244.801"/>
      <point x="670.147" y="243.279" type="curve"/>
      <point x="670" y="0" type="line"/>
      <point x="930" y="0" type="line"/>
      <point x="930" y="578.8" type="line"/>
      <point x="1030" y="578.8" type="line"/>
      <point x="1030" y="0" type="line"/>
      <point x="1290" y="0" type="line"/>
      <point x="1290" y="578.8" type="line"/>
      <point x="1340" y="578.8" type="line"/>
      <point x="1340" y="641.2" type="line"/>
      <point x="1224.72" y="641.2" type="line"/>
      <point x="1195" y="761" type="line" smooth="yes"/>
      <point x="1180.1" y="821"/>
      <point x="1169" y="884"/>
      <point x="1120" y="927" type="curve" smooth="yes"/>
      <point x="1104" y="941"/>
      <point x="1084.9" y="951.6"/>
      <point x="1064" y="957" type="curve" smooth="yes"/>
      <point x="842" y="1014" type="line"/>
      <point x="858" y="866" type="line"/>
      <point x="1014" y="831" type="line" smooth="yes"/>
      <point x="1040" y="825.2"/>
      <point x="1068" y="822.1"/>
      <point x="1093" y="812" type="curve" smooth="yes"/>
      <point x="1105" y="807.1"/>
      <point x="1134.8" y="788"/>
      <point x="1138" y="776" type="curve" smooth="yes"/>
      <point x="1167.93" y="662.386" type="line"/>
      <point x="1155.68" y="691.429"/>
      <point x="1136.3" y="736.065"/>
      <point x="1133" y="742" type="curve" smooth="yes"/>
      <point x="1102" y="798"/>
      <point x="1042" y="792.8"/>
      <point x="987" y="799" type="curve" smooth="yes"/>
      <point x="811" y="819" type="line"/>
      <point x="829" y="701" type="line"/>
      <point x="1004" y="686" type="line" smooth="yes"/>
      <point x="1044" y="682.6"/>
      <point x="1094.7" y="686.7"/>
      <point x="1126" y="658" type="curve" smooth="yes"/>
      <point x="1129.77" y="654.532"/>
      <point x="1133.88" y="648.557"/>
      <point x="1138.13" y="641.2" type="curve"/>
      <point x="620" y="641.2" type="line"/>
    </contour>
  </outline>
</glyph>
<glyph name="Gha.dv" format="1">
  <advance width="820"/>
  <unicode hex="0918"/>
  <outline>
    <contour>
      <point x="0" y="578.8" type="line"/>
      <point x="50" y="578.8" type="line"/>
      <point x="50" y="425" type="line" smooth="yes"/>
      <point x="50" y="406"/>
      <point x="57.2" y="392.2"/>
      <point x="72" y="381" type="curve" smooth="yes"/>
      <point x="90.8789" y="366.733"/>
      <point x="146.343" y="361.623"/>
      <point x="189" y="359.87" type="curve"/>
      <point x="189" y="348.781" type="line"/>
      <point x="154.02" y="348.173"/>
      <point x="106.521" y="345.289"/>
      <point x="83" y="333" type="curve" smooth="yes"/>
      <point x="67.9" y="325.1"/>
      <point x="60" y="306"/>
      <point x="60" y="289" type="curve" smooth="yes"/>
      <point x="60" y="161" type="line" smooth="yes"/>
      <point x="60" y="83"/>
      <point x="185" y="80"/>
      <point x="240" y="80" type="curve" smooth="yes"/>
      <point x="381" y="80" type="line" smooth="yes"/>
      <point x="400.829" y="80"/>
      <point x="499.101" y="84.4616"/>
      <point x="510" y="106.848" type="curve"/>
      <point x="510" y="0" type="line"/>
      <point x="770" y="0" type="line"/>
      <point x="770" y="578.8" type="line"/>
      <point x="820" y="578.8" type="line"/>
      <point x="820" y="641.2" type="line"/>
      <point x="0" y="641.2" type="line"/>
    </contour>
    <contour>
      <point x="320" y="220" type="curve" smooth="yes"/>
      <point x="320" y="233"/>
      <point x="320" y="247"/>
      <point x="320" y="260" type="curve" smooth="yes"/>
      <point x="320" y="285.905"/>
      <point x="317.029" y="310.815"/>
      <point x="338.767" y="328.8" type="curve"/>
      <point x="449" y="328.8" type="line"/>
      <point x="449" y="391.2" type="line"/>
      <point x="322.842" y="391.2" type="line"/>
      <point x="303.045" y="415.172"/>
      <point x="310" y="446.08"/>
      <point x="310" y="475" type="curve" smooth="yes"/>
      <point x="310" y="578.8" type="line"/>
      <point x="510" y="578.8" type="line"/>
      <point x="510" y="142" type="line"/>
      <point x="324" y="142" type="line"/>
      <point x="319.876" y="150.936"/>
      <point x="319.531" y="190.109"/>
    </contour>
  </outline>
</glyph>
<glyph name="Ca.dv" format="1">
  <advance width="820"/>
  <unicode hex="091A"/>
  <outline>
    <contour>
      <point x="20" y="408.8" type="line"/>
      <point x="240" y="408.8" type="line"/>
      <point x="240" y="398.988" type="line"/>
      <point x="206.419" y="397.877"/>
      <point x="120" y="391.485"/>
      <point x="120" y="368" type="curve" smooth="yes"/>
      <point x="120" y="118.2" type="line" smooth="yes"/>
      <point x="120" y="91.8"/>
      <point x="229.2" y="87"/>
      <point x="250" y="87" type="curve" smooth="yes"/>
      <point x="381.1" y="87" type="line" smooth="yes"/>
      <point x="406.5" y="87"/>
      <point x="497.5" y="91.2"/>
      <point x="510" y="114.32" type="curve"/>
      <point x="510" y="0" type="line"/>
      <point x="770" y="0" type="line"/>
      <point x="770" y="578.8" type="line"/>
      <point x="820" y="578.8" type="line"/>
      <point x="820" y="641.2" type="line"/>
      <point x="0" y="641.2" type="line"/>
      <point x="0" y="578.8" type="line"/>
      <point x="510" y="578.8" type="line"/>
      <point x="510" y="149.2" type="line"/>
      <point x="380" y="149.2" type="line"/>
      <point x="380" y="408.8" type="line"/>
      <point x="460" y="408.8" type="line"/>
      <point x="460" y="471.2" type="line"/>
      <point x="20" y="471.2" type="line"/>
    </contour>
  </outline>
</glyph>
<glyph name="Ja.dv" format="1">
  <advance width="1020"/>
  <unicode hex="091C"/>
  <outline>
    <contour>
      <point x="310" y="451.2" type="line"/>
      <point x="180" y="451.2" type="line" smooth="yes"/>
      <point x="159.2" y="451.2"/>
      <point x="50" y="446.4"/>
      <point x="50" y="420" type="curve" smooth="yes"/>
      <point x="50" y="90" type="line" smooth="yes"/>
      <point x="50" y="63.6"/>
      <point x="159.2" y="58.8"/>
      <point x="180" y="58.8" type="curve" smooth="yes"/>
      <point x="510" y="58.8" type="line" smooth="yes"/>
      <point x="539.4" y="58.8"/>
      <point x="616.5" y="62.6"/>
      <point x="636.9" y="83.2" type="curve" smooth="yes"/>
      <point x="644.4" y="90.8"/>
      <point x="640" y="162.7"/>
      <point x="640" y="178.3" type="curve" smooth="yes"/>
      <point x="640" y="389" type="line"/>
      <point x="710" y="389" type="line"/>
      <point x="710" y="0" type="line"/>
      <point x="970" y="0" type="line"/>
      <point x="970" y="578.8" type="line"/>
      <point x="1020" y="578.8" type="line"/>
      <point x="1020" y="641.2" type="line"/>
      <point x="0" y="641.2" type="line"/>
      <point x="0" y="578.8" type="line"/>
      <point x="710" y="578.8" type="line"/>
      <point x="710" y="430.4" type="line"/>
      <point x="686.082" y="447.788"/>
      <point x="609.687" y="451.2"/>
      <point x="587" y="451.2" type="curve" smooth="yes"/>
      <point x="510" y="451.2" type="line" smooth="yes"/>
      <point x="489.2" y="451.2"/>
      <point x="380" y="446.4"/>
      <point x="380" y="420" type="curve" smooth="yes"/>
      <point x="380" y="121.2" type="line"/>
      <point x="310" y="121.2" type="line"/>
    </contour>
  </outline>
</glyph>
<glyph name="Ddha.dv" format="1">
  <advance width="770"/>
  <unicode hex="0922"/>
  <outline>
    <contour>
      <point x="0" y="578.8" type="line"/>
      <point x="420" y="578.8" type="line"/>
      <point x="420" y="421" type="line"/>
      <point x="180" y="421" type="line" smooth="yes"/>
      <point x="159" y="421"/>
      <point x="50" y="416"/>
      <point x="50" y="390" type="curve" smooth="yes"/>
      <point x="50" y="81" type="line" smooth="yes"/>
      <point x="50" y="3"/>
      <point x="175" y="0"/>
      <point x="230" y="0" type="curve" smooth="yes"/>
      <point x="590" y="0" type="line" smooth="yes"/>
      <point x="611" y="0"/>
      <point x="720" y="5"/>
      <point x="720" y="31" type="curve" smooth="yes"/>
      <point x="720" y="191" type="line" smooth="yes"/>
      <point x="720" y="217"/>
      <point x="611" y="222"/>
      <point x="590" y="222" type="curve" smooth="yes"/>
      <point x="564" y="222"/>
      <point x="473.8" y="218.1"/>
      <point x="461" y="195" type="curve" smooth="yes"/>
      <point x="458.8" y="191.1"/>
      <point x="460" y="78"/>
      <point x="460" y="62" type="curve"/>
      <point x="314" y="62" type="line"/>
      <point x="306" y="78"/>
      <point x="310" y="156"/>
      <point x="310" y="179" type="curve" smooth="yes"/>
      <point x="310" y="359" type="line"/>
      <point x="550" y="359" type="line" smooth="yes"/>
      <point x="571" y="359"/>
      <point x="680" y="364"/>
      <point x="680" y="390" type="curve" smooth="yes"/>
      <point x="680" y="578.8" type="line"/>
      <point x="770" y="578.8" type="line"/>
      <point x="770" y="641.2" type="line"/>
      <point x="0" y="641.2" type="line"/>
    </contour>
  </outline>
</glyph>
<glyph name="Nna.dv" format="1">
  <advance width="1020"/>
  <unicode hex="0923"/>
  <outline>
    <contour>
      <point x="0" y="578.8" type="line"/>
      <point x="50" y="578.8" type="line"/>
      <point x="50" y="139" type="line" smooth="yes"/>
      <point x="50" y="112.6"/>
      <point x="159.3" y="107.8"/>
      <point x="180" y="107.8" type="curve" smooth="yes"/>
      <point x="510" y="107.8" type="line" smooth="yes"/>
      <point x="530.7" y="107.8"/>
      <point x="640" y="112.6"/>
      <point x="640" y="139" type="curve" smooth="yes"/>
      <point x="640" y="578.8" type="line"/>
      <point x="710" y="578.8" type="line"/>
      <point x="710" y="0" type="line"/>
      <point x="970" y="0" type="line"/>
      <point x="970" y="578.8" type="line"/>
      <point x="1020" y="578.8" type="line"/>
      <point x="1020" y="641.2" type="line"/>
      <point x="0" y="641.2" type="line"/>
    </contour>
    <contour>
      <point x="310" y="170.2" type="line"/>
      <point x="310" y="578.8" type="line"/>
      <point x="380" y="578.8" type="line"/>
      <point x="380" y="170.2" type="line"/>
    </contour>
  </outline>
</glyph>
<glyph name="Da.dv" format="1">
  <advance width="730"/>
  <unicode hex="0926"/>
  <outline>
    <contour>
      <point x="0" y="578.8" type="line"/>
      <point x="420" y="578.8" type="line"/>
      <point x="420" y="442.2" type="line"/>
      <point x="180" y="442.2" type="line" smooth="yes"/>
      <point x="159.2" y="442.2"/>
      <point x="50" y="437.4"/>
      <point x="50" y="411" type="curve" smooth="yes"/>
      <point x="50" y="161" type="line" smooth="yes"/>
      <point x="50" y="83.3"/>
      <point x="175.3" y="79.8"/>
      <point x="230" y="79.8" type="curve" smooth="yes"/>
      <point x="430" y="79.8" type="line"/>
      <point x="430" y="-10" type="line"/>
      <point x="690" y="-10" type="line"/>
      <point x="690" y="210" type="line" smooth="yes"/>
      <point x="690" y="236.4"/>
      <point x="580.7" y="241.2"/>
      <point x="560" y="241.2" type="curve" smooth="yes"/>
      <point x="430" y="241.2" type="line"/>
      <point x="430" y="142.2" type="line"/>
      <point x="313.7" y="142.2" type="line"/>
      <point x="306.1" y="156.8"/>
      <point x="310" y="219.7"/>
      <point x="310" y="239.3" type="curve" smooth="yes"/>
      <point x="310" y="379.8" type="line"/>
      <point x="550" y="379.8" type="line" smooth="yes"/>
      <point x="570.8" y="379.8"/>
      <point x="680" y="384.6"/>
      <point x="680" y="411" type="curve" smooth="yes"/>
      <point x="680" y="578.8" type="line"/>
      <point x="730" y="578.8" type="line"/>
      <point x="730" y="641.2" type="line"/>
      <point x="0" y="641.2" type="line"/>
    </contour>
  </outline>
</glyph>
<glyph name="Na.dv" format="1">
  <advance width="780"/>
  <unicode hex="0928"/>
  <outline>
    <contour>
      <point x="0" y="578.8" type="line"/>
      <point x="470" y="578.8" type="line"/>
      <point x="470" y="385.21" type="line"/>
      <point x="459.091" y="407.916"/>
      <point x="360.641" y="412.2"/>
      <point x="341" y="412.2" type="curve" smooth="yes"/>
      <point x="180" y="412.2" type="line" smooth="yes"/>
      <point x="159.2" y="412.2"/>
      <point x="50" y="407.4"/>
      <point x="50" y="381" type="curve" smooth="yes"/>
      <point x="50" y="171" type="line" smooth="yes"/>
      <point x="50" y="141.5"/>
      <point x="176.8" y="139.8"/>
      <point x="200" y="139.8" type="curve" smooth="yes"/>
      <point x="226.4" y="139.8"/>
      <point x="338.1" y="141.4"/>
      <point x="348.9" y="166.9" type="curve" smooth="yes"/>
      <point x="351.2" y="172.5"/>
      <point x="350" y="207.3"/>
      <point x="350" y="216" type="curve" smooth="yes"/>
      <point x="350" y="350" type="line"/>
      <point x="470" y="350" type="line"/>
      <point x="470" y="0" type="line"/>
      <point x="730" y="0" type="line"/>
      <point x="730" y="578.8" type="line"/>
      <point x="779.9" y="578.8" type="line"/>
      <point x="779.9" y="641.2" type="line"/>
      <point x="0" y="641.2" type="line"/>
    </contour>
  </outline>
</glyph>
<glyph name="Pa.dv" format="1">
  <advance width="730"/>
  <unicode hex="092A"/>
  <outline>
    <contour>
      <point x="0" y="578.8" type="line"/>
      <point x="50" y="578.8" type="line"/>
      <point x="50" y="140" type="line" smooth="yes"/>
      <point x="50" y="113.6"/>
      <point x="159.2" y="108.8"/>
      <point x="180" y="108.8" type="curve" smooth="yes"/>
      <point x="291" y="108.8" type="line" smooth="yes"/>
      <point x="315.5" y="108.8"/>
      <point x="408.7" y="113.2"/>
      <point x="420" y="136.153" type="curve"/>
      <point x="420" y="0" type="line"/>
      <point x="680" y="0" type="line"/>
      <point x="680" y="578.8" type="line"/>
      <point x="730" y="578.8" type="line"/>
      <point x="730" y="641.2" type="line"/>
      <point x="0" y="641.2" type="line"/>
    </contour>
    <contour>
      <point x="310" y="171" type="line"/>
      <point x="310" y="578.8" type="line"/>
      <point x="420" y="578.8" type="line"/>
      <point x="420" y="171" type="line"/>
    </contour>
  </outline>
</glyph>
<glyph name="Ma.dv" format="1">
  <advance width="820"/>
  <unicode hex="092E"/>
  <outline>
    <contour>
      <point x="0" y="578.8" type="line"/>
      <point x="160" y="578.8" type="line"/>
      <point x="160" y="351.567" type="line"/>
      <point x="121.743" y="349.605"/>
      <point x="50" y="342.401"/>
      <point x="50" y="321" type="curve" smooth="yes"/>
      <point x="50" y="121" type="line" smooth="yes"/>
      <point x="50" y="94.6"/>
      <point x="159.2" y="89.8"/>
      <point x="180" y="89.8" type="curve" smooth="yes"/>
      <point x="280" y="89.8" type="line" smooth="yes"/>
      <point x="300.8" y="89.8"/>
      <point x="410" y="94.6"/>
      <point x="410" y="121" type="curve" smooth="yes"/>
      <point x="410" y="289.9" type="line"/>
      <point x="510" y="289.999" type="line"/>
      <point x="510" y="0" type="line"/>
      <point x="770" y="0" type="line"/>
      <point x="770" y="578.8" type="line"/>
      <point x="820" y="578.8" type="line"/>
      <point x="820" y="641.2" type="line"/>
      <point x="0" y="641.2" type="line"/>
    </contour>
    <contour>
      <point x="510" y="325.21" type="line"/>
      <point x="501.973" y="341.919"/>
      <point x="446.554" y="348.653"/>
      <point x="410" y="351.043" type="curve"/>
      <point x="410" y="578.8" type="line"/>
      <point x="510" y="578.8" type="line"/>
    </contour>
  </outline>
</glyph>
<glyph name="Ra.dv" format="1">
  <advance width="560"/>
  <unicode hex="0930"/>
  <outline>
    <contour>
      <point x="0" y="578.8" type="line"/>
      <point x="210" y="578.8" type="line"/>
      <point x="210" y="358.2" type="line"/>
      <point x="170" y="358.2" type="line" smooth="yes"/>
      <point x="149.5" y="358.2"/>
      <point x="40" y="353.4"/>
      <point x="40" y="327" type="curve" smooth="yes"/>
      <point x="40" y="322.1"/>
      <point x="234.4" y="29"/>
      <point x="257" y="-5.4" type="curve"/>
      <point x="513" y="5.4" type="line"/>
      <point x="322.1" y="295.8" type="line"/>
      <point x="344.9" y="295.8"/>
      <point x="470" y="297.8"/>
      <point x="470" y="327" type="curve" smooth="yes"/>
      <point x="470" y="578.8" type="line"/>
      <point x="560" y="578.8" type="line"/>
      <point x="560" y="641.2" type="line"/>
      <point x="0" y="641.2" type="line"/>
    </contour>
  </outline>
</glyph>
<glyph name="La.dv" format="1">
  <advance width="980"/>
  <unicode hex="0932"/>
  <outline>
    <contour>
      <point x="0" y="578.8" type="line"/>
      <point x="670" y="578.8" type="line"/>
      <point x="670" y="491" type="line"/>
      <point x="635" y="491" type="line" smooth="yes"/>
      <point x="585.56" y="491"/>
      <point x="525.483" y="477.194"/>
      <point x="495.043" y="434.444" type="curve"/>
      <point x="495.2" y="454.1" type="line" smooth="yes"/>
      <point x="495.2" y="457.1"/>
      <point x="495.3" y="461.4"/>
      <point x="493.9" y="464.1" type="curve" smooth="yes"/>
      <point x="481.7" y="487"/>
      <point x="390.2" y="491.2"/>
      <point x="365" y="491.2" type="curve" smooth="yes"/>
      <point x="230" y="491.2" type="line" smooth="yes"/>
      <point x="175.3" y="491.2"/>
      <point x="50" y="487.7"/>
      <point x="50" y="410" type="curve" smooth="yes"/>
      <point x="50" y="100" type="line" smooth="yes"/>
      <point x="50" y="22.3"/>
      <point x="175.3" y="18.8"/>
      <point x="230" y="18.8" type="curve" smooth="yes"/>
      <point x="440" y="18.8" type="line"/>
      <point x="440" y="81.2" type="line"/>
      <point x="313.7" y="81.2" type="line"/>
      <point x="310.8" y="86.9"/>
      <point x="310" y="93.7"/>
      <point x="310" y="100" type="curve" smooth="yes"/>
      <point x="310" y="410" type="line" smooth="yes"/>
      <point x="310" y="416.3"/>
      <point x="310.8" y="423.1"/>
      <point x="313.7" y="428.8" type="curve"/>
      <point x="491.334" y="428.996" type="line"/>
      <point x="476.965" y="406.815"/>
      <point x="467.502" y="381.476"/>
      <point x="456" y="358" type="curve" smooth="yes"/>
      <point x="393" y="229" type="line"/>
      <point x="545" y="219" type="line"/>
      <point x="611" y="352" type="line" smooth="yes"/>
      <point x="620.3" y="370.8"/>
      <point x="638" y="418"/>
      <point x="655" y="429" type="curve"/>
      <point x="670" y="429" type="line"/>
      <point x="670" y="0" type="line"/>
      <point x="930" y="0" type="line"/>
      <point x="930" y="578.8" type="line"/>
      <point x="979.5" y="578.8" type="line"/>
      <point x="979.5" y="641.2" type="line"/>
      <point x="0" y="641.2" type="line"/>
    </contour>
  </outline>
</glyph>
<glyph name="Va.dv" format="1">
  <advance width="730"/>
  <unicode hex="0935"/>
  <outline>
    <contour>
      <point x="400" y="429" type="line"/>
      <point x="400.2" y="454.1" type="line" smooth="yes"/>
      <point x="400.2" y="457.3"/>
      <point x="400.3" y="461.1"/>
      <point x="398.9" y="464.1" type="curve"/>
      <point x="387.7" y="486.8"/>
      <point x="294.5" y="491.2"/>
      <point x="270" y="491.2" type="curve" smooth="yes"/>
      <point x="180" y="491.2" type="line" smooth="yes"/>
      <point x="159.2" y="491.2"/>
      <point x="50" y="486.4"/>
      <point x="50" y="460" type="curve" smooth="yes"/>
      <point x="50" y="101" type="line" smooth="yes"/>
      <point x="50" y="74.6"/>
      <point x="159.2" y="69.8"/>
      <point x="180" y="69.8" type="curve" smooth="yes"/>
      <point x="291" y="69.8" type="line" smooth="yes"/>
      <point x="315.5" y="69.8"/>
      <point x="408.7" y="74.2"/>
      <point x="420" y="97.1533" type="curve"/>
      <point x="420" y="0" type="line"/>
      <point x="680" y="0" type="line"/>
      <point x="680" y="578.8" type="line"/>
      <point x="730" y="578.8" type="line"/>
      <point x="730" y="641.2" type="line"/>
      <point x="0" y="641.2" type="line"/>
      <point x="0" y="578.8" type="line"/>
      <point x="420" y="578.8" type="line"/>
      <point x="420" y="132" type="line"/>
      <point x="310" y="132" type="line"/>
      <point x="310" y="429" type="line"/>
    </contour>
  </outline>
</glyph>
<glyph name="Sha.dv" format="1">
  <advance width="1020"/>
  <unicode hex="0936"/>
  <outline>
    <contour>
      <point x="970" y="0" type="line"/>
      <point x="970" y="578.8" type="line"/>
      <point x="1020" y="578.8" type="line"/>
      <point x="1020" y="641.2" type="line"/>
      <point x="840" y="641.2" type="line" smooth="yes"/>
      <point x="819.3" y="641.2"/>
      <point x="710" y="636.4"/>
      <point x="710" y="610" type="curve" smooth="yes"/>
      <point x="710" y="0" type="line"/>
    </contour>
    <contour>
      <point x="445.9" y="4.1" type="line"/>
      <point x="308" y="258.8" type="line"/>
      <point x="324.825" y="258.8"/>
      <point x="341.65" y="258.756"/>
      <point x="358.475" y="258.691" type="curve" smooth="yes"/>
      <point x="459.425" y="258.209" type="line" smooth="yes"/>
      <point x="476.25" y="258.144"/>
      <point x="493.075" y="258.1"/>
      <point x="509.9" y="258.1" type="curve" smooth="yes"/>
      <point x="530.3" y="258.1"/>
      <point x="650" y="261.6"/>
      <point x="650" y="290" type="curve" smooth="yes"/>
      <point x="650" y="610" type="line" smooth="yes"/>
      <point x="650" y="636.4"/>
      <point x="540.7" y="641.2"/>
      <point x="520" y="641.2" type="curve" smooth="yes"/>
      <point x="200" y="641.2" type="line" smooth="yes"/>
      <point x="179.3" y="641.2"/>
      <point x="70" y="636.4"/>
      <point x="70" y="610" type="curve" smooth="yes"/>
      <point x="70" y="400" type="line" smooth="yes"/>
      <point x="70" y="373.6"/>
      <point x="179.3" y="368.8"/>
      <point x="200" y="368.8" type="curve" smooth="yes"/>
      <point x="330" y="368.8" type="line"/>
      <point x="330" y="578.8" type="line"/>
      <point x="390" y="578.8" type="line"/>
      <point x="390" y="321.2" type="line"/>
      <point x="160" y="321.2" type="line" smooth="yes"/>
      <point x="139.3" y="321.2"/>
      <point x="30" y="316.4"/>
      <point x="30" y="290" type="curve" smooth="yes"/>
      <point x="30" y="285.1"/>
      <point x="171.3" y="26.9"/>
      <point x="188.1" y="-4.1" type="curve"/>
    </contour>
  </outline>
</glyph>
<glyph name="Sa.dv" format="1">
  <advance width="900"/>
  <unicode hex="0938"/>
  <outline>
    <contour>
      <point x="0" y="578.8" type="line"/>
      <point x="210" y="578.8" type="line"/>
      <point x="210" y="358.2" type="line"/>
      <point x="170" y="358.2" type="line" smooth="yes"/>
      <point x="149.5" y="358.2"/>
      <point x="40" y="353.4"/>
      <point x="40" y="327" type="curve" smooth="yes"/>
      <point x="40" y="322.1"/>
      <point x="234.4" y="29"/>
      <point x="257" y="-5.4" type="curve"/>
      <point x="513" y="5.4" type="line"/>
      <point x="322.1" y="295.8" type="line"/>
      <point x="344.9" y="295.8"/>
      <point x="470" y="297.8"/>
      <point x="470" y="327" type="curve" smooth="yes"/>
      <point x="470" y="578.8" type="line"/>
      <point x="590" y="578.8" type="line"/>
      <point x="590" y="313.17" type="line"/>
      <point x="471" y="313" type="line"/>
      <point x="471" y="282" type="line" smooth="yes"/>
      <point x="471" y="258.769"/>
      <point x="555.577" y="252.269"/>
      <point x="590" y="251.042" type="curve"/>
      <point x="590" y="0" type="line"/>
      <point x="850" y="0" type="line"/>
      <point x="850" y="578.8" type="line"/>
      <point x="900" y="578.8" type="line"/>
      <point x="900" y="641.2" type="line"/>
      <point x="0" y="641.2" type="line"/>
    </contour>
  </outline>
</glyph>
<glyph name="matraRu.dv" format="1">
  <unicode hex="0943"/>
  <outline>
    <contour>
      <point x="146" y="-245.6" type="line"/>
      <point x="21" y="-245.6" type="line"/>
      <point x="6.1" y="-233.6"/>
      <point x="0" y="-210.4"/>
      <point x="0" y="-192" type="curve" smooth="yes"/>
      <point x="0" y="-126" type="line" smooth="yes"/>
      <point x="0" y="-107.6"/>
      <point x="6.1" y="-84.4"/>
      <point x="21" y="-72.4" type="curve"/>
      <point x="130" y="-72.4" type="line"/>
      <point x="130" y="-19.6" type="line"/>
      <point x="-30" y="-19.6" type="line" smooth="yes"/>
      <point x="-102.4" y="-19.6"/>
      <point x="-220" y="-28.9"/>
      <point x="-220" y="-126" type="curve" smooth="yes"/>
      <point x="-220" y="-192" type="line" smooth="yes"/>
      <point x="-220" y="-289.1"/>
      <point x="-102.4" y="-298.4"/>
      <point x="-30" y="-298.4" type="curve" smooth="yes"/>
      <point x="146" y="-298.4" type="line"/>
    </contour>
  </outline>
</glyph>
<glyph name="matraRuu.dv" format="1">
  <unicode hex="0944"/>
  <outline>
    <contour>
      <point x="0" y="-117" type="curve"/>
      <point x="-0.2" y="-94"/>
      <point x="1.4" y="-65.9"/>
      <point x="21" y="-50.4" type="curve"/>
      <point x="130" y="-50.4" type="line"/>
      <point x="130" y="2.4" type="line"/>
      <point x="-30" y="2.4" type="line" smooth="yes"/>
      <point x="-102.4" y="2.4"/>
      <point x="-220" y="-6.9"/>
      <point x="-220" y="-104" type="curve" smooth="yes"/>
      <point x="-219.976" y="-117" type="line"/>
      <point x="-219.265" y="-196.977"/>
      <point x="-142.429" y="-204.883"/>
      <point x="-80" y="-208.069" type="curve"/>
      <point x="-80" y="-211.249" type="line"/>
      <point x="-138.799" y="-216.135"/>
      <point x="-200" y="-229.477"/>
      <point x="-200" y="-302" type="curve" smooth="yes"/>
      <point x="-200" y="-316" type="line" smooth="yes"/>
      <point x="-200" y="-413.1"/>
      <point x="-82.4" y="-422.4"/>
      <point x="-10" y="-422.4" type="curve" smooth="yes"/>
      <point x="166" y="-422.4" type="line"/>
      <point x="166" y="-369.6" type="line"/>
      <point x="41" y="-369.6" type="line"/>
      <point x="24.9918" y="-356.775"/>
      <point x="20.2026" y="-333.784"/>
      <point x="20" y="-314" type="curve" smooth="yes"/>
      <point x="19.9004" y="-280.717"/>
      <point x="24.3761" y="-254.189"/>
      <point x="54.6871" y="-235.4" type="curve"/>
      <point x="150" y="-235.4" type="line"/>
      <point x="150" y="-182.6" type="line"/>
      <point x="34.7024" y="-182.6" type="line"/>
      <point x="12.3505" y="-168.515"/>
      <point x="-0.830179" y="-143.539"/>
    </contour>
  </outline>
</glyph>
<glyph name="Chandra.dv" format="1">
  <unicode hex="0945"/>
  <outline>
    <contour>
      <point x="-380" y="850" type="line"/>
      <point x="-378" y="822"/>
      <point x="-379.1" y="791"/>
      <point x="-373" y="763" type="curve" smooth="yes"/>
      <point x="-360.1" y="704"/>
      <point x="-292" y="691"/>
      <point x="-240" y="691" type="curve" smooth="yes"/>
      <point x="10" y="691" type="line" smooth="yes"/>
      <point x="62" y="691"/>
      <point x="130.1" y="704"/>
      <point x="143" y="763" type="curve" smooth="yes"/>
      <point x="149.1" y="791"/>
      <point x="148" y="822"/>
      <point x="150" y="850" type="curve"/>
      <point x="-10" y="852" type="line"/>
      <point x="-12" y="827"/>
      <point x="-12" y="771"/>
      <point x="-23" y="751" type="curve"/>
      <point x="-207" y="751" type="line"/>
      <point x="-218" y="771"/>
      <point x="-218" y="827"/>
      <point x="-220" y="852" type="curve"/>
    </contour>
  </outline>
</glyph>
<glyph name="matraE.dv" format="1">
  <unicode hex="0947"/>
  <outline>
    <contour>
      <point x="-319" y="776" type="line"/>
      <point x="-164" y="741" type="line" smooth="yes"/>
      <point x="-123.1" y="731.8"/>
      <point x="-72.7" y="730.3"/>
      <point x="-45" y="694" type="curve" smooth="yes"/>
      <point x="-43.6" y="692.2"/>
      <point x="-41.9" y="691.1"/>
      <point x="-41" y="689" type="curve" smooth="yes"/>
      <point x="-36.9" y="679.1"/>
      <point x="-35.6" y="667.1"/>
      <point x="-33" y="657" type="curve" smooth="yes"/>
      <point x="-13" y="579" type="line"/>
      <point x="31" y="623" type="line"/>
      <point x="19" y="673"/>
      <point x="9.1" y="727"/>
      <point x="-10" y="775" type="curve" smooth="yes"/>
      <point x="-47.9" y="870"/>
      <point x="-104" y="872.9"/>
      <point x="-192" y="896" type="curve" smooth="yes"/>
      <point x="-337" y="934" type="line"/>
    </contour>
  </outline>
</glyph>
<glyph name="matraAi.dv" format="1">
  <unicode hex="0948"/>
  <outline>
    <contour>
      <point x="-302" y="866" type="line"/>
      <point x="-146" y="831" type="line" smooth="yes"/>
      <point x="-120" y="825.2"/>
      <point x="-92" y="822.1"/>
      <point x="-67" y="812" type="curve" smooth="yes"/>
      <point x="-55" y="807.1"/>
      <point x="-25.2" y="788"/>
      <point x="-22" y="776" type="curve" smooth="yes"/>
      <point x="7.93055" y="662.386" type="line"/>
      <point x="-4.31661" y="691.429"/>
      <point x="-23.7029" y="736.065"/>
      <point x="-27" y="742" type="curve" smooth="yes"/>
      <point x="-58" y="798"/>
      <point x="-118" y="792.8"/>
      <point x="-173" y="799" type="curve" smooth="yes"/>
      <point x="-349" y="819" type="line"/>
      <point x="-331" y="701" type="line"/>
      <point x="-156" y="686" type="line" smooth="yes"/>
      <point x="-116" y="682.6"/>
      <point x="-65.3" y="686.7"/>
      <point x="-34" y="658" type="curve" smooth="yes"/>
      <point x="-16.3" y="641.7"/>
      <point x="9" y="572"/>
      <point x="20" y="547" type="curve"/>
      <point x="20" y="616.571" type="line"/>
      <point x="27" y="590" type="line"/>
      <point x="67" y="632" type="line"/>
      <point x="35" y="761" type="line" smooth="yes"/>
      <point x="20.1" y="821"/>
      <point x="9" y="884"/>
      <point x="-40" y="927" type="curve" smooth="yes"/>
      <point x="-56" y="941"/>
      <point x="-75.1" y="951.6"/>
      <point x="-96" y="957" type="curve" smooth="yes"/>
      <point x="-318" y="1014" type="line"/>
    </contour>
  </outline>
</glyph>
<glyph name="uni094F" format="1">
  <advance width="360"/>
  <unicode hex="094F"/>
  <outline>
    <contour>
      <point x="0" y="578.8" type="line"/>
      <point x="50" y="578.8" type="line"/>
      <point x="50" y="0" type="line"/>
      <point x="310" y="0" type="line"/>
      <point x="310" y="578.8" type="line"/>
      <point x="360" y="578.8" type="line"/>
      <point x="360" y="641.2" type="line"/>
      <point x="246.986" y="641.2" type="line"/>
      <point x="220" y="742" type="line" smooth="yes"/>
      <point x="200.7" y="813.9"/>
      <point x="185.1" y="904.2"/>
      <point x="110" y="940" type="curve" smooth="yes"/>
      <point x="78.1" y="955.2"/>
      <point x="-8" y="965.3"/>
      <point x="-47" y="971" type="curve" smooth="yes"/>
      <point x="-63" y="973.3"/>
      <point x="-80" y="975"/>
      <point x="-95" y="981" type="curve" smooth="yes"/>
      <point x="-105" y="985"/>
      <point x="-119" y="993"/>
      <point x="-126" y="1002" type="curve"/>
      <point x="-127" y="1004"/>
      <point x="-136" y="1039"/>
      <point x="-137" y="1044" type="curve"/>
      <point x="-185" y="1036" type="line"/>
      <point x="-167" y="964"/>
      <point x="-144.9" y="871.2"/>
      <point x="-63" y="845" type="curve" smooth="yes"/>
      <point x="-44.9" y="839.2"/>
      <point x="-27" y="837.2"/>
      <point x="-9" y="834" type="curve" smooth="yes"/>
      <point x="74" y="819" type="line" smooth="yes"/>
      <point x="89.1" y="816.3"/>
      <point x="105" y="814.9"/>
      <point x="119" y="810" type="curve" smooth="yes"/>
      <point x="128" y="806.9"/>
      <point x="150.9" y="793.9"/>
      <point x="155" y="786" type="curve" smooth="yes"/>
      <point x="162.9" y="770.9"/>
      <point x="164.8" y="747.9"/>
      <point x="169" y="731" type="curve" smooth="yes"/>
      <point x="184.06" y="670.759" type="line"/>
      <point x="165.774" y="724.52"/>
      <point x="136.038" y="780.107"/>
      <point x="74" y="787" type="curve" smooth="yes"/>
      <point x="-67" y="803" type="line" smooth="yes"/>
      <point x="-91" y="805.7"/>
      <point x="-137.1" y="805.9"/>
      <point x="-156" y="821" type="curve" smooth="yes"/>
      <point x="-162.1" y="825.9"/>
      <point x="-167" y="843"/>
      <point x="-170" y="850" type="curve"/>
      <point x="-218" y="830" type="line"/>
      <point x="-194" y="773"/>
      <point x="-163" y="706"/>
      <point x="-93" y="700" type="curve" smooth="yes"/>
      <point x="47" y="688" type="line" smooth="yes"/>
      <point x="72" y="685.9"/>
      <point x="111" y="687"/>
      <point x="132" y="673" type="curve"/>
      <point x="142.207" y="641.2" type="line"/>
      <point x="0" y="641.2" type="line"/>
    </contour>
  </outline>
</glyph>
<glyph name="Om.dv" format="1">
  <advance width="1181"/>
  <unicode hex="0950"/>
  <outline>
    <contour>
      <point x="721" y="910.4" type="line"/>
      <point x="661" y="910.4" type="line" smooth="yes"/>
      <point x="651.5" y="910.4"/>
      <point x="601.6" y="907.9"/>
      <point x="601.1" y="896.6" type="curve"/>
      <point x="601" y="891" type="line"/>
      <point x="601" y="811.6" type="line"/>
      <point x="661" y="811.6" type="line" smooth="yes"/>
      <point x="670.5" y="811.6"/>
      <point x="720.4" y="814.1"/>
      <point x="720.9" y="825.4" type="curve"/>
      <point x="721" y="831" type="line"/>
    </contour>
    <contour>
      <point x="391" y="850" type="line"/>
      <point x="393" y="822"/>
      <point x="391.9" y="791"/>
      <point x="398" y="763" type="curve" smooth="yes"/>
      <point x="410.9" y="704"/>
      <point x="479" y="691"/>
      <point x="531" y="691" type="curve" smooth="yes"/>
      <point x="781" y="691" type="line" smooth="yes"/>
      <point x="833" y="691"/>
      <point x="901.1" y="704"/>
      <point x="914" y="763" type="curve" smooth="yes"/>
      <point x="920.1" y="791"/>
      <point x="919" y="822"/>
      <point x="921" y="850" type="curve"/>
      <point x="761" y="852" type="line"/>
      <point x="759" y="827"/>
      <point x="759" y="771"/>
      <point x="748" y="751" type="curve"/>
      <point x="564" y="751" type="line"/>
      <point x="553" y="771"/>
      <point x="553" y="827"/>
      <point x="551" y="852" type="curve"/>
    </contour>
    <contour>
      <point x="330.061" y="228.8" type="line"/>
      <point x="330.188" y="192.837"/>
      <point x="330.5" y="156.886"/>
      <point x="330.5" y="121" type="curve" smooth="yes"/>
      <point x="330.5" y="101.2"/>
      <point x="328" y="77.1"/>
      <point x="313.3" y="62.2" type="curve"/>
      <point x="40" y="62.2" type="line"/>
      <point x="40" y="-0.2" type="line"/>
      <point x="380" y="-0.2" type="line" smooth="yes"/>
      <point x="455.7" y="-0.2"/>
      <point x="590" y="7.7"/>
      <point x="590" y="111" type="curve" smooth="yes"/>
      <point x="590" y="233" type="line"/>
      <point x="605" y="211"/>
      <point x="695" y="211"/>
      <point x="721" y="211" type="curve" smooth="yes"/>
      <point x="743" y="211"/>
      <point x="860" y="210"/>
      <point x="860" y="238" type="curve" smooth="yes"/>
      <point x="860" y="262"/>
      <point x="859.938" y="286.063"/>
      <point x="859.844" y="310.156" type="curve" smooth="yes"/>
      <point x="859.156" y="454.844" type="line" smooth="yes"/>
      <point x="859.063" y="478.938"/>
      <point x="859" y="503"/>
      <point x="859" y="527" type="curve" smooth="yes"/>
      <point x="859" y="543"/>
      <point x="858" y="566"/>
      <point x="866" y="581" type="curve"/>
      <point x="905" y="581" type="line"/>
      <point x="909" y="574"/>
      <point x="910" y="567"/>
      <point x="910" y="559" type="curve" smooth="yes"/>
      <point x="910" y="90" type="line" smooth="yes"/>
      <point x="910" y="82"/>
      <point x="909" y="74"/>
      <point x="905" y="67" type="curve"/>
      <point x="640" y="68" type="line"/>
      <point x="640" y="13" type="line"/>
      <point x="970" y="13" type="line" smooth="yes"/>
      <point x="1022" y="13"/>
      <point x="1130" y="17"/>
      <point x="1130" y="90" type="curve" smooth="yes"/>
      <point x="1130" y="559" type="line" smooth="yes"/>
      <point x="1130" y="632"/>
      <point x="1022" y="636"/>
      <point x="970" y="636" type="curve" smooth="yes"/>
      <point x="800" y="636" type="line" smooth="yes"/>
      <point x="750" y="636"/>
      <point x="644" y="631"/>
      <point x="640" y="564" type="curve" smooth="yes"/>
      <point x="638" y="530"/>
      <point x="640" y="496"/>
      <point x="640" y="462" type="curve" smooth="yes"/>
      <point x="640" y="266" type="line"/>
      <point x="588" y="265.925" type="line"/>
      <point x="573.097" y="287.135"/>
      <point x="479.137" y="291.2"/>
      <point x="460" y="291.2" type="curve" smooth="yes"/>
      <point x="455" y="291.2" type="line"/>
      <point x="455" y="296.915" type="line"/>
      <point x="518.007" y="306.085"/>
      <point x="580" y="331.756"/>
      <point x="580" y="402" type="curve" smooth="yes"/>
      <point x="580" y="559" type="line" smooth="yes"/>
      <point x="580" y="635.4"/>
      <point x="459" y="639"/>
      <point x="405" y="639" type="curve" smooth="yes"/>
      <point x="65" y="639" type="line"/>
      <point x="65" y="579" type="line"/>
      <point x="325.7" y="579" type="line"/>
      <point x="329" y="572.9"/>
      <point x="330" y="565.8"/>
      <point x="330" y="559" type="curve" smooth="yes"/>
      <point x="330" y="402" type="line" smooth="yes"/>
      <point x="330" y="384.589"/>
      <point x="325.044" y="364.907"/>
      <point x="312.486" y="352.2" type="curve"/>
      <point x="81" y="352.2" type="line"/>
      <point x="81" y="289.8" type="line"/>
      <point x="330" y="289.8" type="line"/>
    </contour>
  </outline>
</glyph>
<glyph name="uni0954" format="1">
  <unicode hex="0954"/>
  <outline>
    <contour>
      <point x="-25.9" y="932.1" type="line"/>
      <point x="-171.2" y="751.7" type="line"/>
      <point x="-100.2" y="727.4" type="line"/>
      <point x="45" y="907.8" type="line"/>
    </contour>
  </outline>
</glyph>
<glyph name="uni0956" format="1">
  <unicode hex="0956"/>
  <outline>
    <contour>
      <point x="116.3" y="-69.7" type="line"/>
      <point x="3.6" y="-95.1"/>
      <point x="-111.7" y="-108.8"/>
      <point x="-227.3" y="-108.8" type="curve" smooth="yes"/>
      <point x="-334.9" y="-108.8"/>
      <point x="-442.6" y="-96.9"/>
      <point x="-547" y="-70.1" type="curve"/>
      <point x="-563" y="-129.9" type="line"/>
      <point x="-453.4" y="-158.1"/>
      <point x="-340.3" y="-170.8"/>
      <point x="-227.3" y="-170.8" type="curve" smooth="yes"/>
      <point x="-107.2" y="-170.8"/>
      <point x="12.6" y="-156.6"/>
      <point x="129.7" y="-130.3" type="curve"/>
    </contour>
  </outline>
</glyph>
<glyph name="uni0957" format="1">
  <unicode hex="0957"/>
  <outline>
    <contour>
      <point x="116.3" y="-69.7" type="line"/>
      <point x="3.6" y="-95.1"/>
      <point x="-111.7" y="-108.8"/>
      <point x="-227.3" y="-108.8" type="curve" smooth="yes"/>
      <point x="-334.9" y="-108.8"/>
      <point x="-442.6" y="-96.9"/>
      <point x="-547" y="-70.1" type="curve"/>
      <point x="-563" y="-129.9" type="line"/>
      <point x="-453.4" y="-158.1"/>
      <point x="-340.3" y="-170.8"/>
      <point x="-227.3" y="-170.8" type="curve" smooth="yes"/>
      <point x="-107.2" y="-170.8"/>
      <point x="12.6" y="-156.6"/>
      <point x="129.7" y="-130.3" type="curve"/>
    </contour>
    <contour>
      <point x="116.3" y="-210.7" type="line"/>
      <point x="3.6" y="-236.1"/>
      <point x="-111.7" y="-249.8"/>
      <point x="-227.3" y="-249.8" type="curve" smooth="yes"/>
      <point x="-334.9" y="-249.8"/>
      <point x="-442.6" y="-237.9"/>
      <point x="-547" y="-211.1" type="curve"/>
      <point x="-563" y="-270.9" type="line"/>
      <point x="-453.4" y="-299.1"/>
      <point x="-340.3" y="-311.8"/>
      <point x="-227.3" y="-311.8" type="curve" smooth="yes"/>
      <point x="-107.2" y="-311.8"/>
      <point x="12.6" y="-297.6"/>
      <point x="129.7" y="-271.3" type="curve"/>
    </contour>
  </outline>
</glyph>
<glyph name="GaNukta.dv" format="1">
  <advance width="820"/>
  <unicode hex="095A"/>
  <outline>
    <contour>
      <point x="0" y="578.8" type="line"/>
      <point x="160" y="578.8" type="line"/>
      <point x="160" y="361.567" type="line"/>
      <point x="121.743" y="359.605"/>
      <point x="50" y="352.401"/>
      <point x="50" y="331" type="curve" smooth="yes"/>
      <point x="50" y="131" type="line" smooth="yes"/>
      <point x="50" y="104.6"/>
      <point x="159.2" y="99.8"/>
      <point x="180" y="99.8" type="curve" smooth="yes"/>
      <point x="280" y="99.8" type="line" smooth="yes"/>
      <point x="300.8" y="99.8"/>
      <point x="410" y="104.6"/>
      <point x="410" y="131" type="curve" smooth="yes"/>
      <point x="410" y="578.8" type="line"/>
      <point x="510" y="578.8" type="line"/>
      <point x="510" y="0" type="line"/>
      <point x="770" y="0" type="line"/>
      <point x="770" y="578.8" type="line"/>
      <point x="820" y="578.8" type="line"/>
      <point x="820" y="641.2" type="line"/>
      <point x="0" y="641.2" type="line"/>
    </contour>
    <contour>
      <point x="410" y="10" type="line"/>
      <point x="335" y="10" type="line" smooth="yes"/>
      <point x="323.1" y="10"/>
      <point x="260" y="7.2"/>
      <point x="260" y="-8" type="curve" smooth="yes"/>
      <point x="260" y="-86" type="line"/>
      <point x="335" y="-86" type="line" smooth="yes"/>
      <point x="346.9" y="-86"/>
      <point x="410" y="-83.2"/>
      <point x="410" y="-68" type="curve" smooth="yes"/>
    </contour>
  </outline>
</glyph>
<glyph name="vowelRuu.dv" format="1">
  <advance width="1261"/>
  <unicode hex="0960"/>
  <outline>
    <contour>
      <point x="1140" y="58" type="line"/>
      <point x="985.9" y="58" type="line"/>
      <point x="975.8" y="77.1"/>
      <point x="980" y="101.6"/>
      <point x="980" y="122.4" type="curve" smooth="yes"/>
      <point x="980" y="203" type="line"/>
      <point x="1050" y="203" type="line" smooth="yes"/>
      <point x="1066.6" y="203"/>
      <point x="1140" y="207.5"/>
      <point x="1140" y="230" type="curve" smooth="yes"/>
      <point x="1140" y="333.22" type="line"/>
      <point x="1173.35" y="336.971"/>
      <point x="1210" y="344.709"/>
      <point x="1210" y="360" type="curve" smooth="yes"/>
      <point x="1210" y="498" type="line" smooth="yes"/>
      <point x="1210" y="524.2"/>
      <point x="1105.2" y="528"/>
      <point x="1085" y="528" type="curve" smooth="yes"/>
      <point x="1061.5" y="528"/>
      <point x="969.2" y="524.7"/>
      <point x="960.5" y="500.6" type="curve"/>
      <point x="959.1" y="497"/>
      <point x="960" y="404.4"/>
      <point x="960" y="390" type="curve"/>
      <point x="883.333" y="390"/>
      <point x="806.667" y="389.307"/>
      <point x="730" y="389.005" type="curve"/>
      <point x="730" y="578.8" type="line"/>
      <point x="1259.6" y="578.8" type="line"/>
      <point x="1259.6" y="641.2" type="line"/>
      <point x="0" y="641.2" type="line"/>
      <point x="0" y="578.8" type="line"/>
      <point x="470" y="578.8" type="line"/>
      <point x="470" y="398.672" type="line"/>
      <point x="386.487" y="435.266"/>
      <point x="309.779" y="465"/>
      <point x="213" y="465" type="curve" smooth="yes"/>
      <point x="161" y="465"/>
      <point x="137" y="448"/>
      <point x="93" y="425" type="curve" smooth="yes"/>
      <point x="-20" y="366" type="line"/>
      <point x="220" y="288" type="line"/>
      <point x="234" y="295"/>
      <point x="363" y="364"/>
      <point x="363" y="364" type="curve"/>
      <point x="367.914" y="364"/>
      <point x="426.399" y="336.724"/>
      <point x="471.72" y="315.748" type="curve"/>
      <point x="470" y="312.439" type="line"/>
      <point x="398.701" y="304.885"/>
      <point x="313.66" y="296.353"/>
      <point x="261" y="256" type="curve" smooth="yes"/>
      <point x="233.9" y="235.2"/>
      <point x="212.9" y="207.1"/>
      <point x="190" y="181" type="curve" smooth="yes"/>
      <point x="63" y="36" type="line"/>
      <point x="277" y="24" type="line"/>
      <point x="401" y="164" type="line" smooth="yes"/>
      <point x="414.253" y="178.991"/>
      <point x="444.441" y="218.091"/>
      <point x="470" y="239.895" type="curve"/>
      <point x="470" y="0" type="line"/>
      <point x="730" y="0" type="line"/>
      <point x="730" y="355.787" type="line"/>
      <point x="740.44" y="334.171"/>
      <point x="830.542" y="330"/>
      <point x="849" y="330" type="curve" smooth="yes"/>
      <point x="960" y="330" type="line"/>
      <point x="960" y="257" type="line"/>
      <point x="890" y="257" type="line" smooth="yes"/>
      <point x="873.4" y="257"/>
      <point x="800" y="252.5"/>
      <point x="800" y="230" type="curve" smooth="yes"/>
      <point x="800" y="81" type="line" smooth="yes"/>
      <point x="800" y="13.1"/>
      <point x="889.3" y="4"/>
      <point x="940" y="4" type="curve" smooth="yes"/>
      <point x="1140" y="4" type="line"/>
    </contour>
  </outline>
</glyph>
<glyph name="matraLru.dv" format="1">
  <unicode hex="0962"/>
  <outline>
    <contour>
      <point x="167.8" y="-352.1" type="curve"/>
      <point x="167.8" y="-349.04" type="line"/>
      <point x="167.912" y="-344.472"/>
      <point x="168.1" y="-340.258"/>
      <point x="167.8" y="-337.1" type="curve"/>
      <point x="167.8" y="-318.922" type="line"/>
      <point x="210.154" y="-318.339"/>
      <point x="276.3" y="-313.037"/>
      <point x="276.3" y="-267.7" type="curve" smooth="yes"/>
      <point x="276.3" y="-71.3" type="line" smooth="yes"/>
      <point x="276.3" y="-21.9"/>
      <point x="197.1" y="-20"/>
      <point x="162.2" y="-20" type="curve" smooth="yes"/>
      <point x="110.9" y="-19.7" type="line"/>
      <point x="82.4" y="-19.7" type="line" smooth="yes"/>
      <point x="54.5517" y="-19.7"/>
      <point x="21.4603" y="-26.5738"/>
      <point x="0.879303" y="-47.0908" type="curve"/>
      <point x="0.9" y="-43.8" type="line"/>
      <point x="0.9" y="-20.8313"/>
      <point x="-64.9909" y="-20.3"/>
      <point x="-81.6" y="-20.3" type="curve" smooth="yes"/>
      <point x="-167.1" y="-20.3" type="line" smooth="yes"/>
      <point x="-201.8" y="-20.3"/>
      <point x="-281.1" y="-22.5"/>
      <point x="-281.1" y="-71.7" type="curve" smooth="yes"/>
      <point x="-281.1" y="-268.1" type="line" smooth="yes"/>
      <point x="-281.1" y="-317.3"/>
      <point x="-201.8" y="-319.5"/>
      <point x="-167.1" y="-319.5" type="curve" smooth="yes"/>
      <point x="-34.1" y="-319.5" type="line"/>
      <point x="-34.1" y="-280" type="line"/>
      <point x="-114.1" y="-280" type="line"/>
      <point x="-115.9" y="-276.4"/>
      <point x="-116.4" y="-272.1"/>
      <point x="-116.4" y="-268.1" type="curve" smooth="yes"/>
      <point x="-116.4" y="-71.7" type="line" smooth="yes"/>
      <point x="-116.4" y="-67.7"/>
      <point x="-115.9" y="-63.4"/>
      <point x="-114.1" y="-59.8" type="curve"/>
      <point x="-9.04431" y="-59.7086" type="line"/>
      <point x="-17.9016" y="-73.5509"/>
      <point x="-23.8702" y="-89.27"/>
      <point x="-31" y="-103.9" type="curve" smooth="yes"/>
      <point x="-70.9" y="-185.7" type="line"/>
      <point x="25.4" y="-192" type="line"/>
      <point x="67.2" y="-107.7" type="line" smooth="yes"/>
      <point x="73.0525" y="-95.8958"/>
      <point x="84.1197" y="-66.409"/>
      <point x="94.8388" y="-59.2" type="curve"/>
      <point x="109" y="-59.2" type="line"/>
      <point x="110.9" y="-63"/>
      <point x="111.6" y="-67.5"/>
      <point x="111.6" y="-71.3" type="curve" smooth="yes"/>
      <point x="111.6" y="-267.7" type="line" smooth="yes"/>
      <point x="111.6" y="-271.447"/>
      <point x="110.919" y="-275.778"/>
      <point x="109.079" y="-279.541" type="curve"/>
      <point x="108.085" y="-279.533"/>
      <point x="106.317" y="-279.583"/>
      <point x="104.239" y="-279.673" type="curve" smooth="yes"/>
      <point x="102.1" y="-279.801" type="line" smooth="yes"/>
      <point x="85.6799" y="-280.596"/>
      <point x="53.8" y="-283.737"/>
      <point x="53.8" y="-293.2" type="curve" smooth="yes"/>
      <point x="54" y="-352.1" type="line"/>
      <point x="54" y="-363.1" type="line" smooth="yes"/>
      <point x="54" y="-405.5"/>
      <point x="112.3" y="-408.7"/>
      <point x="142.7" y="-408.7" type="curve" smooth="yes"/>
      <point x="262.5" y="-408.7" type="line"/>
      <point x="262.5" y="-381.5" type="line"/>
      <point x="173.8" y="-381.5" type="line"/>
      <point x="168.304" y="-376.004"/>
      <point x="167.604" y="-363.355"/>
    </contour>
  </outline>
</glyph>
<glyph name="Danda.dv" format="1">
  <advance width="400"/>
  <unicode hex="0964"/>
  <outline>
    <contour>
      <point x="100.1" y="637.7" type="line"/>
      <point x="100.1" y="-3.3" type="line"/>
      <point x="299.9" y="3.3" type="line"/>
      <point x="299.9" y="644.3" type="line"/>
    </contour>
  </outline>
</glyph>
<glyph name="Doubledanda.dv" format="1">
  <advance width="700"/>
  <unicode hex="0965"/>
  <outline>
    <contour>
      <point x="100.1" y="637.7" type="line"/>
      <point x="100.1" y="-3.3" type="line"/>
      <point x="299.9" y="3.3" type="line"/>
      <point x="299.9" y="644.3" type="line"/>
    </contour>
    <contour>
      <point x="400.1" y="637.7" type="line"/>
      <point x="400.1" y="-3.3" type="line"/>
      <point x="599.9" y="3.3" type="line"/>
      <point x="599.9" y="644.3" type="line"/>
    </contour>
  </outline>
</glyph>
<glyph name="Shunya.dv" format="1">
  <advance width="650"/>
  <unicode hex="0966"/>
  <outline>
    <contour>
      <point x="600" y="471" type="line" smooth="yes"/>
      <point x="600" y="495.3"/>
      <point x="499.1" y="499.8"/>
      <point x="480" y="499.8" type="curve" smooth="yes"/>
      <point x="170" y="499.8" type="line" smooth="yes"/>
      <point x="150.9" y="499.8"/>
      <point x="50" y="495.3"/>
      <point x="50" y="471" type="curve" smooth="yes"/>
      <point x="50" y="109" type="line" smooth="yes"/>
      <point x="50" y="84.7"/>
      <point x="150.9" y="80.2"/>
      <point x="170" y="80.2" type="curve" smooth="yes"/>
      <point x="480" y="80.2" type="line" smooth="yes"/>
      <point x="499.1" y="80.2"/>
      <point x="600" y="84.7"/>
      <point x="600" y="109" type="curve" smooth="yes"/>
    </contour>
    <contour>
      <point x="290" y="137.8" type="line"/>
      <point x="290" y="442.2" type="line"/>
      <point x="360" y="442.2" type="line"/>
      <point x="360" y="137.8" type="line"/>
    </contour>
  </outline>
</glyph>
<glyph name="Teen.dv" format="1">
  <advance width="608"/>
  <unicode hex="0969"/>
  <outline>
    <contour>
      <point x="180" y="119.4" type="line"/>
      <point x="120" y="119.4" type="line" smooth="yes"/>
      <point x="110.4" y="119.4"/>
      <point x="60.7" y="116.9"/>
      <point x="60.1" y="105.6" type="curve"/>
      <point x="60" y="100" type="line"/>
      <point x="60" y="0" type="line" smooth="yes"/>
      <point x="60" y="-12.1"/>
      <point x="110.4" y="-14.4"/>
      <point x="120" y="-14.4" type="curve" smooth="yes"/>
      <point x="180" y="-14.4" type="line"/>
      <point x="180" y="61" type="line"/>
      <point x="358" y="61" type="line" smooth="yes"/>
      <point x="432" y="61"/>
      <point x="558" y="70"/>
      <point x="558" y="170" type="curve" smooth="yes"/>
      <point x="558" y="294" type="line" smooth="yes"/>
      <point x="558" y="318"/>
      <point x="457" y="323"/>
      <point x="438" y="323" type="curve" smooth="yes"/>
      <point x="433" y="323" type="line"/>
      <point x="433" y="325.387" type="line"/>
      <point x="493.977" y="334.76"/>
      <point x="553" y="360.421"/>
      <point x="553" y="429" type="curve" smooth="yes"/>
      <point x="553" y="612" type="line" smooth="yes"/>
      <point x="553" y="636.4"/>
      <point x="452.1" y="640.8"/>
      <point x="433" y="640.8" type="curve" smooth="yes"/>
      <point x="80" y="640.8" type="line"/>
      <point x="80" y="583.2" type="line"/>
      <point x="313" y="583.2" type="line"/>
      <point x="313" y="429" type="line" smooth="yes"/>
      <point x="313" y="410.5"/>
      <point x="307.7" y="391.2"/>
      <point x="294.4" y="377.8" type="curve"/>
      <point x="80" y="377.8" type="line"/>
      <point x="80" y="320.2" type="line"/>
      <point x="318" y="320.2" type="line"/>
      <point x="318" y="179" type="line" smooth="yes"/>
      <point x="318" y="157"/>
      <point x="315" y="135"/>
      <point x="299" y="119" type="curve"/>
    </contour>
  </outline>
</glyph>
<glyph name="Saha.dv" format="1">
  <advance width="589"/>
  <unicode hex="096C"/>
  <outline>
    <contour>
      <point x="314.92" y="263.2" type="line"/>
      <point x="314.817" y="231.763"/>
      <point x="314.6" y="200.288"/>
      <point x="314.6" y="168.8" type="curve" smooth="yes"/>
      <point x="314.6" y="147"/>
      <point x="317.5" y="125"/>
      <point x="333.6" y="108.8" type="curve"/>
      <point x="429" y="108.8" type="line"/>
      <point x="429" y="109.4" type="line"/>
      <point x="489" y="109.4" type="line" smooth="yes"/>
      <point x="498.6" y="109.4"/>
      <point x="549" y="107.1"/>
      <point x="549" y="95" type="curve" smooth="yes"/>
      <point x="549" y="5" type="line"/>
      <point x="548.9" y="-0.6" type="line"/>
      <point x="548.3" y="-11.9"/>
      <point x="498.6" y="-14.4"/>
      <point x="489" y="-14.4" type="curve" smooth="yes"/>
      <point x="429" y="-14.4" type="line"/>
      <point x="429" y="51.2" type="line"/>
      <point x="275" y="51.2" type="line" smooth="yes"/>
      <point x="201" y="51.2"/>
      <point x="75" y="59.8"/>
      <point x="75" y="160" type="curve" smooth="yes"/>
      <point x="75" y="292" type="line" smooth="yes"/>
      <point x="75" y="312.342"/>
      <point x="145.71" y="318.809"/>
      <point x="179.8" y="320.356" type="curve"/>
      <point x="179.8" y="324.015" type="line"/>
      <point x="115.51" y="332.131"/>
      <point x="50" y="356.75"/>
      <point x="50" y="429" type="curve" smooth="yes"/>
      <point x="50" y="562" type="line" smooth="yes"/>
      <point x="50" y="637.1"/>
      <point x="166.8" y="640.8"/>
      <point x="220" y="640.8" type="curve" smooth="yes"/>
      <point x="510" y="640.8" type="line"/>
      <point x="510" y="583.2" type="line"/>
      <point x="295" y="583.2" type="line" smooth="yes"/>
      <point x="292.4" y="583.2"/>
      <point x="290" y="565.6"/>
      <point x="290" y="562" type="curve" smooth="yes"/>
      <point x="290" y="429" type="line" smooth="yes"/>
      <point x="290" y="410.5"/>
      <point x="295.3" y="391.2"/>
      <point x="308.6" y="377.8" type="curve"/>
      <point x="500" y="377.8" type="line"/>
      <point x="500" y="320.2" type="line"/>
      <point x="315" y="320.2" type="line"/>
    </contour>
  </outline>
</glyph>
<glyph name="Saat.dv" format="1">
  <advance width="900"/>
  <unicode hex="096D"/>
  <outline>
    <contour>
      <point x="386" y="80.1" type="line"/>
      <point x="250.4" y="80.1" type="line"/>
      <point x="250" y="81" type="line"/>
      <point x="250" y="641" type="line"/>
      <point x="50" y="641" type="line"/>
      <point x="50" y="51" type="line" smooth="yes"/>
      <point x="50" y="26.7"/>
      <point x="132" y="21.9"/>
      <point x="150" y="21.9" type="curve" smooth="yes"/>
      <point x="386" y="22.2" type="line"/>
      <point x="730" y="22.2" type="line" smooth="yes"/>
      <point x="749.1" y="22.2"/>
      <point x="850" y="26.7"/>
      <point x="850" y="51" type="curve" smooth="yes"/>
      <point x="850" y="500" type="line" smooth="yes"/>
      <point x="850" y="524.3"/>
      <point x="749.1" y="528.8"/>
      <point x="730" y="528.8" type="curve" smooth="yes"/>
      <point x="430" y="528.8" type="line" smooth="yes"/>
      <point x="410.9" y="528.8"/>
      <point x="310" y="524.3"/>
      <point x="310" y="500" type="curve" smooth="yes"/>
      <point x="310" y="169" type="line" smooth="yes"/>
      <point x="310" y="140.9"/>
      <point x="432.8" y="140.2"/>
      <point x="455" y="140.2" type="curve" smooth="yes"/>
      <point x="483.3" y="140.2"/>
      <point x="576.8" y="141"/>
      <point x="593.2" y="164" type="curve" smooth="yes"/>
      <point x="595.2" y="166.9"/>
      <point x="595.3" y="170.9"/>
      <point x="595.3" y="174.3" type="curve" smooth="yes"/>
      <point x="595" y="198" type="line"/>
      <point x="550" y="198" type="line"/>
      <point x="550" y="471.2" type="line"/>
      <point x="610" y="471.2" type="line"/>
      <point x="610" y="79.8" type="line"/>
    </contour>
  </outline>
</glyph>
<glyph name="Nau.dv" format="1">
  <advance width="640"/>
  <unicode hex="096F"/>
  <outline>
    <contour>
      <point x="536" y="0" type="line"/>
      <point x="536" y="165" type="line" smooth="yes"/>
      <point x="536" y="172.5"/>
      <point x="523.6" y="177.9"/>
      <point x="518.2" y="181" type="curve" smooth="yes"/>
      <point x="290" y="312.7" type="line"/>
      <point x="290" y="583.2" type="line"/>
      <point x="350" y="583.2" type="line"/>
      <point x="350" y="313.2" type="line"/>
      <point x="470" y="313.2" type="line" smooth="yes"/>
      <point x="489.1" y="313.2"/>
      <point x="590" y="317.7"/>
      <point x="590" y="342" type="curve" smooth="yes"/>
      <point x="590" y="612" type="line" smooth="yes"/>
      <point x="590" y="636.3"/>
      <point x="489.1" y="640.8"/>
      <point x="470" y="640.8" type="curve" smooth="yes"/>
      <point x="170" y="640.8" type="line" smooth="yes"/>
      <point x="150.9" y="640.8"/>
      <point x="50" y="636.3"/>
      <point x="50" y="612" type="curve" smooth="yes"/>
      <point x="50" y="307" type="line" smooth="yes"/>
      <point x="50" y="299.5"/>
      <point x="62.4" y="294.1"/>
      <point x="67.8" y="291" type="curve" smooth="yes"/>
      <point x="296" y="159.3" type="line"/>
      <point x="296" y="0" type="line"/>
    </contour>
  </outline>
</glyph>
<glyph name="uni0970" format="1">
  <advance width="415"/>
  <unicode hex="0970"/>
  <outline>
    <contour>
      <point x="295" y="397.2" type="line" smooth="yes"/>
      <point x="306.1" y="397.2"/>
      <point x="365" y="399.8"/>
      <point x="365" y="414" type="curve" smooth="yes"/>
      <point x="365" y="624" type="line" smooth="yes"/>
      <point x="365" y="638.2"/>
      <point x="306.1" y="640.8"/>
      <point x="295" y="640.8" type="curve" smooth="yes"/>
      <point x="120" y="640.8" type="line" smooth="yes"/>
      <point x="108.9" y="640.8"/>
      <point x="50" y="638.2"/>
      <point x="50" y="624" type="curve" smooth="yes"/>
      <point x="50" y="414" type="line" smooth="yes"/>
      <point x="50" y="399.8"/>
      <point x="108.9" y="397.2"/>
      <point x="120" y="397.2" type="curve" smooth="yes"/>
    </contour>
    <contour>
      <point x="190" y="430.8" type="line"/>
      <point x="190" y="607.2" type="line"/>
      <point x="225" y="607.2" type="line"/>
      <point x="225" y="430.8" type="line"/>
    </contour>
  </outline>
</glyph>
<glyph name="vowelChandraA.dv" format="1">
  <advance width="980"/>
  <unicode hex="0972"/>
  <outline>
    <contour>
      <point x="420" y="850" type="line"/>
      <point x="422" y="822"/>
      <point x="420.9" y="791"/>
      <point x="427" y="763" type="curve" smooth="yes"/>
      <point x="439.9" y="704"/>
      <point x="508" y="691"/>
      <point x="560" y="691" type="curve" smooth="yes"/>
      <point x="810" y="691" type="line" smooth="yes"/>
      <point x="862" y="691"/>
      <point x="930.1" y="704"/>
      <point x="943" y="763" type="curve" smooth="yes"/>
      <point x="949.1" y="791"/>
      <point x="948" y="822"/>
      <point x="950" y="850" type="curve"/>
      <point x="790" y="852" type="line"/>
      <point x="788" y="827"/>
      <point x="788" y="771"/>
      <point x="777" y="751" type="curve"/>
      <point x="593" y="751" type="line"/>
      <point x="582" y="771"/>
      <point x="582" y="827"/>
      <point x="580" y="852" type="curve"/>
    </contour>
    <contour>
      <point x="620" y="578.8" type="line"/>
      <point x="670" y="578.8" type="line"/>
      <point x="670" y="305.161" type="line"/>
      <point x="557.165" y="305" type="line"/>
      <point x="540.386" y="324.7"/>
      <point x="453.903" y="328.965"/>
      <point x="431.766" y="329.19" type="curve"/>
      <point x="432" y="334.018" type="line"/>
      <point x="492.517" y="344.064"/>
      <point x="550" y="370.361"/>
      <point x="550" y="438" type="curve" smooth="yes"/>
      <point x="550" y="560" type="line" smooth="yes"/>
      <point x="550" y="636.4"/>
      <point x="429" y="640"/>
      <point x="375" y="640" type="curve" smooth="yes"/>
      <point x="80" y="640" type="line"/>
      <point x="80" y="580" type="line"/>
      <point x="295.7" y="580" type="line"/>
      <point x="299" y="573.9"/>
      <point x="300" y="566.8"/>
      <point x="300" y="560" type="curve" smooth="yes"/>
      <point x="300" y="438" type="line" smooth="yes"/>
      <point x="300" y="420.5"/>
      <point x="295" y="400.7"/>
      <point x="282.3" y="388" type="curve"/>
      <point x="100" y="388" type="line"/>
      <point x="100" y="328" type="line"/>
      <point x="300" y="328" type="line"/>
      <point x="300.066" y="266.8" type="line"/>
      <point x="300.073" y="265.261"/>
      <point x="300.071" y="263.724"/>
      <point x="300.078" y="262.184" type="curve"/>
      <point x="300.422" y="200.316" type="line" smooth="yes"/>
      <point x="300.469" y="190.006"/>
      <point x="300.5" y="179.7"/>
      <point x="300.5" y="169.4" type="curve" smooth="yes"/>
      <point x="300.5" y="149.8"/>
      <point x="297.9" y="126"/>
      <point x="283.3" y="111.2" type="curve"/>
      <point x="60" y="111.2" type="line"/>
      <point x="60" y="48.8" type="line"/>
      <point x="350" y="48.8" type="line" smooth="yes"/>
      <point x="425.7" y="48.8"/>
      <point x="560" y="56.7"/>
      <point x="560" y="160" type="curve" smooth="yes"/>
      <point x="560" y="266.821" type="line"/>
      <point x="574.395" y="250.429"/>
      <point x="637.26" y="244.801"/>
      <point x="670.147" y="243.279" type="curve"/>
      <point x="670" y="0" type="line"/>
      <point x="930" y="0" type="line"/>
      <point x="930" y="578.8" type="line"/>
      <point x="980" y="578.8" type="line"/>
      <point x="980" y="641.2" type="line"/>
      <point x="620" y="641.2" type="line"/>
    </contour>
  </outline>
</glyph>
<glyph name="uni0978" format="1">
  <advance width="870"/>
  <unicode hex="0978"/>
  <outline>
    <contour>
      <point x="0" y="578.8" type="line"/>
      <point x="177" y="578.8" type="line"/>
      <point x="177" y="356.652" type="line"/>
      <point x="170.665" y="355.921"/>
      <point x="164.332" y="355.174"/>
      <point x="158" y="354.4" type="curve" smooth="yes"/>
      <point x="130" y="351"/>
      <point x="100.8" y="348.7"/>
      <point x="73.9" y="340" type="curve" smooth="yes"/>
      <point x="66.5" y="337.6"/>
      <point x="47" y="331.1"/>
      <point x="47" y="321" type="curve" smooth="yes"/>
      <point x="47" y="111" type="line" smooth="yes"/>
      <point x="47" y="84.6"/>
      <point x="156.3" y="79.8"/>
      <point x="177" y="79.8" type="curve" smooth="yes"/>
      <point x="307" y="79.8" type="line" smooth="yes"/>
      <point x="327.7" y="79.8"/>
      <point x="437" y="84.6"/>
      <point x="437" y="111" type="curve" smooth="yes"/>
      <point x="437" y="309.996" type="line"/>
      <point x="478.732" y="309.974"/>
      <point x="520.366" y="307.182"/>
      <point x="561.8" y="302.6" type="curve"/>
      <point x="565.1" y="273.7"/>
      <point x="565.4" y="244.6"/>
      <point x="565.4" y="215.5" type="curve" smooth="yes"/>
      <point x="565.4" y="143.3"/>
      <point x="552.3" y="71.5"/>
      <point x="530.5" y="2.7" type="curve"/>
      <point x="789.5" y="-2.7" type="line"/>
      <point x="811.9" y="67.8"/>
      <point x="825.4" y="141.4"/>
      <point x="825.4" y="215.5" type="curve" smooth="yes"/>
      <point x="825.4" y="232.7"/>
      <point x="824.1" y="316.6"/>
      <point x="818" y="326.4" type="curve" smooth="yes"/>
      <point x="796.452" y="361.017"/>
      <point x="492.463" y="372.445"/>
      <point x="436.896" y="372.5" type="curve"/>
      <point x="437" y="578.8" type="line"/>
      <point x="870" y="578.8" type="line"/>
      <point x="870" y="641.2" type="line"/>
      <point x="0" y="641.2" type="line"/>
    </contour>
  </outline>
</glyph>
<glyph name="uni097C" format="1">
  <advance width="1020"/>
  <unicode hex="097C"/>
  <outline>
    <contour>
      <point x="310" y="451.2" type="line"/>
      <point x="180" y="451.2" type="line" smooth="yes"/>
      <point x="159.2" y="451.2"/>
      <point x="50" y="446.4"/>
      <point x="50" y="420" type="curve" smooth="yes"/>
      <point x="50" y="111" type="line" smooth="yes"/>
      <point x="50" y="84.6"/>
      <point x="159.2" y="79.8"/>
      <point x="180" y="79.8" type="curve" smooth="yes"/>
      <point x="510" y="79.8" type="line" smooth="yes"/>
      <point x="531.9" y="79.8"/>
      <point x="635.2" y="84.1"/>
      <point x="639.9" y="109.6" type="curve" smooth="yes"/>
      <point x="644.2" y="133.4"/>
      <point x="640" y="168.8"/>
      <point x="640" y="194.1" type="curve" smooth="yes"/>
      <point x="640" y="389" type="line"/>
      <point x="710" y="389" type="line"/>
      <point x="710" y="31.2" type="line"/>
      <point x="60" y="31.2" type="line"/>
      <point x="60" y="-31.2" type="line"/>
      <point x="840" y="-31.2" type="line" smooth="yes"/>
      <point x="860.7" y="-31.2"/>
      <point x="970" y="-26.4"/>
      <point x="970" y="0" type="curve" smooth="yes"/>
      <point x="970" y="578.8" type="line"/>
      <point x="1020" y="578.8" type="line"/>
      <point x="1020" y="641.2" type="line"/>
      <point x="0" y="641.2" type="line"/>
      <point x="0" y="578.8" type="line"/>
      <point x="710" y="578.8" type="line"/>
      <point x="710" y="430.4" type="line"/>
      <point x="686.082" y="447.788"/>
      <point x="609.687" y="451.2"/>
      <point x="587" y="451.2" type="curve" smooth="yes"/>
      <point x="510" y="451.2" type="line" smooth="yes"/>
      <point x="489.2" y="451.2"/>
      <point x="380" y="446.4"/>
      <point x="380" y="420" type="curve" smooth="yes"/>
      <point x="380" y="142.2" type="line"/>
      <point x="310" y="142.2" type="line"/>
    </contour>
  </outline>
</glyph>
<glyph name="uni097D" format="1">
  <advance width="550"/>
  <unicode hex="097D"/>
  <outline>
    <contour>
      <point x="40" y="579" type="line"/>
      <point x="270" y="579" type="line"/>
      <point x="270" y="277" type="line"/>
      <point x="150" y="277" type="line" smooth="yes"/>
      <point x="131.1" y="277"/>
      <point x="50" y="271.7"/>
      <point x="50" y="246" type="curve" smooth="yes"/>
      <point x="50" y="-1" type="line"/>
      <point x="250" y="-1" type="line"/>
      <point x="250" y="215" type="line"/>
      <point x="370" y="215" type="line" smooth="yes"/>
      <point x="388.9" y="215"/>
      <point x="470" y="220.3"/>
      <point x="470" y="246" type="curve" smooth="yes"/>
      <point x="470" y="610" type="line" smooth="yes"/>
      <point x="470" y="635.7"/>
      <point x="388.9" y="641"/>
      <point x="370" y="641" type="curve" smooth="yes"/>
      <point x="40" y="641" type="line"/>
    </contour>
  </outline>
</glyph>
<glyph name="uni097F" format="1">
  <advance width="730"/>
  <unicode hex="097F"/>
  <outline>
    <contour>
      <point x="0" y="578.8" type="line"/>
      <point x="420.038" y="578.8" type="line"/>
      <point x="420.113" y="467.244"/>
      <point x="420.526" y="355.653"/>
      <point x="420.793" y="244.078" type="curve"/>
      <point x="310" y="438.035" type="line"/>
      <point x="310" y="439" type="line"/>
      <point x="410" y="439" type="line"/>
      <point x="410.2" y="464.1" type="line" smooth="yes"/>
      <point x="410.2" y="467.3"/>
      <point x="410.3" y="471.1"/>
      <point x="408.9" y="474.1" type="curve"/>
      <point x="397.7" y="496.8"/>
      <point x="304.5" y="501.2"/>
      <point x="280" y="501.2" type="curve" smooth="yes"/>
      <point x="180" y="501.2" type="line" smooth="yes"/>
      <point x="159.2" y="501.2"/>
      <point x="50" y="496.4"/>
      <point x="50" y="470" type="curve" smooth="yes"/>
      <point x="50" y="111" type="line" smooth="yes"/>
      <point x="50" y="84.6"/>
      <point x="159.2" y="79.8"/>
      <point x="180" y="79.8" type="curve" smooth="yes"/>
      <point x="291" y="79.8" type="line" smooth="yes"/>
      <point x="313.425" y="79.8"/>
      <point x="417.649" y="83.6006"/>
      <point x="420.998" y="111.025" type="curve"/>
      <point x="420.999" y="106.316"/>
      <point x="421" y="101.608"/>
      <point x="421" y="96.9" type="curve" smooth="yes"/>
      <point x="421" y="75"/>
      <point x="420.7" y="53.1"/>
      <point x="419.9" y="31.2" type="curve"/>
      <point x="59.6" y="31.2" type="line"/>
      <point x="59.6" y="-31.2" type="line"/>
      <point x="550" y="-31.2" type="line" smooth="yes"/>
      <point x="570.8" y="-31.2"/>
      <point x="680" y="-26.4"/>
      <point x="680" y="0" type="curve" smooth="yes"/>
      <point x="680" y="578.8" type="line"/>
      <point x="730" y="578.8" type="line"/>
      <point x="730" y="641.2" type="line"/>
      <point x="0" y="641.2" type="line"/>
    </contour>
    <contour>
      <point x="310" y="142" type="line"/>
      <point x="310" y="337.233" type="line"/>
      <point x="420.945" y="142" type="line"/>
    </contour>
  </outline>
</glyph>
<glyph name="Germandbls" format="1">
  <advance width="760"/>
  <unicode hex="1E9E"/>
  <outline>
    <contour>
      <point x="310" y="0" type="line"/>
      <point x="310" y="50"/>
      <point x="309.938" y="100.063"/>
      <point x="309.844" y="150.156" type="curve" smooth="yes"/>
      <point x="309.156" y="450.844" type="line" smooth="yes"/>
      <point x="309.063" y="500.938"/>
      <point x="309" y="551"/>
      <point x="309" y="601" type="curve" smooth="yes"/>
      <point x="309" y="618"/>
      <point x="310" y="654"/>
      <point x="325" y="666" type="curve"/>
      <point x="416" y="666" type="line"/>
      <point x="434" y="650"/>
      <point x="431" y="607"/>
      <point x="431" y="585" type="curve" smooth="yes"/>
      <point x="431.1" y="500" type="line"/>
      <point x="431.1" y="479.3" type="line"/>
      <point x="363.89" y="404.8" type="line"/>
      <point x="340" y="404.8" type="line"/>
      <point x="340" y="335.2" type="line"/>
      <point x="424.516" y="335.2" type="line"/>
      <point x="449.98" y="314.29"/>
      <point x="450" y="284.507"/>
      <point x="450" y="253" type="curve" smooth="yes"/>
      <point x="450" y="113" type="line" smooth="yes"/>
      <point x="450" y="93"/>
      <point x="449" y="74"/>
      <point x="436" y="58" type="curve"/>
      <point x="340" y="58" type="line"/>
      <point x="340" y="24" type="line" smooth="yes"/>
      <point x="340" y="-7"/>
      <point x="471" y="-10"/>
      <point x="495" y="-10" type="curve" smooth="yes"/>
      <point x="574" y="-10"/>
      <point x="730" y="-8"/>
      <point x="730" y="104" type="curve" smooth="yes"/>
      <point x="730" y="275" type="line" smooth="yes"/>
      <point x="730" y="304"/>
      <point x="718.8" y="326.8"/>
      <point x="695" y="344" type="curve" smooth="yes"/>
      <point x="669.739" y="362.318"/>
      <point x="604.915" y="367.203"/>
      <point x="555" y="368.511" type="curve"/>
      <point x="555" y="378.347" type="line"/>
      <point x="589.507" y="380.012"/>
      <point x="625.578" y="383.266"/>
      <point x="631.2" y="389.5" type="curve" smooth="yes"/>
      <point x="637" y="395.9"/>
      <point x="710.5" y="477"/>
      <point x="711" y="478" type="curve"/>
      <point x="711" y="620" type="line" smooth="yes"/>
      <point x="711" y="726"/>
      <point x="568" y="734"/>
      <point x="491" y="734" type="curve" smooth="yes"/>
      <point x="250" y="734" type="line" smooth="yes"/>
      <point x="173" y="734"/>
      <point x="30" y="726"/>
      <point x="30" y="620" type="curve" smooth="yes"/>
      <point x="30" y="0" type="line"/>
    </contour>
  </outline>
</glyph>
<glyph name="quoteleft" format="1">
  <advance width="221"/>
  <unicode hex="2018"/>
  <outline>
    <contour>
      <point x="180.6" y="508" type="line"/>
      <point x="187" y="715" type="line"/>
      <point x="45" y="715" type="line"/>
      <point x="32" y="490" type="line" smooth="yes"/>
      <point x="30.9" y="471.5"/>
      <point x="120.4" y="471.9"/>
      <point x="133.9" y="471.9" type="curve" smooth="yes"/>
      <point x="149.6" y="471.9"/>
      <point x="165.3" y="472.1"/>
      <point x="181" y="472" type="curve"/>
    </contour>
  </outline>
</glyph>
<glyph name="bullet" format="1">
  <advance width="260"/>
  <unicode hex="2022"/>
  <outline>
    <contour>
      <point x="230" y="408" type="line"/>
      <point x="130" y="408" type="line" smooth="yes"/>
      <point x="114.1" y="408"/>
      <point x="30" y="404.3"/>
      <point x="30" y="384" type="curve" smooth="yes"/>
      <point x="30" y="260" type="line"/>
      <point x="130" y="260" type="line" smooth="yes"/>
      <point x="145.9" y="260"/>
      <point x="230" y="263.7"/>
      <point x="230" y="284" type="curve" smooth="yes"/>
    </contour>
  </outline>
</glyph>
<glyph name="perthousand" format="1">
  <advance width="1363"/>
  <unicode hex="2030"/>
  <outline>
    <contour>
      <point x="650.9" y="667.5" type="line"/>
      <point x="191.9" y="2.5" type="line"/>
      <point x="310.1" y="-2.5" type="line"/>
      <point x="769.1" y="662.5" type="line"/>
    </contour>
    <contour>
      <point x="30" y="356" type="line" smooth="yes"/>
      <point x="30" y="339.8"/>
      <point x="97.3" y="336.8"/>
      <point x="110" y="336.8" type="curve" smooth="yes"/>
      <point x="302" y="336.8" type="line" smooth="yes"/>
      <point x="314.7" y="336.8"/>
      <point x="382" y="339.8"/>
      <point x="382" y="356" type="curve" smooth="yes"/>
      <point x="382" y="646" type="line" smooth="yes"/>
      <point x="382" y="662.2"/>
      <point x="314.7" y="665.2"/>
      <point x="302" y="665.2" type="curve" smooth="yes"/>
      <point x="110" y="665.2" type="line" smooth="yes"/>
      <point x="97.3" y="665.2"/>
      <point x="30" y="662.2"/>
      <point x="30" y="646" type="curve" smooth="yes"/>
    </contour>
    <contour>
      <point x="190" y="375.2" type="line"/>
      <point x="190" y="626.8" type="line"/>
      <point x="222" y="626.8" type="line"/>
      <point x="222" y="375.2" type="line"/>
    </contour>
    <contour>
      <point x="579" y="19" type="line" smooth="yes"/>
      <point x="579" y="2.8"/>
      <point x="646.3" y="-0.2"/>
      <point x="659" y="-0.2" type="curve" smooth="yes"/>
      <point x="851" y="-0.2" type="line" smooth="yes"/>
      <point x="863.7" y="-0.2"/>
      <point x="931" y="2.8"/>
      <point x="931" y="19" type="curve" smooth="yes"/>
      <point x="931" y="309" type="line" smooth="yes"/>
      <point x="931" y="325.2"/>
      <point x="863.7" y="328.2"/>
      <point x="851" y="328.2" type="curve" smooth="yes"/>
      <point x="659" y="328.2" type="line" smooth="yes"/>
      <point x="646.3" y="328.2"/>
      <point x="579" y="325.2"/>
      <point x="579" y="309" type="curve" smooth="yes"/>
    </contour>
    <contour>
      <point x="981" y="19" type="line" smooth="yes"/>
      <point x="981" y="2.8"/>
      <point x="1048.3" y="-0.2"/>
      <point x="1061" y="-0.2" type="curve" smooth="yes"/>
      <point x="1253" y="-0.2" type="line" smooth="yes"/>
      <point x="1265.7" y="-0.2"/>
      <point x="1333" y="2.8"/>
      <point x="1333" y="19" type="curve" smooth="yes"/>
      <point x="1333" y="309" type="line" smooth="yes"/>
      <point x="1333" y="325.2"/>
      <point x="1265.7" y="328.2"/>
      <point x="1253" y="328.2" type="curve" smooth="yes"/>
      <point x="1061" y="328.2" type="line" smooth="yes"/>
      <point x="1048.3" y="328.2"/>
      <point x="981" y="325.2"/>
      <point x="981" y="309" type="curve" smooth="yes"/>
    </contour>
    <contour>
      <point x="739" y="38.2" type="line"/>
      <point x="739" y="289.8" type="line"/>
      <point x="771" y="289.8" type="line"/>
      <point x="771" y="38.2" type="line"/>
    </contour>
    <contour>
      <point x="1141" y="38.2" type="line"/>
      <point x="1141" y="289.8" type="line"/>
      <point x="1173" y="289.8" type="line"/>
      <point x="1173" y="38.2" type="line"/>
    </contour>
  </outline>
</glyph>
<glyph name="guilsinglright" format="1">
  <advance width="372"/>
  <unicode hex="203A"/>
  <outline>
    <contour>
      <point x="187.8" y="426.3" type="line"/>
      <point x="203.6" y="405.7"/>
      <point x="341.8" y="224.6"/>
      <point x="341.8" y="222" type="curve" smooth="yes"/>
      <point x="341.8" y="219.4"/>
      <point x="203.6" y="38.3"/>
      <point x="187.8" y="17.7" type="curve"/>
      <point x="30.2" y="24.3" type="line"/>
      <point x="44.5" y="42.3"/>
      <point x="188.9" y="221"/>
      <point x="188.9" y="222" type="curve"/>
      <point x="188.9" y="223"/>
      <point x="44.5" y="401.7"/>
      <point x="30.2" y="419.7" type="curve"/>
    </contour>
  </outline>
</glyph>
<glyph name="zero.superior" format="1">
  <advance width="370"/>
  <unicode hex="2070"/>
  <outline>
    <contour>
      <point x="30" y="384" type="line" smooth="yes"/>
      <point x="30" y="369.8"/>
      <point x="88.9" y="367.2"/>
      <point x="100" y="367.2" type="curve" smooth="yes"/>
      <point x="270" y="367.2" type="line" smooth="yes"/>
      <point x="281.1" y="367.2"/>
      <point x="340" y="369.8"/>
      <point x="340" y="384" type="curve" smooth="yes"/>
      <point x="340" y="683" type="line" smooth="yes"/>
      <point x="340" y="697.2"/>
      <point x="281.1" y="699.8"/>
      <point x="270" y="699.8" type="curve" smooth="yes"/>
      <point x="100" y="699.8" type="line" smooth="yes"/>
      <point x="88.9" y="699.8"/>
      <point x="30" y="697.2"/>
      <point x="30" y="683" type="curve" smooth="yes"/>
    </contour>
    <contour>
      <point x="170" y="400.8" type="line"/>
      <point x="170" y="666.2" type="line"/>
      <point x="200" y="666.2" type="line"/>
      <point x="200" y="400.8" type="line"/>
    </contour>
  </outline>
</glyph>
<glyph name="five.superior" format="1">
  <advance width="325"/>
  <unicode hex="2075"/>
  <outline>
    <contour>
      <point x="290" y="700" type="line"/>
      <point x="37" y="700" type="line"/>
      <point x="25" y="525" type="line"/>
      <point x="153" y="525" type="line"/>
      <point x="154" y="523"/>
      <point x="155" y="520"/>
      <point x="155" y="517" type="curve" smooth="yes"/>
      <point x="155" y="410" type="line" smooth="yes"/>
      <point x="155" y="407"/>
      <point x="154" y="404"/>
      <point x="153" y="402" type="curve"/>
      <point x="20" y="402" type="line"/>
      <point x="20" y="368" type="line"/>
      <point x="200" y="368" type="line" smooth="yes"/>
      <point x="228" y="368"/>
      <point x="295" y="370"/>
      <point x="295" y="410" type="curve" smooth="yes"/>
      <point x="295" y="517" type="line" smooth="yes"/>
      <point x="295" y="557"/>
      <point x="228" y="559"/>
      <point x="200" y="559" type="curve" smooth="yes"/>
      <point x="167" y="559" type="line"/>
      <point x="174" y="666" type="line"/>
      <point x="290" y="666" type="line"/>
    </contour>
  </outline>
</glyph>
<glyph name="six.superior" format="1">
  <advance width="370"/>
  <unicode hex="2076"/>
  <outline>
    <contour>
      <point x="335" y="699.8" type="line"/>
      <point x="100" y="699.8" type="line" smooth="yes"/>
      <point x="88.9" y="699.8"/>
      <point x="30" y="697.2"/>
      <point x="30" y="683" type="curve" smooth="yes"/>
      <point x="30" y="384" type="line" smooth="yes"/>
      <point x="30" y="369.8"/>
      <point x="88.9" y="367.2"/>
      <point x="100" y="367.2" type="curve" smooth="yes"/>
      <point x="270" y="367.2" type="line" smooth="yes"/>
      <point x="281.1" y="367.2"/>
      <point x="340" y="369.8"/>
      <point x="340" y="384" type="curve" smooth="yes"/>
      <point x="340" y="564" type="line" smooth="yes"/>
      <point x="340" y="580.5"/>
      <point x="268" y="580.8"/>
      <point x="255" y="580.8" type="curve" smooth="yes"/>
      <point x="242" y="580.8"/>
      <point x="170" y="580.5"/>
      <point x="170" y="564" type="curve"/>
      <point x="170" y="666.2" type="line"/>
      <point x="335" y="666.2" type="line"/>
    </contour>
    <contour>
      <point x="170" y="400.8" type="line"/>
      <point x="170" y="547" type="line"/>
      <point x="200" y="547" type="line"/>
      <point x="200" y="400.8" type="line"/>
    </contour>
  </outline>
</glyph>
<glyph name="seven.superior" format="1">
  <advance width="315"/>
  <unicode hex="2077"/>
  <outline>
    <contour>
      <point x="30" y="666.2" type="line"/>
      <point x="149.8" y="666.2" type="line"/>
      <point x="60.3" y="368.5" type="line"/>
      <point x="199.7" y="365.5" type="line"/>
      <point x="224.8" y="448.7"/>
      <point x="250.5" y="531.7"/>
      <point x="275.4" y="614.9" type="curve" smooth="yes"/>
      <point x="277.4" y="621.4"/>
      <point x="295" y="678.7"/>
      <point x="295" y="683" type="curve" smooth="yes"/>
      <point x="295" y="697.3"/>
      <point x="235.6" y="699.8"/>
      <point x="225" y="699.8" type="curve" smooth="yes"/>
      <point x="30" y="699.8" type="line"/>
    </contour>
  </outline>
</glyph>
<glyph name="nine.superior" format="1">
  <advance width="370"/>
  <unicode hex="2079"/>
  <outline>
    <contour>
      <point x="35" y="367.2" type="line"/>
      <point x="270" y="367.2" type="line" smooth="yes"/>
      <point x="281.1" y="367.2"/>
      <point x="340" y="369.8"/>
      <point x="340" y="384" type="curve" smooth="yes"/>
      <point x="340" y="683" type="line" smooth="yes"/>
      <point x="340" y="697.2"/>
      <point x="281.1" y="699.8"/>
      <point x="270" y="699.8" type="curve" smooth="yes"/>
      <point x="100" y="699.8" type="line" smooth="yes"/>
      <point x="88.9" y="699.8"/>
      <point x="30" y="697.2"/>
      <point x="30" y="683" type="curve" smooth="yes"/>
      <point x="30" y="485" type="line" smooth="yes"/>
      <point x="30" y="470.8"/>
      <point x="88.9" y="468.2"/>
      <point x="100" y="468.2" type="curve" smooth="yes"/>
      <point x="131" y="468.2" type="line" smooth="yes"/>
      <point x="141.261" y="468.2"/>
      <point x="192.331" y="470.43"/>
      <point x="200" y="481.982" type="curve"/>
      <point x="200" y="400.8" type="line"/>
      <point x="35" y="400.8" type="line"/>
    </contour>
    <contour>
      <point x="170" y="502" type="line"/>
      <point x="170" y="666.2" type="line"/>
      <point x="200" y="666.2" type="line"/>
      <point x="200" y="502" type="line"/>
    </contour>
  </outline>
</glyph>
<glyph name="circledotted" format="1">
  <advance width="501"/>
  <unicode hex="25CC"/>
  <outline>
    <contour>
      <point x="211" y="492" type="curve" smooth="yes"/>
      <point x="211" y="468"/>
      <point x="227" y="452"/>
      <point x="251" y="452" type="curve" smooth="yes"/>
      <point x="275" y="452"/>
      <point x="291" y="468"/>
      <point x="291" y="492" type="curve" smooth="yes"/>
      <point x="291" y="516"/>
      <point x="275" y="532"/>
      <point x="251" y="532" type="curve" smooth="yes"/>
      <point x="227" y="532"/>
      <point x="211" y="516"/>
    </contour>
    <contour>
      <point x="102.5" y="389.85" type="curve" smooth="yes"/>
      <point x="123.428" y="389.85"/>
      <point x="143.475" y="409.931"/>
      <point x="143.475" y="430.85" type="curve" smooth="yes"/>
      <point x="143.475" y="451.769"/>
      <point x="123.428" y="471.85"/>
      <point x="102.5" y="471.85" type="curve" smooth="yes"/>
      <point x="81.6108" y="471.85"/>
      <point x="61.45" y="451.751"/>
      <point x="61.45" y="430.85" type="curve" smooth="yes"/>
      <point x="61.45" y="409.949"/>
      <point x="81.6108" y="389.85"/>
    </contour>
    <contour>
      <point x="358.85" y="430.5" type="curve" smooth="yes"/>
      <point x="358.85" y="409.572"/>
      <point x="378.931" y="389.525"/>
      <point x="399.85" y="389.525" type="curve" smooth="yes"/>
      <point x="420.769" y="389.525"/>
      <point x="440.85" y="409.572"/>
      <point x="440.85" y="430.5" type="curve" smooth="yes"/>
      <point x="440.85" y="451.389"/>
      <point x="420.751" y="471.55"/>
      <point x="399.85" y="471.55" type="curve" smooth="yes"/>
      <point x="378.949" y="471.55"/>
      <point x="358.85" y="451.389"/>
    </contour>
    <contour>
      <point x="0" y="281" type="curve" smooth="yes"/>
      <point x="0" y="257"/>
      <point x="16" y="241"/>
      <point x="40" y="241" type="curve" smooth="yes"/>
      <point x="64" y="241"/>
      <point x="80" y="257"/>
      <point x="80" y="281" type="curve" smooth="yes"/>
      <point x="80" y="305"/>
      <point x="64" y="321"/>
      <point x="40" y="321" type="curve" smooth="yes"/>
      <point x="16" y="321"/>
      <point x="0" y="305"/>
    </contour>
    <contour>
      <point x="421" y="281" type="curve" smooth="yes"/>
      <point x="421" y="257"/>
      <point x="437" y="241"/>
      <point x="461" y="241" type="curve" smooth="yes"/>
      <point x="485" y="241"/>
      <point x="501" y="257"/>
      <point x="501" y="281" type="curve" smooth="yes"/>
      <point x="501" y="305"/>
      <point x="485" y="321"/>
      <point x="461" y="321" type="curve" smooth="yes"/>
      <point x="437" y="321"/>
      <point x="421" y="305"/>
    </contour>
    <contour>
      <point x="400.5" y="91.85" type="curve" smooth="yes"/>
      <point x="421.428" y="91.85"/>
      <point x="441.475" y="111.931"/>
      <point x="441.475" y="132.85" type="curve" smooth="yes"/>
      <point x="441.475" y="153.769"/>
      <point x="421.428" y="173.85"/>
      <point x="400.5" y="173.85" type="curve" smooth="yes"/>
      <point x="379.611" y="173.85"/>
      <point x="359.45" y="153.751"/>
      <point x="359.45" y="132.85" type="curve" smooth="yes"/>
      <point x="359.45" y="111.949"/>
      <point x="379.611" y="91.85"/>
    </contour>
    <contour>
      <point x="60.85" y="132.5" type="curve" smooth="yes"/>
      <point x="60.85" y="111.572"/>
      <point x="80.9308" y="91.525"/>
      <point x="101.85" y="91.525" type="curve" smooth="yes"/>
      <point x="122.769" y="91.525"/>
      <point x="142.85" y="111.572"/>
      <point x="142.85" y="132.5" type="curve" smooth="yes"/>
      <point x="142.85" y="153.389"/>
      <point x="122.751" y="173.55"/>
      <point x="101.85" y="173.55" type="curve" smooth="yes"/>
      <point x="80.9494" y="173.55"/>
      <point x="60.85" y="153.389"/>
    </contour>
    <contour>
      <point x="211" y="71" type="curve" smooth="yes"/>
      <point x="211" y="47"/>
      <point x="227" y="31"/>
      <point x="251" y="31" type="curve" smooth="yes"/>
      <point x="275" y="31"/>
      <point x="291" y="47"/>
      <point x="291" y="71" type="curve" smooth="yes"/>
      <point x="291" y="95"/>
      <point x="275" y="111"/>
      <point x="251" y="111" type="curve" smooth="yes"/>
      <point x="227" y="111"/>
      <point x="211" y="95"/>
    </contour>
  </outline>
</glyph>
<glyph name="BaHalant.dv" format="1">
  <advance width="420"/>
  <outline>
    <contour>
      <point x="0" y="578.8" type="line"/>
      <point x="419.9" y="578.8" type="line"/>
      <point x="419.9" y="641.2" type="line"/>
      <point x="0" y="641.2" type="line"/>
    </contour>
    <contour>
      <point x="410" y="429" type="line"/>
      <point x="410.2" y="454.1" type="line" smooth="yes"/>
      <point x="410.2" y="457.3"/>
      <point x="410.3" y="461.1"/>
      <point x="408.9" y="464.1" type="curve"/>
      <point x="397.7" y="486.8"/>
      <point x="304.5" y="491.2"/>
      <point x="280" y="491.2" type="curve" smooth="yes"/>
      <point x="180" y="491.2" type="line" smooth="yes"/>
      <point x="159.2" y="491.2"/>
      <point x="50" y="486.4"/>
      <point x="50" y="460" type="curve" smooth="yes"/>
      <point x="50" y="101" type="line" smooth="yes"/>
      <point x="50" y="74.6"/>
      <point x="159.2" y="69.8"/>
      <point x="180" y="69.8" type="curve" smooth="yes"/>
      <point x="340.3" y="69.8" type="line" smooth="yes"/>
      <point x="364.8" y="69.8"/>
      <point x="458" y="74.2"/>
      <point x="469.2" y="96.9" type="curve"/>
      <point x="470.6" y="99.9"/>
      <point x="470.5" y="103.7"/>
      <point x="470.6" y="106.9" type="curve"/>
      <point x="470.8" y="133.8" type="line" smooth="yes"/>
      <point x="470.8" y="139.6"/>
      <point x="470.2" y="145.7"/>
      <point x="467.2" y="150.9" type="curve" smooth="yes"/>
      <point x="310" y="427.777" type="line"/>
      <point x="310" y="429" type="line"/>
    </contour>
    <contour>
      <point x="310" y="132.2" type="line"/>
      <point x="310" y="326.549" type="line"/>
      <point x="384.2" y="195.9" type="line" smooth="yes"/>
      <point x="388.254" y="188.78"/>
      <point x="419.592" y="134.722"/>
      <point x="420.578" y="131.876" type="curve"/>
    </contour>
  </outline>
</glyph>
<glyph name="BaNa.dv" format="1">
  <advance width="730"/>
  <outline>
    <contour>
      <point x="410" y="439" type="line"/>
      <point x="410.2" y="464.1" type="line" smooth="yes"/>
      <point x="410.2" y="467.3"/>
      <point x="410.3" y="471.1"/>
      <point x="408.9" y="474.1" type="curve"/>
      <point x="397.7" y="496.8"/>
      <point x="304.5" y="501.2"/>
      <point x="280" y="501.2" type="curve" smooth="yes"/>
      <point x="180" y="501.2" type="line" smooth="yes"/>
      <point x="159.2" y="501.2"/>
      <point x="50" y="496.4"/>
      <point x="50" y="470" type="curve" smooth="yes"/>
      <point x="50" y="111" type="line" smooth="yes"/>
      <point x="50" y="84.6"/>
      <point x="159.2" y="79.8"/>
      <point x="180" y="79.8" type="curve" smooth="yes"/>
      <point x="291" y="79.8" type="line" smooth="yes"/>
      <point x="315.5" y="79.8"/>
      <point x="408.7" y="84.2"/>
      <point x="420" y="107.153" type="curve"/>
      <point x="420" y="66.2995" type="line"/>
      <point x="360.903" y="61.1465"/>
      <point x="301.999" y="56.8751"/>
      <point x="242.8" y="53.2" type="curve" smooth="yes"/>
      <point x="219.6" y="51.8"/>
      <point x="90" y="47.8"/>
      <point x="90" y="19.9" type="curve" smooth="yes"/>
      <point x="90" y="-1.4"/>
      <point x="98" y="-54.1"/>
      <point x="100.6" y="-77.8" type="curve" smooth="yes"/>
      <point x="102.2" y="-92.6"/>
      <point x="146.8" y="-94.2"/>
      <point x="158.1" y="-94.2" type="curve" smooth="yes"/>
      <point x="175.3" y="-94.2"/>
      <point x="260" y="-86.6"/>
      <point x="260" y="-64.8" type="curve" smooth="yes"/>
      <point x="260" y="-40.2"/>
      <point x="254.9" y="-15.6"/>
      <point x="252.3" y="8.8" type="curve"/>
      <point x="275.325" y="10.2447"/>
      <point x="396.66" y="13.3229"/>
      <point x="420" y="35.5494" type="curve"/>
      <point x="420" y="0" type="line"/>
      <point x="680" y="0" type="line"/>
      <point x="680" y="578.8" type="line"/>
      <point x="730" y="578.8" type="line"/>
      <point x="730" y="641.2" type="line"/>
      <point x="0" y="641.2" type="line"/>
      <point x="0" y="578.8" type="line"/>
      <point x="420" y="578.8" type="line"/>
      <point x="420" y="245.466" type="line"/>
      <point x="310" y="438.035" type="line"/>
      <point x="310" y="439" type="line"/>
    </contour>
    <contour>
      <point x="310" y="142" type="line"/>
      <point x="310" y="337.233" type="line"/>
      <point x="420" y="144.664" type="line"/>
      <point x="420" y="142" type="line"/>
    </contour>
  </outline>
</glyph>
<glyph name="BaRa.dv" format="1">
  <advance width="730"/>
  <outline>
    <contour>
      <point x="82.4" y="-31.6" type="line"/>
      <point x="259.8" y="-9.4" type="line" smooth="yes"/>
      <point x="280.46" y="-6.79583"/>
      <point x="391.146" y="2.14079"/>
      <point x="420" y="22.8986" type="curve"/>
      <point x="420" y="0" type="line"/>
      <point x="680" y="0" type="line"/>
      <point x="680" y="578.8" type="line"/>
      <point x="730" y="578.8" type="line"/>
      <point x="730" y="641.2" type="line"/>
      <point x="0" y="641.2" type="line"/>
      <point x="0" y="578.8" type="line"/>
      <point x="420" y="578.8" type="line"/>
      <point x="420" y="245.466" type="line"/>
      <point x="310" y="438.035" type="line"/>
      <point x="310" y="439" type="line"/>
      <point x="410" y="439" type="line"/>
      <point x="410.2" y="464.1" type="line" smooth="yes"/>
      <point x="410.2" y="467.3"/>
      <point x="410.3" y="471.1"/>
      <point x="408.9" y="474.1" type="curve"/>
      <point x="397.7" y="496.8"/>
      <point x="304.5" y="501.2"/>
      <point x="280" y="501.2" type="curve" smooth="yes"/>
      <point x="180" y="501.2" type="line" smooth="yes"/>
      <point x="159.2" y="501.2"/>
      <point x="50" y="496.4"/>
      <point x="50" y="470" type="curve" smooth="yes"/>
      <point x="50" y="111" type="line" smooth="yes"/>
      <point x="50" y="84.6"/>
      <point x="159.2" y="79.8"/>
      <point x="180" y="79.8" type="curve" smooth="yes"/>
      <point x="291" y="79.8" type="line" smooth="yes"/>
      <point x="315.5" y="79.8"/>
      <point x="408.7" y="84.2"/>
      <point x="420" y="107.153" type="curve"/>
      <point x="420" y="58.7968" type="line"/>
      <point x="301.9" y="48.5343"/>
      <point x="183.8" y="38.6693"/>
      <point x="65.6" y="29.6" type="curve"/>
    </contour>
    <contour>
      <point x="310" y="142" type="line"/>
      <point x="310" y="337.233" type="line"/>
      <point x="420" y="144.664" type="line"/>
      <point x="420" y="142" type="line"/>
    </contour>
  </outline>
</glyph>
<glyph name="CaHalant.dv" format="1">
  <advance width="480"/>
  <outline>
    <contour>
      <point x="0" y="578.8" type="line"/>
      <point x="479.7" y="578.8" type="line"/>
      <point x="479.7" y="641.2" type="line"/>
      <point x="0" y="641.2" type="line"/>
    </contour>
    <contour>
      <point x="20" y="408.8" type="line"/>
      <point x="240" y="408.8" type="line"/>
      <point x="240" y="398.988" type="line"/>
      <point x="206.419" y="397.877"/>
      <point x="120" y="391.485"/>
      <point x="120" y="368" type="curve" smooth="yes"/>
      <point x="120" y="118.2" type="line" smooth="yes"/>
      <point x="120" y="91.8"/>
      <point x="229.2" y="87"/>
      <point x="250" y="87" type="curve" smooth="yes"/>
      <point x="381.1" y="87" type="line" smooth="yes"/>
      <point x="406.5" y="87"/>
      <point x="497.5" y="91.2"/>
      <point x="509.9" y="114.1" type="curve" smooth="yes"/>
      <point x="511.4" y="116.8"/>
      <point x="511.3" y="121.1"/>
      <point x="511.3" y="124" type="curve" smooth="yes"/>
      <point x="511.1" y="149.2" type="line"/>
      <point x="380" y="149.2" type="line"/>
      <point x="380" y="408.8" type="line"/>
      <point x="460" y="408.8" type="line"/>
      <point x="460" y="471.2" type="line"/>
      <point x="20" y="471.2" type="line"/>
    </contour>
  </outline>
</glyph>
<glyph name="CaNa.dv" format="1">
  <advance width="820"/>
  <outline>
    <contour>
      <point x="20" y="408.8" type="line"/>
      <point x="240" y="408.8" type="line"/>
      <point x="240" y="398.988" type="line"/>
      <point x="206.419" y="397.877"/>
      <point x="120" y="391.485"/>
      <point x="120" y="368" type="curve" smooth="yes"/>
      <point x="120" y="118.2" type="line" smooth="yes"/>
      <point x="120" y="91.8"/>
      <point x="229.2" y="87"/>
      <point x="250" y="87" type="curve" smooth="yes"/>
      <point x="381.1" y="87" type="line" smooth="yes"/>
      <point x="406.5" y="87"/>
      <point x="497.5" y="91.2"/>
      <point x="510" y="114.32" type="curve"/>
      <point x="510" y="66.2995" type="line"/>
      <point x="450.903" y="61.1465"/>
      <point x="391.999" y="56.8751"/>
      <point x="332.8" y="53.2" type="curve" smooth="yes"/>
      <point x="309.6" y="51.8"/>
      <point x="180" y="47.8"/>
      <point x="180" y="19.9" type="curve" smooth="yes"/>
      <point x="180" y="-1.4"/>
      <point x="188" y="-54.1"/>
      <point x="190.6" y="-77.8" type="curve" smooth="yes"/>
      <point x="192.2" y="-92.6"/>
      <point x="236.8" y="-94.2"/>
      <point x="248.1" y="-94.2" type="curve" smooth="yes"/>
      <point x="265.3" y="-94.2"/>
      <point x="350" y="-86.6"/>
      <point x="350" y="-64.8" type="curve" smooth="yes"/>
      <point x="350" y="-40.2"/>
      <point x="344.9" y="-15.6"/>
      <point x="342.3" y="8.8" type="curve"/>
      <point x="365.325" y="10.2447"/>
      <point x="486.66" y="13.3229"/>
      <point x="510" y="35.5494" type="curve"/>
      <point x="510" y="0" type="line"/>
      <point x="770" y="0" type="line"/>
      <point x="770" y="578.8" type="line"/>
      <point x="820" y="578.8" type="line"/>
      <point x="820" y="641.2" type="line"/>
      <point x="0" y="641.2" type="line"/>
      <point x="0" y="578.8" type="line"/>
      <point x="510" y="578.8" type="line"/>
      <point x="510" y="149.2" type="line"/>
      <point x="380" y="149.2" type="line"/>
      <point x="380" y="408.8" type="line"/>
      <point x="460" y="408.8" type="line"/>
      <point x="460" y="471.2" type="line"/>
      <point x="20" y="471.2" type="line"/>
    </contour>
  </outline>
</glyph>
<glyph name="CaRa.dv" format="1">
  <advance width="820"/>
  <outline>
    <contour>
      <point x="164.4" y="-21.6" type="line"/>
      <point x="256.3" y="-10.2"/>
      <point x="348.8" y="-1.5"/>
      <point x="440.3" y="12.6" type="curve" smooth="yes"/>
      <point x="451.614" y="14.3702"/>
      <point x="491.989" y="21.2404"/>
      <point x="510" y="32.6983" type="curve"/>
      <point x="510" y="0" type="line"/>
      <point x="770" y="0" type="line"/>
      <point x="770" y="578.8" type="line"/>
      <point x="820" y="578.8" type="line"/>
      <point x="820" y="641.2" type="line"/>
      <point x="0" y="641.2" type="line"/>
      <point x="0" y="578.8" type="line"/>
      <point x="510" y="578.8" type="line"/>
      <point x="510" y="149.2" type="line"/>
      <point x="380" y="149.2" type="line"/>
      <point x="380" y="408.8" type="line"/>
      <point x="460" y="408.8" type="line"/>
      <point x="460" y="471.2" type="line"/>
      <point x="20" y="471.2" type="line"/>
      <point x="20" y="408.8" type="line"/>
      <point x="240" y="408.8" type="line"/>
      <point x="240" y="398.988" type="line"/>
      <point x="206.419" y="397.877"/>
      <point x="120" y="391.485"/>
      <point x="120" y="368" type="curve" smooth="yes"/>
      <point x="120" y="118.2" type="line" smooth="yes"/>
      <point x="120" y="91.8"/>
      <point x="229.2" y="87"/>
      <point x="250" y="87" type="curve" smooth="yes"/>
      <point x="381.1" y="87" type="line" smooth="yes"/>
      <point x="406.5" y="87"/>
      <point x="497.5" y="91.2"/>
      <point x="510" y="114.32" type="curve"/>
      <point x="510" y="69.6244" type="line"/>
      <point x="389.265" y="59.1241"/>
      <point x="268.433" y="49.0168"/>
      <point x="147.6" y="39.6" type="curve"/>
    </contour>
  </outline>
</glyph>
